<?xml version="1.0" encoding="UTF-8"?>
<svg width="122px" height="192px" viewBox="0 0 122 192" version="1.1" xmlns="http://www.w3.org/2000/svg" xmlns:xlink="http://www.w3.org/1999/xlink">
    <title>Fichier 38 1</title>
    <defs>
        <rect id="path-1" x="0" y="0" width="122" height="192"></rect>
    </defs>
    <g id="Onboarding" stroke="none" stroke-width="1" fill="none" fill-rule="evenodd">
        <g id="New-product---Food" transform="translate(-295, -42)">
            <g id="Fichier-38-1" transform="translate(295, 42)">
                <mask id="mask-2" fill="white">
                    <use xlink:href="#path-1"></use>
                </mask>
                <g id="Clip" fill-rule="nonzero"></g>
                <g id="Group" mask="url(#mask-2)">
                    <g transform="translate(-5.2836, -1.0911)" id="Calque_2">
                        <g transform="translate(0, -0)">
                            <g id="Calque_1-2" transform="translate(0, 0)" fill-rule="nonzero">
                                <g id="Group" transform="translate(0, -0)">
                                    <g transform="translate(-0.008, 0.0003)" id="Vector">
                                        <path d="M65.8637824,29.9137268 C85.1947265,29.9137268 100.892286,45.6072472 100.892286,64.9390496 L100.892286,176.823382 C100.892286,184.241186 94.8706611,190.262268 87.4521824,190.262268 L44.2779968,190.262268 C36.8595182,190.262268 30.8378888,184.241186 30.8378888,176.823382 L30.8378888,64.9390496 C30.8378888,45.6098633 46.5328364,29.9137268 65.8663968,29.9137268 L65.8637824,29.9137268 Z" fill="#00A05A" transform="translate(65.8651, 110.088) rotate(-25.2268) translate(-65.8651, -110.088)"></path>
                                        <polygon fill="#00A05A" transform="translate(32.4513, 39.1811) rotate(-25.2268) translate(-32.4513, -39.1811)" points="22.2273071 14.6756503 42.6752098 14.6756503 42.6752098 63.6865145 22.2273071 63.6865145"></polygon>
                                        <path d="M8.7899001,5.34134487 L29.9911596,5.34134487 C31.8157906,5.34134487 33.2949475,6.82036566 33.2949475,8.64483066 L33.2949475,14.2944981 C33.2949475,16.118963 31.8157906,17.5979843 29.9911596,17.5979843 L8.7899001,17.5979843 C6.96526908,17.5979843 5.48611344,16.118963 5.48611344,14.2944981 L5.48611344,8.64483066 C5.48611344,6.82036566 6.96526908,5.34134487 8.7899001,5.34134487 Z" fill="#B3B3B3" transform="translate(19.3905, 11.4697) rotate(-25.2268) translate(-19.3905, -11.4697)"></path>
                                        <path d="M45.7094817,72.5956925 L87.7902561,72.5956925 C90.0136188,72.5956925 91.8160061,74.3979238 91.8160061,76.6210841 L91.8160061,147.317768 C91.8160061,149.540928 90.0136188,151.34316 87.7902561,151.34316 L45.7094817,151.34316 C43.486119,151.34316 41.6837277,149.540928 41.6837277,147.317768 L41.6837277,76.6210841 C41.6837277,74.3979238 43.486119,72.5956925 45.7094817,72.5956925 Z" fill="#FFFFFF" transform="translate(66.7499, 111.9694) rotate(-25.2268) translate(-66.7499, -111.9694)"></path>
                                        <path d="M42.4267756,98.6836681 C42.0370076,98.6836681 41.6629349,98.4639594 41.4824383,98.0899403 C41.2313126,97.5694521 41.4510449,96.9443441 41.9742234,96.6932543 L70.8144393,82.8597802 C71.335002,82.6086904 71.9602033,82.8283952 72.211329,83.3514989 C72.4624547,83.8719872 72.2427184,84.4970952 71.7195399,84.7481849 L42.8793239,98.5816591 C42.732834,98.6522781 42.5784974,98.6836681 42.4267756,98.6836681 Z" fill="#999999"></path>
                                        <path d="M46.1831958,106.872854 C45.7934278,106.872854 45.419355,106.653154 45.2388584,106.279134 C44.9877328,105.758646 45.207465,105.13353 45.7306436,104.88244 L74.5708596,91.0489663 C75.0940381,90.7978765 75.7166196,91.0175813 75.9677453,91.540685 C76.218871,92.0611732 75.9991347,92.6862813 75.4759562,92.937371 L46.6357441,106.770845 C46.4892541,106.841464 46.3349176,106.872854 46.1831958,106.872854 L46.1831958,106.872854 Z" fill="#999999"></path>
                                        <path d="M50.1410388,115.119589 C49.7512708,115.119589 49.377198,114.899888 49.1967015,114.525869 C48.9455758,114.005381 49.165312,113.380265 49.6884905,113.129175 L78.5287052,99.2957009 C79.0518838,99.0446111 79.6744652,99.2643159 79.9255909,99.7874197 C80.1767166,100.307908 79.9569803,100.933016 79.4338018,101.184106 L50.5935871,115.01758 C50.4470971,115.088199 50.2927606,115.119589 50.1410388,115.119589 L50.1410388,115.119589 Z" fill="#999999"></path>
                                    </g>
                                    <g transform="translate(16.4744, 118.7999)" id="Vector">
                                        <g>
                                            <g opacity="0.200000003" style="mix-blend-mode: multiply;" fill="#000000">
                                                <path d="M63.3359909,31.6634615 C63.3359909,49.1507124 49.1577459,63.326931 31.6679955,63.326931 C14.178245,63.326931 0,49.1507124 0,31.6634615 C0,14.1762107 14.178245,0 31.6679955,0 C49.1577459,0 63.3359909,14.1762107 63.3359909,31.6634615 Z" style="mix-blend-mode: multiply;"></path>
                                            </g>
                                            <path d="M65.4287045,32.7096708 C65.4287045,50.1969217 51.2504595,64.3731403 33.760709,64.3731403 C16.2709586,64.3731403 2.09271359,50.1969217 2.09271359,32.7096708 C2.09271359,15.22242 16.2709586,1.04620934 33.760709,1.04620934 C51.2504595,1.04620934 65.4287045,15.22242 65.4287045,32.7096708 Z" fill="#F0923A"></path>
                                        </g>
                                        <g transform="translate(19.941, 22.5902)" fill="#FFFFFF">
                                            <path d="M1.19284637,20.2362823 C0.533641451,20.2362823 0,19.7027012 0,19.0435905 L0,1.19267586 C0,0.533565168 0.533641451,0 1.19284637,0 C1.8520513,0 2.38569474,0.533565168 2.38569474,1.19267586 L2.38569474,19.0435905 C2.38569474,19.7027012 1.8520513,20.2362823 1.19284637,20.2362823 Z"></path>
                                            <path d="M5.40181792,20.2362828 C4.74261297,20.2362828 4.2089715,19.7027016 4.2089715,19.0435909 L4.2089715,1.19267626 C4.2089715,0.53356557 4.74261297,4.02216244e-07 5.40181792,4.02216244e-07 C6.06102286,4.02216244e-07 6.59466434,0.53356557 6.59466434,1.19267626 L6.59466434,19.0435909 C6.59466434,19.7027016 6.06102286,20.2362828 5.40181792,20.2362828 Z"></path>
                                            <path d="M9.61078846,20.2362828 C8.95158352,20.2362828 8.41794205,19.7027016 8.41794205,19.0435909 L8.41794205,1.19267626 C8.41794205,0.53356557 8.95158352,4.02216244e-07 9.61078846,4.02216244e-07 C10.2699934,4.02216244e-07 10.8036349,0.53356557 10.8036349,1.19267626 L10.8036349,19.0435909 C10.8036349,19.7027016 10.2699934,20.2362828 9.61078846,20.2362828 Z"></path>
                                            <path d="M13.8197585,20.2362828 C13.1605536,20.2362828 12.6269121,19.7027016 12.6269121,19.0435909 L12.6269121,1.19267626 C12.6269121,0.53356557 13.1605536,4.02216244e-07 13.8197585,4.02216244e-07 C14.4789635,4.02216244e-07 15.012605,0.53356557 15.012605,1.19267626 L15.012605,19.0435909 C15.012605,19.7027016 14.4789635,20.2362828 13.8197585,20.2362828 Z"></path>
                                            <path d="M18.0287285,20.2362828 C17.3695236,20.2362828 16.8358822,19.7027016 16.8358822,19.0435909 L16.8358822,1.19267626 C16.8358822,0.53356557 17.3695236,4.02216244e-07 18.0287285,4.02216244e-07 C18.6879334,4.02216244e-07 19.2215788,0.53356557 19.2215788,1.19267626 L19.2215788,19.0435909 C19.2215788,19.7027016 18.6879334,20.2362828 18.0287285,20.2362828 Z"></path>
                                            <path d="M22.2377034,20.2362828 C21.5784985,20.2362828 21.044857,19.7027016 21.044857,19.0435909 L21.044857,1.19267626 C21.044857,0.53356557 21.5784985,4.02216244e-07 22.2377034,4.02216244e-07 C22.8969084,4.02216244e-07 23.4305499,0.53356557 23.4305499,1.19267626 L23.4305499,19.0435909 C23.4305499,19.7027016 22.8969084,20.2362828 22.2377034,20.2362828 Z"></path>
                                            <path d="M26.4466726,20.2362828 C25.7874676,20.2362828 25.2538261,19.7027016 25.2538261,19.0435909 L25.2538261,1.19267626 C25.2538261,0.53356557 25.7874676,4.02216244e-07 26.4466726,4.02216244e-07 C27.1058775,4.02216244e-07 27.639519,0.53356557 27.639519,1.19267626 L27.639519,19.0435909 C27.639519,19.7027016 27.1058775,20.2362828 26.4466726,20.2362828 Z"></path>
                                        </g>
                                        <g transform="translate(14.5339, 18.0262)" fill="#FFFFFF">
                                            <polygon points="38.4536219 6.32954355 36.8840863 6.32954355 36.8840863 1.56931217 32.1205482 1.56931217 32.1205482 9.10892936e-07 38.4536219 9.10892936e-07"></polygon>
                                            <polygon points="1.56953561 6.32954264 0 6.32954264 0 0 6.3304615 0 6.3304615 1.56931126 1.56953561 1.56931126"></polygon>
                                            <polygon points="6.33046118 29.3670359 -3.26214746e-07 29.3670359 -3.26214746e-07 23.0374775 1.56953529 23.0374775 1.56953529 27.7977247 6.33046118 27.7977247"></polygon>
                                            <polygon points="38.4536219 29.3670359 32.1205482 29.3670359 32.1205482 27.7977247 36.8840863 27.7977247 36.8840863 23.0374775 38.4536219 23.0374775"></polygon>
                                        </g>
                                    </g>
                                </g>
                            </g>
                        </g>
                    </g>
                </g>
            </g>
        </g>
    </g>
</svg>