<?xml version="1.0" encoding="UTF-8"?>
<svg width="223px" height="226px" viewBox="0 0 223 226" version="1.1" xmlns="http://www.w3.org/2000/svg" xmlns:xlink="http://www.w3.org/1999/xlink">
    <title>Group</title>
    <g id="Onboarding" stroke="none" stroke-width="1" fill="none" fill-rule="evenodd">
        <g id="New-product---Food" transform="translate(-98, -48)" fill-rule="nonzero">
            <g id="Group" transform="translate(98, 48)">
                <g id="Group" transform="translate(-0, -0)">
                    <g transform="translate(133.9233, 84.0713)" fill="#5CDCFF" id="Vector">
                        <path d="M59.4335104,2.78226686 C36.6381159,-5.70760127 11.2742281,5.88443146 2.78278275,28.6781605 C-5.70866257,51.469321 5.8855305,76.8284966 28.683494,85.3183647 C39.0422354,89.1780958 49.9326454,88.885338 59.5285435,85.2824087 L73.9224003,92.7091283 C76.9789094,94.2858913 80.523431,91.6896138 79.9403826,88.2998299 L77.299962,72.9559219 C80.6801016,69.0730786 83.4309675,64.530267 85.3342224,59.4224792 C93.8256677,36.6313187 82.2314739,11.272135 59.4335104,2.78226686 L59.4335104,2.78226686 Z"></path>
                    </g>
                    <g transform="translate(0, 90.686)" fill="#F4BDFF" id="Vector">
                        <path d="M78.2239049,28.339625 C71.7949617,7.22280853 49.4644697,-4.68508683 28.3437342,1.7426635 C7.22556774,8.16784576 -4.68454345,30.4967609 1.74183124,51.6135774 C3.22128443,56.4774045 5.54833982,60.8507354 8.50724621,64.6257225 L5.63823822,81.2921645 C5.16563513,84.0450803 8.04234874,86.153424 10.5260835,84.8719828 L25.0278081,77.3913439 L24.4062308,76.7827247 C32.7332913,80.311182 42.2957981,81.0507709 51.6220039,78.2105424 C72.7427394,71.782792 84.6528482,49.4564415 78.2239049,28.339625 L78.2239049,28.339625 Z"></path>
                    </g>
                    <path d="M172.719805,133.306408 L183.250635,103.527679 L191.862791,106.760813 L180.183851,136.108125 L172.719805,133.306408 Z M167.187256,146.292878 L170.420998,137.682321 L179.03317,140.915448 L175.799428,149.52602 L167.187256,146.292878 Z" id="Vector" fill="#000000"></path>
                    <path d="M37.7780774,138.000721 L37.4030754,136.770646 C36.9253352,135.201587 36.7275617,133.753211 36.8097536,132.422977 C36.8919454,131.092744 37.148795,129.857532 37.5803022,128.712196 C38.0118094,127.569428 38.4869804,126.508835 39.008385,125.532988 C39.7275636,124.184778 40.3696865,122.967543 40.9347555,121.878703 C41.4998245,120.792431 41.6154097,119.695888 41.2789368,118.589072 C41.0503408,117.841779 40.6702017,117.225451 40.1333862,116.7478 C39.5965707,116.26758 38.931333,115.964552 38.132531,115.838719 C37.333729,115.712886 36.416773,115.805336 35.3842379,116.121203 C34.0640313,116.521813 33.0366331,117.274248 32.3020434,118.37336 C31.5648853,119.475039 31.2977619,120.733369 31.495536,122.153483 L23.4921056,122.543819 C23.2044341,120.450884 23.4124823,118.478644 24.11625,116.627103 C24.8174492,114.778129 25.9578606,113.144868 27.5349167,111.72989 C29.1094044,110.314912 31.0383439,109.26203 33.3217364,108.566097 C36.1034168,107.718651 38.6128352,107.551727 40.8499947,108.057627 C43.0871541,108.566094 44.9467479,109.518833 46.4236327,110.918403 C47.9030861,112.317973 48.9279132,113.96407 49.5032561,115.851564 C49.9167839,117.207478 50.0220947,118.488919 49.8268891,119.695887 C49.6291149,120.905424 49.272092,122.066168 48.753256,123.17812 C48.2344199,124.290071 47.6719214,125.386615 47.0657566,126.46775 C46.27466,127.839072 45.6248277,129.223235 45.1162656,130.625373 C44.6077035,132.02751 44.5871581,133.493845 45.0546242,135.026952 L45.2652388,135.72289 L37.7780774,138.000721 L37.7780774,138.000721 Z M41.3071904,150.363167 L38.8645498,142.343235 L46.8859587,139.901061 L49.3286003,147.920979 L41.3071904,150.363167 Z" id="Vector" fill="#000000"></path>
                    <g transform="translate(57.7179, 118.756)" id="Vector">
                        <g>
                            <g fill="#FFC51C">
                                <path d="M106.833992,53.40707 C106.833992,82.902984 82.9183838,106.814156 53.4169921,106.814156 C23.9156004,106.814156 0,82.902984 0,53.40707 C0,23.9111559 23.9156004,0 53.4169921,0 C82.9183838,0 106.833992,23.9111559 106.833992,53.40707 Z"></path>
                            </g>
                            <path d="M53.4170837,80.1273203 C43.0583421,80.1273203 32.6996019,76.1854132 24.8117534,68.2990296 C23.9949719,67.4823998 23.9949719,66.1572973 24.8117534,65.3406675 C25.6285348,64.5240377 26.9538756,64.5240377 27.7706571,65.3406675 C41.912792,79.4801761 64.9213809,79.4801761 79.0635158,65.3406675 C79.8802973,64.5240377 81.2056301,64.5240377 82.0224116,65.3406675 C82.8391931,66.1572973 82.8391931,67.4823998 82.0224116,68.2990296 C74.1371311,76.1828456 63.7758254,80.1273203 53.4170837,80.1273203 L53.4170837,80.1273203 Z" fill="#000000"></path>
                        </g>
                        <g transform="translate(1.3923, 10.1052)">
                            <path d="M64.2123781,32.3621784 C69.1695733,41.4375549 80.5865258,44.7888234 89.6635872,39.8325484 C98.7406487,34.8762734 102.092539,23.4614272 97.1353442,14.3860506 C92.178149,5.3106741 80.7611826,1.95940313 71.6841211,6.91567816 C62.6070597,11.8719532 59.2551829,23.2868019 64.2123781,32.3621784 L64.2123781,32.3621784 Z" fill="#FFFFFF"></path>
                            <path d="M69.0213019,30.931753 C71.3483586,35.1920954 76.7062312,36.7637299 80.964796,34.4371052 C85.2259293,32.1104805 86.7978556,26.753594 84.470799,22.4958197 C82.1437424,18.2354774 76.7858608,16.6638436 72.527296,18.9904683 C68.2661626,21.3170929 66.6942453,26.6739787 69.0213019,30.931753 Z" fill="#000000"></path>
                            <path d="M79.1460885,23.7773069 C80.0476304,25.4285427 82.128106,26.039728 83.7796485,25.1383535 C85.431191,24.2369791 86.0424898,22.1568898 85.1409479,20.505654 C84.239406,18.8544182 82.1589304,18.2432329 80.5073879,19.1446073 C78.8558454,20.0459818 78.2445466,22.123503 79.1460885,23.7773069 Z" fill="#FFFFFF"></path>
                            <path d="M39.8405458,32.3621784 C34.8833506,41.4375549 23.4663901,44.7888234 14.3893286,39.8325484 C5.31226717,34.8762734 1.96038283,23.4614272 6.91757803,14.3860506 C11.8747732,5.3106741 23.2917333,1.95940313 32.3687948,6.91567816 C41.4458562,11.8719532 44.797741,23.2868019 39.8405458,32.3621784 L39.8405458,32.3621784 Z" fill="#FFFFFF"></path>
                            <path d="M35.0322212,30.931753 C32.7051643,35.1920954 27.3472821,36.7637299 23.0887169,34.4371052 C18.8275831,32.1104805 17.2556656,26.753594 19.5827225,22.4958197 C21.9097794,18.2354774 27.2676604,16.6638436 31.5262256,18.9904683 C35.7873594,21.3170929 37.3592781,26.6739787 35.0322212,30.931753 Z" fill="#000000"></path>
                            <path d="M35.7307931,23.7053192 C34.8292513,25.3565548 32.748776,25.9677556 31.0972337,25.0663813 C29.4456914,24.1650069 28.8343848,22.0849022 29.7359265,20.4336666 C30.6374683,18.782431 32.7179515,18.1712458 34.3694938,19.0726201 C36.0210362,19.9739945 36.6323349,22.0515155 35.7307931,23.7053192 Z" fill="#FFFFFF"></path>
                            <path d="M23.3784408,46.7482033 C10.4871636,46.7482033 0,36.2629801 0,23.3740977 C0,10.4852153 10.4871636,0 23.3784408,0 C36.269718,0 46.7568893,10.4852153 46.7568893,23.3740977 C46.7568893,36.2629801 36.269718,46.7482033 23.3784408,46.7482033 Z M23.3784408,6.0399757 C13.8185012,6.0399757 6.04109796,13.8159341 6.04109796,23.3740977 C6.04109796,32.9322613 13.8185012,40.7082197 23.3784408,40.7082197 C32.9383803,40.7082197 40.7157835,32.9322613 40.7157835,23.3740977 C40.7157835,13.8159341 32.9383803,6.0399757 23.3784408,6.0399757 Z" fill="#000000"></path>
                            <path d="M80.6744001,46.7481932 C67.7831229,46.7481932 57.2959671,36.26297 57.2959671,23.3740877 C57.2959671,10.4852053 67.7831229,-1.00615671e-05 80.6744001,-1.00615671e-05 C93.5656774,-1.00615671e-05 104.052849,10.4852053 104.052849,23.3740877 C104.052849,36.26297 93.5656774,46.7481932 80.6744001,46.7481932 Z M80.6744001,6.03996564 C71.1144605,6.03996564 63.3370651,13.8159241 63.3370651,23.3740877 C63.3370651,32.9322513 71.1144605,40.7082097 80.6744001,40.7082097 C90.2343397,40.7082097 98.011743,32.9322513 98.011743,23.3740877 C98.011743,13.8159241 90.2343397,6.03996564 80.6744001,6.03996564 Z" fill="#000000"></path>
                            <path d="M57.6581592,25.3694706 C54.5528482,22.2647366 49.5006242,22.2647366 46.3953132,25.3694706 L42.2805786,21.2555005 C44.885033,18.65153 48.3473654,17.216013 52.0254507,17.216013 C55.703536,17.216013 59.1658684,18.6489622 61.7703228,21.2555005 L57.655596,25.3694706 L57.6581592,25.3694706 Z" fill="#000000"></path>
                        </g>
                    </g>
                    <g transform="translate(49.2229, 0)" id="Vector">
                        <path d="M75.1446434,108.245101 L49.4853706,112.73143 L50.535892,118.740592 C51.7764752,125.825755 58.5239047,130.563747 65.6103828,129.323394 C72.696861,128.083041 77.4357401,121.336856 76.195157,114.251693 L75.1446434,108.242531 L75.1446434,108.245101 Z" fill="#545454"></path>
                        <polygon fill="#999999" transform="translate(61.219, 104.2336) rotate(-9.9182) translate(-61.219, -104.2336)" points="48.1942033 92.5362 74.243741 92.5362 74.243741 115.930977 48.1942033 115.930977"></polygon>
                        <path d="M11.9368539,71.0140324 C7.86065217,47.7221063 23.4437103,25.5369951 46.7399601,21.46155 C70.0362099,17.3861048 92.2254417,32.9662748 96.3016434,56.2582009 L11.9368539,71.0140324 L11.9368539,71.0140324 Z" fill="#FFCD1E"></path>
                        <path d="M96.3014471,56.2581673 C100.377649,79.5500933 84.7945843,101.735203 61.4983345,105.810648 C38.2020847,109.886093 16.0128529,94.3059248 11.9366512,71.0139988 L96.3014471,56.2581673 L96.3014471,56.2581673 Z" fill="#FFCD1E"></path>
                        <path d="M80.089293,46.3045367 C79.3983678,46.4252335 78.6663444,46.1632944 78.2168577,45.5649462 C71.3692492,36.4561851 60.1474949,32.0160832 48.9308763,33.9780491 C47.8829302,34.1603784 46.8837796,33.4618779 46.7014164,32.4115584 C46.5190532,31.3612388 47.2176855,30.3648477 48.2682001,30.1825184 C60.9206077,27.9688867 73.5781475,32.9765226 81.2990443,43.2511631 C81.9385996,44.1011772 81.7665129,45.3081457 80.916341,45.9475823 C80.6646285,46.1376156 80.382104,46.2557443 80.091864,46.3045367 L80.089293,46.3045367 Z" fill="#FFFFFF"></path>
                        <path d="M45.4041725,13.8267783 C44.3562265,14.0091076 43.3570837,13.308039 43.1747205,12.2602875 L41.4255759,2.25785544 C41.2432127,1.21010401 41.9418371,0.211144987 42.9923517,0.0288156952 C44.0428663,-0.153513596 45.0394484,0.547555438 45.2218115,1.59530687 L46.9709564,11.5977383 C47.1533196,12.6454898 46.4546871,13.644449 45.4041725,13.8267783 Z" fill="#000000"></path>
                        <path d="M84.031351,22.5555684 C83.5459054,22.640313 83.0270756,22.5401603 82.5929998,22.2345661 C81.7222799,21.6233777 81.5116589,20.4215441 82.1229608,19.5509858 L87.9585901,11.240879 C88.569892,10.3703208 89.7719352,10.1597429 90.6426552,10.7709313 C91.5133751,11.3821196 91.7239961,12.5839523 91.1126942,13.4545105 L85.2770806,21.7646183 C84.9714297,22.1986134 84.5167966,22.4708238 84.031351,22.5555684 Z" fill="#000000"></path>
                        <path d="M10.5700445,35.4032561 C10.0845989,35.4880007 9.56576517,35.387848 9.13168945,35.0822538 L0.820037993,29.2477157 C-0.0506819421,28.6365273 -0.261298999,27.4346956 0.350002913,26.5641374 C0.961304825,25.6935792 2.16335976,25.4830013 3.03407969,26.0941897 L11.3457311,31.9287273 C12.2164511,32.5399157 12.4270682,33.7417478 11.8157663,34.612306 C11.5101153,35.0463011 11.0554901,35.3185115 10.5700445,35.4032561 L10.5700445,35.4032561 Z" fill="#000000"></path>
                        <path d="M55.4960215,71.5019054 L36.2836723,58.012106 C35.4129523,57.4009176 35.2023391,56.1990854 35.8136411,55.3285272 C36.424943,54.457969 37.626994,54.247391 38.4977139,54.8585794 L54.5559513,66.1347489 L65.8342154,50.0794973 C66.4455173,49.2089391 67.6475703,48.9983612 68.5182903,49.6095495 C69.3890103,50.2207379 69.5996313,51.4225735 68.9883293,52.2931317 L55.4960215,71.5019054 L55.4960215,71.5019054 Z" fill="#000000"></path>
                        <polygon fill="#000000" transform="translate(57.5085, 83.0339) rotate(-9.9182) translate(-57.5085, -83.0339)" points="55.5821472 68.6079533 59.4348689 68.6079533 59.4348689 97.4597905 55.5821472 97.4597905"></polygon>
                        <path d="M61.4986887,105.810665 C78.8899698,102.770131 91.9790211,89.6347195 95.8035107,73.4793167 L18.2529354,87.043591 C27.3351348,100.939138 44.1074076,108.853767 61.4986887,105.810665 Z" fill="#999999"></path>
                    </g>
                </g>
            </g>
        </g>
    </g>
</svg>