<?xml version="1.0" encoding="UTF-8"?>
<svg width="118px" height="184px" viewBox="0 0 118 184" version="1.1" xmlns="http://www.w3.org/2000/svg" xmlns:xlink="http://www.w3.org/1999/xlink">
    <title>Fichier 38 1</title>
    <g id="Onboarding" stroke="none" stroke-width="1" fill="none" fill-rule="evenodd">
        <g id="New-product---Food" transform="translate(-300, -20)" fill-rule="nonzero">
            <g id="muffins" transform="translate(300, 20)">
                <path d="M58.7328461,27 C57.5972459,26.9985553 56.6200173,26.182092 56.3965914,25.0480858 C56.021315,23.1418439 54.50558,13.257567 61.567455,5.85124251 C64.4410463,2.88887381 68.1185838,0.869158179 72.1276694,0.0515381629 C73.4174203,-0.222079436 74.6807512,0.621005043 74.9493981,1.93462006 C75.218045,3.24823508 74.3902767,4.53494136 73.1005258,4.808559 C70.0243134,5.42897049 67.2000131,6.97067661 64.989467,9.23615792 C59.4776743,15.0164274 60.8941837,23.1803898 61.0738712,24.0922116 C61.2142771,24.8065517 61.0326925,25.5473697 60.5791172,26.1106793 C60.1255418,26.6739888 59.4478067,27.0003872 58.732528,27 L58.7328461,27 Z" id="Path" fill="#52443D"></path>
                <path d="M107,101 L95.9286063,155.810898 C95.2966829,158.846727 92.6411471,161.014915 89.5732343,161 L28.4264491,161 C25.3585584,161.014731 22.7031629,158.846416 22.0713937,155.810578 L11,101 L107,101 Z" id="Path" fill="#0078DB"></path>
                <path d="M118,84.6541154 C117.98188,91.8478617 113.972385,98.434882 107.596533,101.745506 C104.764267,103.233317 101.612637,104.007135 98.4145522,104 L19.5854492,104 C14.4028624,104.011093 9.42500689,101.974324 5.73232754,98.3317235 C5.51771005,98.1173383 5.30714539,97.8989203 5.10074574,97.6765857 C1.82035849,94.1363917 -0.00181298091,89.4842915 0,84.6541154 C0,73.9760109 8.76520258,65.3114918 19.5854492,65.3114918 L20.5953388,65.3114918 C20.5696908,64.8329843 20.5472488,64.3480538 20.5472488,63.8567004 C20.5472488,50.1309204 31.8195413,39 45.7175469,39 C46.3811887,39 47.0405558,39.0256917 47.6956483,39.077075 L70.3043531,39.077075 C70.9583769,39.0256917 71.6188127,39 72.2856605,39 C86.1804601,39 97.4527525,50.1309204 97.4527525,63.8567004 C97.4527525,64.3480538 97.4303105,64.8329843 97.4046625,65.3114918 L98.4145522,65.3114918 C103.597519,65.2984001 108.576086,67.3354606 112.267674,70.9797187 C115.93375,74.5820527 118,79.5099196 118,84.6541154 Z" id="Path" fill="#FFBE00"></path>
                <circle id="Oval" fill="#DD452A" cx="58.5" cy="36.5" r="11.5"></circle>
                <path d="M46.6177761,65 C46.3808005,65 46.1451644,64.9625731 45.918721,64.8889908 L36.7002093,61.9108078 C35.8809217,61.6533141 35.2556166,60.9529243 35.0619471,60.0758283 C34.8682776,59.1987322 35.1359812,58.2796058 35.7633146,57.6677719 C36.390648,57.055938 37.2812857,56.8453422 38.0967322,57.1160234 L47.3152439,60.0942064 C48.4428731,60.4574793 49.1481701,61.6353561 48.9735426,62.8636375 C48.798915,64.0919189 47.7969753,65.000543 46.6177761,65 Z" id="Path" fill="#ED774B"></path>
                <path d="M20.5150187,91 C19.5676788,90.9987317 18.701202,90.4741761 18.2725578,89.6424369 C17.8439136,88.8106977 17.9256252,87.8124985 18.4840293,87.0590757 L24.4484241,79.0172673 C25.2684589,77.9115799 26.8436606,77.6697206 27.9667356,78.4770596 C29.0898106,79.2843985 29.3354732,80.8352128 28.5154385,81.9409002 L22.5503722,89.9827086 C22.0762839,90.6228395 21.319702,91.0009864 20.5150187,91 L20.5150187,91 Z" id="Path" fill="#49A2F8"></path>
                <path d="M54.6373767,92 C54.0806467,92.000524 53.5417894,91.80091 53.1166949,91.4366784 L45.8394611,85.2216513 C44.8423356,84.3700533 44.715402,82.8607375 45.5559469,81.8505 C46.3964918,80.8402624 47.8862179,80.7116596 48.8833434,81.5632574 L56.1602624,87.7782845 C56.918799,88.4259503 57.1969188,89.4848905 56.8564067,90.4288516 C56.5158946,91.3728127 55.6293598,92.000509 54.6373767,92 L54.6373767,92 Z" id="Path" fill="#1DAA6F"></path>
                <path d="M89.3734764,93 C88.3795941,93.0004561 87.4907904,92.377663 87.1467648,91.4397209 C86.8027391,90.5017788 87.0764322,89.4475514 87.8324455,88.7985746 L95.1058456,82.5557769 C96.1038453,81.7162639 97.5878218,81.8418981 98.4322852,82.8373951 C99.2767485,83.832892 99.1665989,85.3267958 98.185377,86.1860874 L90.9122932,92.4288851 C90.483607,92.7979824 89.9377558,93.0005686 89.3734764,93 L89.3734764,93 Z" id="Path" fill="#ED774B"></path>
                <path d="M79.5433288,84 C78.577673,84.0003522 77.7012239,83.4728606 77.3028588,82.6515713 L73.2349388,74.2745431 C72.8564791,73.5254033 72.939671,72.6439984 73.4526243,71.9682003 C73.9655775,71.2924021 74.8287175,70.9270476 75.7111737,71.0121894 C76.59363,71.0973312 77.3585066,71.6197612 77.7126009,72.3792144 L81.7808486,80.7562426 C82.1254626,81.4665036 82.0604797,82.2915085 81.6082851,82.94706 C81.1560905,83.6026114 80.3784816,83.9991212 79.5433288,84 L79.5433288,84 Z" id="Path" fill="#1DAA6F"></path>
                <path d="M65.3927958,63 C64.2181871,62.9996495 63.2174396,62.1289909 63.0306656,60.9449271 C62.8438916,59.7608633 63.526303,58.6134136 64.6414063,58.2365259 L73.8399452,55.1289634 C74.6533637,54.847916 75.551908,55.0334397 76.1944665,55.6151048 C76.837025,56.19677 77.1250685,57.0853846 76.949248,57.9436068 C76.7734275,58.801829 76.1607031,59.4980599 75.3436814,59.7679916 L66.1448234,62.8758799 C65.9022601,62.9580443 65.6483591,63 65.3927958,63 L65.3927958,63 Z" id="Path" fill="#49A2F8"></path>
                <polygon id="Path" fill="#00C8FF" points="98.8308751 141 102.7 122 15.2 122 19.0691249 141"></polygon>
                <circle id="Oval" fill="#FFBE00" cx="59.5" cy="131.5" r="17.5"></circle>
                <g id="Group" transform="translate(0.6692, 135.6988)">
                    <g id="Vector">
                        <g opacity="0.200000003" style="mix-blend-mode: multiply;" transform="translate(4.3308, 5.3012)" fill="#000000">
                            <path d="M42.5926758,21.1505736 C42.5926758,32.8317155 33.0579802,42.3011526 21.2963379,42.3011526 C9.53469558,42.3011526 0,32.8317155 0,21.1505736 C0,9.46943174 9.53469558,0 21.2963379,0 C33.0579802,0 42.5926758,9.46943174 42.5926758,21.1505736 Z" style="mix-blend-mode: multiply;"></path>
                        </g>
                        <path d="M48.3307975,24 C48.3307975,37.2548323 37.5115796,48 24.1653987,48 C10.8192179,48 0,37.2548323 0,24 C0,10.7451617 10.8192179,0 24.1653987,0 C37.5115796,0 48.3307975,10.7451617 48.3307975,24 Z" fill="#483527"></path>
                    </g>
                    <g transform="translate(15.3308, 18.3012)" fill="#FFFFFF" id="Vector">
                        <path d="M0.776830984,14 C0.347529424,14 0,13.6308541 0,13.1748637 L0,0.825124961 C0,0.36913461 0.347529424,0 0.776830984,0 C1.20613254,0 1.55366327,0.36913461 1.55366327,0.825124961 L1.55366327,13.1748637 C1.55366327,13.6308541 1.20613254,14 0.776830984,14 Z"></path>
                        <path d="M3.51788765,14.0000003 C3.08858608,14.0000003 2.74105664,13.6308543 2.74105664,13.174864 L2.74105664,0.825125239 C2.74105664,0.369134888 3.08858608,2.78263911e-07 3.51788765,2.78263911e-07 C3.94718923,2.78263911e-07 4.29471866,0.369134888 4.29471866,0.825125239 L4.29471866,13.174864 C4.29471866,13.6308543 3.94718923,14.0000003 3.51788765,14.0000003 Z"></path>
                        <path d="M6.25894367,14.0000003 C5.8296421,14.0000003 5.48211266,13.6308543 5.48211266,13.174864 L5.48211266,0.825125239 C5.48211266,0.369134888 5.8296421,2.78263911e-07 6.25894367,2.78263911e-07 C6.68824525,2.78263911e-07 7.03577468,0.369134888 7.03577468,0.825125239 L7.03577468,13.174864 C7.03577468,13.6308543 6.68824525,14.0000003 6.25894367,14.0000003 Z"></path>
                        <path d="M8.99999938,14.0000003 C8.5706978,14.0000003 8.22316837,13.6308543 8.22316837,13.174864 L8.22316837,0.825125239 C8.22316837,0.369134888 8.5706978,2.78263911e-07 8.99999938,2.78263911e-07 C9.42930095,2.78263911e-07 9.77683039,0.369134888 9.77683039,0.825125239 L9.77683039,13.174864 C9.77683039,13.6308543 9.42930095,14.0000003 8.99999938,14.0000003 Z"></path>
                        <path d="M11.741055,14.0000003 C11.3117535,14.0000003 10.9642241,13.6308543 10.9642241,13.174864 L10.9642241,0.825125239 C10.9642241,0.369134888 11.3117535,2.78263911e-07 11.741055,2.78263911e-07 C12.1703566,2.78263911e-07 12.5178886,0.369134888 12.5178886,0.825125239 L12.5178886,13.174864 C12.5178886,13.6308543 12.1703566,14.0000003 11.741055,14.0000003 Z"></path>
                        <path d="M14.4821139,14.0000003 C14.0528123,14.0000003 13.7052829,13.6308543 13.7052829,13.174864 L13.7052829,0.825125239 C13.7052829,0.369134888 14.0528123,2.78263911e-07 14.4821139,2.78263911e-07 C14.9114155,2.78263911e-07 15.2589449,0.369134888 15.2589449,0.825125239 L15.2589449,13.174864 C15.2589449,13.6308543 14.9114155,14.0000003 14.4821139,14.0000003 Z"></path>
                        <path d="M17.223169,14.0000003 C16.7938674,14.0000003 16.446338,13.6308543 16.446338,13.174864 L16.446338,0.825125239 C16.446338,0.369134888 16.7938674,2.78263911e-07 17.223169,2.78263911e-07 C17.6524706,2.78263911e-07 18,0.369134888 18,0.825125239 L18,13.174864 C18,13.6308543 17.6524706,14.0000003 17.223169,14.0000003 Z"></path>
                    </g>
                    <g transform="translate(11.3308, 15.3012)" fill="#F2994A" id="Vector">
                        <polygon points="26 4.31064516 24.9387756 4.31064516 24.9387756 1.06875762 21.7179609 1.06875762 21.7179609 6.20350619e-07 26 6.20350619e-07"></polygon>
                        <polygon points="1.06122472 4.31064454 2.20566562e-07 4.31064454 2.20566562e-07 0 4.28027317 0 4.28027317 1.068757 1.06122472 1.068757"></polygon>
                        <polygon points="4.28027295 20 0 20 0 15.6893447 1.0612245 15.6893447 1.0612245 18.931243 4.28027295 18.931243"></polygon>
                        <polygon points="26 20 21.7179609 20 21.7179609 18.931243 24.9387756 18.931243 24.9387756 15.6893447 26 15.6893447"></polygon>
                    </g>
                </g>
            </g>
        </g>
    </g>
</svg>