<?xml version="1.0" encoding="UTF-8"?>
<svg width="285px" height="217px" viewBox="0 0 285 217" version="1.1" xmlns="http://www.w3.org/2000/svg" xmlns:xlink="http://www.w3.org/1999/xlink">
    <title>Group 1634</title>
    <defs>
        <rect id="path-1" x="0" y="0" width="285" height="216.690475"></rect>
    </defs>
    <g id="Onboarding" stroke="none" stroke-width="1" fill="none" fill-rule="evenodd">
        <g id="New-product---Food" transform="translate(-71, -348)">
            <g id="Group-1634" transform="translate(71, 348)">
                <g id="Fichier-37-1">
                    <mask id="mask-2" fill="white">
                        <use xlink:href="#path-1"></use>
                    </mask>
                    <g id="Clip" fill-rule="nonzero"></g>
                    <g id="Calque_1-2" mask="url(#mask-2)">
                        <g transform="translate(0, -0.0017)" id="Group">
                            <path d="M126.081011,195.253708 L158.356204,195.253708 C170.223029,195.253708 179.857994,204.860308 179.857994,216.692209 L104.579231,216.692209 C104.579231,204.860308 114.214187,195.253708 126.081011,195.253708 L126.081011,195.253708 Z" id="Vector" fill="#784600" fill-rule="nonzero"></path>
                            <path d="M142.289366,201.711517 C140.488439,201.711517 139.028397,200.255772 139.028397,198.460146 L139.028397,27.8884365 C139.028397,26.0928098 140.488439,24.6370697 142.289366,24.6370697 C144.090293,24.6370697 145.550326,26.0928098 145.550326,27.8884365 L145.550326,198.460146 C145.550326,200.255772 144.090293,201.711517 142.289366,201.711517 L142.289366,201.711517 Z" id="Vector" fill="#784600" fill-rule="nonzero"></path>
                            <path d="M154.345904,17.8617859 C152.731502,17.8617859 151.329349,16.6657702 151.117096,15.0272605 C150.885549,13.2476659 152.149417,11.6187751 153.934264,11.3879088 L242.379076,0.0273630728 C244.163924,-0.203503255 245.797634,1.05664222 246.029181,2.83623681 C246.260729,4.61583141 244.996861,6.2447216 243.212014,6.47558793 L154.767192,17.8361335 C154.62569,17.8553724 154.484189,17.8617859 154.345904,17.8617859 L154.345904,17.8617859 Z" id="Vector" fill="#784600" fill-rule="nonzero"></path>
                            <path d="M41.7815228,32.319787 C40.1671203,32.319787 38.7649695,31.1237701 38.5527173,29.4852605 C38.3243855,27.705666 39.5850352,26.0767765 41.3698827,25.8459102 L129.570287,14.51743 C131.355135,14.2897702 132.988835,15.5467084 133.220383,17.3263029 C133.448714,19.1058974 132.188062,20.7347869 130.403215,20.9656533 L42.2028103,32.2941346 C42.0613089,32.3133735 41.9198083,32.319787 41.7815228,32.319787 L41.7815228,32.319787 Z" id="Vector" fill="#784600" fill-rule="nonzero"></path>
                            <path d="M142.289352,29.5237398 C134.899118,29.5237398 128.8853,23.5276288 128.8853,16.1591463 C128.8853,8.79066381 134.899118,2.7945528 142.289352,2.7945528 C149.679585,2.7945528 155.693394,8.79066381 155.693394,16.1591463 C155.693394,23.5276288 149.679585,29.5237398 142.289352,29.5237398 Z M142.289352,8.12371615 C137.84492,8.12371615 134.230203,11.7277961 134.230203,16.1591463 C134.230203,20.5904965 137.84492,24.1945752 142.289352,24.1945752 C146.733783,24.1945752 150.3485,20.5904965 150.3485,16.1591463 C150.3485,11.7277961 146.733783,8.12371615 142.289352,8.12371615 L142.289352,8.12371615 Z" id="Vector" fill="#784600" fill-rule="nonzero"></path>
                            <path d="M41.7847281,86.2687683 C41.1447558,86.2687683 40.6237755,85.749314 40.6237755,85.1112251 L40.6237755,28.8920659 C40.6237755,28.253977 41.1447558,27.7345276 41.7847281,27.7345276 C42.4247005,27.7345276 42.9456832,28.253977 42.9456832,28.8920659 L42.9456832,85.1112251 C42.9456832,85.749314 42.4247005,86.2687683 41.7847281,86.2687683 Z" id="Vector" fill="#784600" fill-rule="nonzero"></path>
                            <path d="M242.797196,60.6265728 C242.157224,60.6265728 241.636246,60.1071234 241.636246,59.4690345 L241.636246,3.2530785 C241.636246,2.61498959 242.157224,2.09554029 242.797196,2.09554029 C243.437168,2.09554029 243.958166,2.61498959 243.958166,3.2530785 L243.958166,59.4690345 C243.958166,60.1071234 243.437168,60.6265728 242.797196,60.6265728 L242.797196,60.6265728 Z" id="Vector" fill="#784600" fill-rule="nonzero"></path>
                            <path d="M83.5694733,115.200787 C83.5694733,138.209934 64.8618107,156.862541 41.7847366,156.862541 C18.7076626,156.862541 0,138.209934 0,115.200787 C0,92.1916389 18.7076626,73.5390396 41.7847366,73.5390396 C64.8618107,73.5390396 83.5694733,92.1916389 83.5694733,115.200787 Z" id="Vector" fill="#FFC51C" fill-rule="nonzero"></path>
                            <path d="M41.784729,136.046113 C33.6805554,136.046113 25.5763842,132.971106 19.4082077,126.821085 C18.7682353,126.182996 18.7682353,125.150507 19.4082077,124.512418 C20.0481801,123.874329 21.0837149,123.874329 21.7236874,124.512418 C32.7865277,135.542696 50.7829353,135.542696 61.8457756,124.512418 C62.485748,123.874329 63.5212802,123.874329 64.1612527,124.512418 C64.8012251,125.150507 64.8012251,126.182996 64.1612527,126.821085 C57.9930762,132.971106 49.8889026,136.046113 41.784729,136.046113 Z" id="Vector" fill="#000000" fill-rule="nonzero"></path>
                            <g transform="translate(18.244, 101.7304)" fill="#000000" fill-rule="nonzero" id="Vector">
                                <path d="M16.9222845,6.02497005 C16.5588831,6.02497005 16.1986975,5.88709127 15.9221265,5.61133426 C14.1179832,3.81250078 11.7188907,2.8216956 9.16864906,2.8216956 C6.6184074,2.8216956 4.22253048,3.81250078 2.41517132,5.61133426 C1.86202935,6.16284827 0.967998429,6.16284827 0.414856459,5.61133426 C-0.138285512,5.05982026 -0.138285512,4.16841936 0.414856459,3.61690535 C2.75606204,1.28259023 5.86266115,0 9.16864906,0 C12.474637,0 15.581237,1.28579678 17.9224426,3.61690535 C18.4755846,4.16841936 18.4755846,5.06302673 17.9224426,5.61133426 C17.6458716,5.88709127 17.28247,6.02497005 16.9222845,6.02497005 Z"></path>
                                <path d="M45.6631635,6.02497349 C45.2997621,6.02497349 44.9395765,5.88709471 44.6630055,5.6113377 C42.8588621,3.81250422 40.4597695,2.82169904 37.9095278,2.82169904 C35.359286,2.82169904 32.963409,3.81250422 31.1560498,5.6113377 C30.6029078,6.16285171 29.7088756,6.16285171 29.1557336,5.6113377 C28.6025916,5.0598237 28.6025916,4.1684228 29.1557336,3.61690879 C31.4969393,1.28259367 34.6035397,3.43948454e-06 37.9095278,3.43948454e-06 C41.2155158,3.43948454e-06 44.322116,1.28580022 46.6633216,3.61690879 C47.2164636,4.1684228 47.2164636,5.06303017 46.6633216,5.6113377 C46.3867506,5.88709471 46.023349,6.02497349 45.6631635,6.02497349 L45.6631635,6.02497349 Z"></path>
                            </g>
                            <g transform="translate(200.4048, 47.9001)" fill-rule="nonzero" id="Vector">
                                <path d="M43.8589932,71.4563321 C49.0913306,64.7355575 63.8107029,72.1457201 57.9158817,57.043216 C52.0210604,41.9407118 72.4422845,40.4112267 78.7326664,43.3002621 C80.5946966,44.1563914 82.4213633,45.4870757 84.15154,47.1544434 C84.3509284,45.4999016 84.4538393,43.8132948 84.4538393,42.1042428 C84.4538393,39.5903652 84.2319362,37.1309973 83.8074319,34.7389658 C71.1269734,30.8078254 68.7214547,20.5855787 62.1255581,24.7091074 C55.3817284,28.925624 46.1680574,20.2873747 46.9527472,14.1309395 C47.5476964,9.45910322 50.406667,3.35718145 49.0013005,0.541895105 C46.7951645,0.185976202 44.5311392,-2.17579071e-07 42.2253089,-2.17579071e-07 C36.7453439,-2.17579071e-07 31.5097877,1.04210268 26.7051709,2.93392389 C29.4708809,11.4567386 31.7252604,15.8720594 24.8206337,21.0633451 C16.3241156,27.4506465 9.58028102,23.176412 9.58028102,32.8760037 C9.58028102,42.5755953 15.986437,46.6125463 9.58028102,52.6631678 C7.76648991,54.3786328 5.16480019,55.4175347 2.33155537,55.9433969 C3.66295521,59.7526911 5.52176179,63.3150825 7.83080792,66.540798 C17.0927199,59.3999746 27.9143626,69.9781474 30.8633812,75.2848659 C32.143326,77.5903226 31.8924802,80.171528 31.0016643,82.701438 C34.5745755,83.6794133 38.3372322,84.2052763 42.2220898,84.2052763 C43.0903941,84.2052763 43.9490403,84.176418 44.8044808,84.1251144 C42.3217739,78.9979584 41.5724719,74.3870484 43.8525746,71.4531225 L43.8589932,71.4563321 Z M35.0955519,65.3479884 C30.1976728,66.3997127 29.1364291,52.8395226 26.1488192,46.7696623 C23.1612093,40.6998021 19.0415801,36.2556296 22.5630363,32.5200846 C26.0844925,28.7845395 29.6574067,32.5200855 35.671218,27.7712935 C42.0998855,22.6922346 47.7921025,27.9476495 48.8565792,32.7862227 C49.9210559,37.6247959 45.8561001,42.8738011 44.9717161,45.4550148 C44.3842707,47.1736862 44.2845789,49.9889715 44.6726359,53.9008729 C45.2547213,59.7655188 39.993431,64.3026833 35.0955519,65.3544076 L35.0955519,65.3479884 Z" fill="#78E6FF"></path>
                                <path d="M46.9591637,14.1309411 C46.1744738,20.2873772 55.3881455,28.9224213 62.1319759,24.7091104 C68.7278734,20.5855812 71.1301979,30.8078291 83.8138733,34.73897 C80.7072732,17.1867145 66.6953991,3.38924667 49.0077172,0.541895092 C50.4162999,3.35718178 47.554113,9.45910431 46.9591637,14.1309411 L46.9591637,14.1309411 Z" fill="#009664"></path>
                                <path d="M44.6758542,53.8944526 C44.2877972,49.9846891 44.387489,47.1694042 44.9749344,45.4485953 C45.8561024,42.8705884 49.924274,37.618382 48.8597973,32.7798093 C47.7953207,27.9412366 42.103104,22.685822 35.6744368,27.7648805 C29.6638418,32.513672 26.0877113,28.7781265 22.5662553,32.5136712 C19.0447994,36.2492159 23.1644089,40.6933928 26.1520186,46.7632525 C29.1396283,52.8331121 30.2008918,66.3933009 35.0987707,65.3415767 C39.9966496,64.2898525 45.2579396,59.7526885 44.6758542,53.8880431 L44.6758542,53.8944526 Z" fill="#009664"></path>
                                <path d="M30.8698213,75.2848626 C27.9208026,69.9781438 17.0991594,59.3999709 7.83724689,66.5407948 C13.3976108,74.3068813 21.5371553,80.1073953 31.0081045,82.7014351 C31.8989204,80.171525 32.1497662,77.5871128 30.8698213,75.2848626 Z" fill="#009664"></path>
                                <path d="M9.58672145,32.8792099 C9.58672145,23.1764113 16.3305377,27.4538525 24.8270576,21.0665508 C31.7316857,15.8752649 29.4773253,11.4599439 26.7116147,2.93712878 C11.0660545,9.10318335 -2.05940978e-06,24.3179217 -2.05940978e-06,42.1074544 C-2.05940978e-06,46.9556471 0.826481851,51.6146522 2.33797472,55.9498088 C5.1712201,55.4239467 7.77292998,54.3850544 9.58672145,52.6695894 C15.9928787,46.6189676 9.58672145,42.5852132 9.58672145,32.8824146 L9.58672145,32.8792099 Z" fill="#009664"></path>
                                <path d="M57.919108,57.043217 C63.8107138,72.1425146 49.0913395,64.7355582 43.8622176,71.4563325 C41.5788987,74.3870521 42.3314363,79.0011706 44.8141435,84.1283264 C65.2450232,82.900246 81.755677,67.1885095 84.1579857,47.1544448 C82.4245929,45.4902835 80.5979285,44.1563929 78.7391139,43.3002637 C72.4487314,40.4112283 52.0307213,41.9439193 57.9223271,57.043217 L57.919108,57.043217 Z" fill="#009664"></path>
                            </g>
                        </g>
                    </g>
                </g>
                <g id="Nutriscore-A" transform="translate(3.6192, 175.5237)" fill-rule="nonzero">
                    <g id="layer1_00000057831184686148853330000000514374286055995301_">
                        <path d="M7.03000024,0 L68.9383324,0 C72.8649989,0 76,3.13499996 76,7.02999973 L76,31.7616653 C76,35.6566651 72.865001,38.7919006 68.970001,38.7919006 L7.03000024,38.7919006 C3.13500018,38.8233305 0,35.6883313 0,31.7933315 L0,7.02999973 C0,3.13499996 3.13500018,0 7.03000024,0 Z" id="rect5285" fill="#FFFFFF"></path>
                        <polygon id="rect5287" fill="#038141" points="11.3683329 13.996747 25.5549984 13.996747 25.5549984 36.9234056 11.3683329 36.9234056"></polygon>
                        <polygon id="rect5289" fill="#E63E11" points="52.7248993 13.996747 66.9115686 13.996747 66.9115686 36.9234056 52.7248993 36.9234056"></polygon>
                        <path d="M8.48654982,13.996747 L12.033217,13.996747 C14.9782173,13.996747 17.3532171,16.3717461 17.3532171,19.3167454 L17.3532171,31.6034097 C17.3532171,34.548409 14.9782173,36.9234056 12.033217,36.9234056 L8.48654982,36.9234056 C5.54154955,36.9234056 3.16654968,34.548409 3.16654968,31.6034097 L3.16654968,19.3167454 C3.16654968,16.3717461 5.54154955,13.996747 8.48654982,13.996747 Z" id="rect5291" fill="#038141"></path>
                        <polygon id="rect5293" fill="#EE8100" points="45.789875 13.996747 59.9765406 13.996747 59.9765406 36.9234056 45.789875 36.9234056"></polygon>
                        <path d="M48.6715431,30.6534071 L48.6715431,20.2667408 L52.5665432,20.2667408 C53.421543,20.2667408 54.1815447,20.3934084 54.8148779,20.6784084 C55.4482111,20.9634083 55.9865414,21.3117416 56.4298747,21.7867416 C56.8732079,22.2617415 57.1898764,22.8000738 57.411543,23.4334071 C57.6332096,24.0667403 57.7598734,24.7317412 57.7598734,25.4284078 C57.7598734,26.2200743 57.6332077,26.9484061 57.3798744,27.5817394 C57.1265412,28.2150726 56.7782069,28.7534073 56.3348737,29.2284073 C55.8915405,29.6717405 55.3532082,30.0200724 54.6882084,30.2734057 C54.0548752,30.526739 53.3582097,30.6534071 52.5665432,30.6534071 L48.6715431,30.6534071 Z M55.2898778,25.4600739 C55.2898778,25.0167407 55.2265426,24.5734069 55.0998759,24.2250736 C54.9732093,23.8450737 54.814877,23.5284075 54.5615437,23.2434076 C54.3398771,22.9584076 54.0548781,22.7684076 53.7065449,22.6100743 C53.3582116,22.451741 52.9782078,22.3884062 52.5348746,22.3884062 L51.0465426,22.3884062 L51.0465426,28.5634054 L52.5348746,28.5634054 C52.9782078,28.5634054 53.3582116,28.5000731 53.7065449,28.3417398 C54.0548781,28.1834064 54.3398771,27.9617398 54.5615437,27.7084065 C54.7832103,27.4234066 54.9732093,27.1067404 55.0998759,26.7267405 C55.2265426,26.3150739 55.2898778,25.9034072 55.2898778,25.4600739 Z" id="path5480" fill-opacity="0.446099997" fill="#FFFFFF"></path>
                        <polygon id="rect5299" fill="#FECB02" points="31.5398998 13.996747 45.8215666 13.996747 45.8215666 36.9234056 31.5398998 36.9234056"></polygon>
                        <polygon id="rect5301" fill="#85BB2F" points="31.5399036 13.996747 17.3215733 13.996747 17.3215733 36.9234056 31.5082375 36.9234056"></polygon>
                        <path d="M33.9466896,25.3651067 C33.9466896,24.7317735 34.0733582,24.1301065 34.2950248,23.4967733 C34.5166914,22.8634402 34.8650237,22.3251084 35.3083569,21.8184419 C35.7516902,21.343442 36.2900224,20.931774 36.9550223,20.6467741 C37.5883555,20.3301075 38.3166891,20.2034416 39.1400223,20.2034416 C40.1216887,20.2034416 40.9450243,20.4251094 41.6733575,20.836776 C42.4016906,21.2484425 42.9400209,21.8184415 43.2883542,22.4834412 L41.451687,23.7817737 C41.3250203,23.4967738 41.1983556,23.2751077 41.0083557,23.1167744 C40.8183557,22.9267745 40.6283548,22.8001073 40.4383548,22.6734407 C40.2166882,22.5467741 39.9950221,22.4834417 39.7733555,22.4517751 C39.5516888,22.3884418 39.3300227,22.3884403 39.1083561,22.3884403 C38.6650229,22.3884403 38.2533553,22.4834408 37.9050221,22.6734407 C37.5566888,22.8634407 37.2716898,23.0851082 37.0500232,23.4017748 C36.8283566,23.6867747 36.6700238,24.0351075 36.5433571,24.3834407 C36.4483572,24.7634406 36.3850238,25.14344 36.3850238,25.5234399 C36.3850238,25.9351065 36.4483567,26.3151078 36.5750233,26.6951077 C36.70169,27.0751077 36.891689,27.4234399 37.1133556,27.7084398 C37.3666888,27.9934398 37.6516902,28.2467721 37.9683568,28.4051053 C38.3166901,28.5634386 38.6966895,28.6584396 39.1083561,28.6584396 C39.3300227,28.6584396 39.5516888,28.6267739 39.7733555,28.5951072 C39.9950221,28.5317739 40.2166882,28.4684396 40.4383548,28.341773 C40.6600214,28.2151064 40.8500224,28.0884393 41.0083557,27.8984393 C41.1983556,27.7084393 41.3250232,27.4867732 41.4200232,27.23344 L43.3833551,28.4051053 C43.2250218,28.7851053 43.0033562,29.1334399 42.6866896,29.4184399 C42.370023,29.7351064 42.0216888,29.9884402 41.6416889,30.1784401 C41.2300223,30.3684401 40.8183557,30.5267734 40.3750225,30.65344 C39.9316892,30.74844 39.488357,30.8117733 39.0450237,30.8117733 C38.2850239,30.8117733 37.5883555,30.6534395 36.9550223,30.3684396 C36.3216891,30.051773 35.7833563,29.640106 35.3400231,29.1334395 C34.8966899,28.6267729 34.5483581,28.056773 34.2950248,27.3917733 C34.0416915,26.6951068 33.9466896,26.0301064 33.9466896,25.3651067 Z" id="path5475" fill-opacity="0.446099997" fill="#FFFFFF"></path>
                        <path d="M28.7215004,27.993407 C28.7215004,28.4367402 28.6265023,28.8484059 28.4365023,29.1650725 C28.2465023,29.4817391 27.9931685,29.7667408 27.6765018,29.9884052 C27.3598351,30.2100719 26.9798356,30.3684071 26.5365022,30.4950738 C26.0931689,30.5900738 25.6498346,30.6534071 25.1748345,30.6534071 L20.1081676,30.6534071 L20.1081676,20.2667408 L25.9031689,20.2667408 C26.2515022,20.2667408 26.5998351,20.3300732 26.8848351,20.4884065 C27.1698351,20.6467398 27.4231689,20.8367402 27.6448356,21.0900735 C27.8348356,21.3434068 27.993169,21.6284083 28.1198356,21.9450749 C28.2465023,22.2617415 28.3098352,22.5784076 28.3098352,22.9267409 C28.3098352,23.4334075 28.183167,23.908408 27.9298337,24.3200746 C27.6765003,24.7634078 27.328167,25.080074 26.8215003,25.3017406 C27.423167,25.4917406 27.8981675,25.7767406 28.2148342,26.2517405 C28.5631675,26.7267405 28.7215004,27.2967404 28.7215004,27.993407 Z M26.2831679,27.518407 C26.2831679,27.2017404 26.1881674,26.9167409 25.9981674,26.6950743 C25.8081674,26.4734076 25.5865017,26.3467391 25.3015017,26.3467391 L22.5465001,26.3467391 L22.5465001,28.6267402 L25.2065007,28.6267402 C25.5231674,28.6267402 25.7765008,28.5317402 25.9981674,28.3100736 C26.1881674,28.1200736 26.2831679,27.8350736 26.2831679,27.518407 Z M22.5465001,22.3250739 L22.5465001,24.4784079 L24.889834,24.4784079 C25.1431674,24.4784079 25.3965022,24.3834069 25.5865022,24.2250736 C25.7765022,24.0350736 25.9031689,23.7817408 25.9031689,23.4017409 C25.9031689,23.0534076 25.8081684,22.8000743 25.6181684,22.6100743 C25.4281684,22.4200743 25.2381684,22.3250739 24.984835,22.3250739 L22.5465001,22.3250739 Z" id="path5472" fill-opacity="0.446099997" fill="#FFFFFF"></path>
                        <path d="M9.18319053,20.2667408 L11.3365238,20.2667408 L15.1365242,30.6534071 L12.6665242,30.6534071 L11.8748575,28.3100736 L8.6448569,28.3100736 L7.85319015,30.6534071 L5.38319016,30.6534071 L9.18319053,20.2667408 Z M11.463191,26.6950743 L10.2598578,23.0217395 L9.02485718,26.6950743 C9.02485718,26.6950743 9.83763512,26.6950743 11.463191,26.6950743 Z" id="path5469" fill-opacity="0.446099997" fill="#FFFFFF"></path>
                        <path d="M65.2964886,13.996747 L68.8431552,13.996747 C71.788156,13.996747 74.1631575,16.3717461 74.1631575,19.3167454 L74.1631575,31.6034097 C74.1631575,34.548409 71.788156,36.9234056 68.8431552,36.9234056 L65.2964886,36.9234056 C62.3514878,36.9234056 59.9764864,34.548409 59.9764864,31.6034097 L59.9764864,19.3167454 C59.9448197,16.3717461 62.3198213,13.996747 65.2964886,13.996747 Z" id="rect5315" fill="#E63E11"></path>
                        <polygon id="path5464" fill-opacity="0.446099997" fill="#FFFFFF" points="70.7116508 28.5634059 70.7116508 30.6850739 63.3966484 30.6850739 63.3966484 20.2667408 70.5849813 20.2667408 70.5849813 22.3884063 65.8033172 22.3884063 65.8033172 24.3834072 69.8883155 24.3834072 69.8883155 26.3467394 65.8033172 26.3467394 65.8033172 28.5634059"></polygon>
                        <polygon id="path5437" fill="#7D7D7D" points="6.11152026 6.39687909 6.11152026 9.40521288 4.90818691 9.40521288 4.90818691 4.11687851 5.85818712 4.11687851 8.29652121 7.18854588 8.29652121 4.11687851 9.49985456 4.11687851 9.49985456 9.37354609 8.51818757 9.37354609"></polygon>
                        <path d="M12.761517,8.36021236 C12.9831836,8.36021236 13.1415171,8.32854581 13.2998504,8.23354579 C13.4581837,8.13854578 13.5531832,8.04354565 13.6481832,7.88521229 C13.7431832,7.72687893 13.8065172,7.56854557 13.8381839,7.41021222 C13.8698506,7.22021218 13.9015175,7.03021241 13.9015175,6.84021237 L13.9015175,4.11687851 L15.1048503,4.11687851 L15.1048503,6.80854558 C15.1048503,7.18854565 15.0731832,7.50521259 14.9781832,7.82187931 C14.8831832,8.13854602 14.7565168,8.42354559 14.5665168,8.64521228 C14.3765169,8.86687898 14.1231838,9.05687937 13.8381839,9.21521273 C13.553184,9.34187942 13.2048509,9.40521288 12.7931844,9.40521288 C12.3815178,9.40521288 12.0015174,9.34187929 11.7165174,9.18354594 C11.4315175,9.02521258 11.1781845,8.83521279 10.9881845,8.61354609 C10.7981845,8.36021272 10.6715181,8.10687923 10.5765182,7.79021252 C10.4815182,7.4735458 10.449851,7.15687897 10.449851,6.80854558 L10.449851,4.11687851 L11.6531839,4.11687851 L11.6531839,6.80854558 C11.6531839,6.99854562 11.6848508,7.18854539 11.7165174,7.37854542 C11.7481841,7.56854546 11.8115169,7.72687881 11.9065169,7.8535455 C12.0015169,8.01187885 12.0965176,8.10687898 12.2548509,8.201879 C12.3815175,8.29687902 12.571517,8.36021236 12.761517,8.36021236 Z" id="path5439" fill="#7D7D7D"></path>
                        <path d="M20.0449026,5.19354483 L18.4615695,5.19354483 L18.4615695,9.37354422 L17.2582365,9.37354422 L17.2582365,5.19354483 L15.6432371,5.19354483 L15.6432371,4.11687851 L20.07657,4.11687851 C20.0554589,4.11687851 20.0449031,4.47576728 20.0449026,5.19354483 Z" id="path5441" fill="#7D7D7D"></path>
                        <path d="M20.6465969,9.37354422 L20.6465969,4.11687851 L23.0215968,4.11687851 C23.2749302,4.11687851 23.4965983,4.18021183 23.7182649,4.27521181 C23.9399316,4.37021179 24.098264,4.52854515 24.2565973,4.68687845 C24.4149306,4.84521175 24.5415968,5.03521178 24.6049301,5.2568784 C24.6999301,5.47854501 24.7315973,5.66854498 24.7315973,5.8902116 C24.7315973,6.0485449 24.6999316,6.2068782 24.6682649,6.3652115 C24.6365982,6.5235448 24.5732649,6.6502112 24.5099316,6.77687784 C24.4465982,6.90354448 24.3515978,7.03021124 24.2249311,7.12521122 C24.1299311,7.22021121 24.0032649,7.31521094 23.8765983,7.37854426 L25.0165977,9.34187744 L23.6549302,9.34187744 L22.6415978,7.63187791 L21.8499312,7.63187791 L21.8499312,9.34187744 C21.8499312,9.36298862 21.4488198,9.37354422 20.6465969,9.37354422 Z M21.8499312,6.61854454 L22.9582645,6.61854454 C23.1165978,6.61854454 23.2115968,6.5552111 23.3382635,6.42854446 C23.4332635,6.30187782 23.4965968,6.11187822 23.4965968,5.8902116 C23.4965968,5.66854498 23.433264,5.51021156 23.3065973,5.38354492 C23.1799306,5.25687827 23.053265,5.19354483 22.9265983,5.19354483 L21.8499312,5.19354483 L21.8499312,6.61854454 Z" id="path5443" fill="#7D7D7D"></path>
                        <polygon id="path5445" fill="#7D7D7D" points="25.5865326 9.37354422 25.5865326 4.11687851 26.7898645 4.11687851 26.7898645 9.37354422"></polygon>
                        <polygon id="path5447" fill="#7D7D7D" points="27.7082214 7.88506293 27.7082214 6.80839634 29.9882202 6.80839634 29.9882202 7.88506293"></polygon>
                        <path d="M34.0414992,5.66827661 C34.0414992,5.63660995 33.9781659,5.60494341 33.8831659,5.5416101 C33.7881659,5.47827678 33.6931664,5.41494347 33.5348331,5.38327681 C33.4081664,5.31994349 33.2498326,5.25661018 33.0914993,5.22494352 C32.933166,5.19327686 32.7748327,5.16160996 32.6164993,5.16160996 C32.1731661,5.16160996 31.9514999,5.31994374 31.9514999,5.60494365 C31.9514999,5.69994363 31.9831656,5.76327658 32.0148323,5.8266099 C32.0781656,5.88994321 32.1415004,5.95327653 32.2365004,5.98494318 C32.3315003,6.01660984 32.4581665,6.07994304 32.5848332,6.11160969 C32.7114998,6.14327635 32.8698331,6.20661015 33.0598331,6.23827681 C33.3131664,6.30161012 33.5348321,6.39660973 33.7564987,6.45994305 C33.9464987,6.52327636 34.1364982,6.64994299 34.2631649,6.77660963 C34.4214982,6.90327626 34.5164982,7.02994276 34.5798315,7.21994271 C34.6431648,7.378276 34.7064986,7.5999426 34.7064986,7.85327586 C34.7064986,8.13827578 34.6431653,8.39160953 34.5481653,8.61327613 C34.4531653,8.80327608 34.2948315,8.99327554 34.1048315,9.11994217 C33.9148316,9.2466088 33.7248316,9.34160926 33.4714983,9.40494257 C33.2498316,9.46827589 32.9964998,9.4999423 32.7431665,9.4999423 C32.5531665,9.4999423 32.363166,9.4999423 32.1414994,9.46827552 C31.9514994,9.43660887 31.7298323,9.40494233 31.5398323,9.34160901 C31.3498323,9.2782757 31.1598338,9.21494215 30.9698338,9.11994217 C30.7798338,9.05660885 30.6214986,8.961609 30.4631653,8.83494237 L31.0015,7.78994291 C31.0331667,7.82160957 31.0964995,7.8532761 31.1914995,7.91660942 C31.2864995,7.97994274 31.4448338,8.04327629 31.6031671,8.13827627 C31.7615004,8.20160958 31.9514994,8.26494241 32.1414994,8.32827573 C32.3314994,8.39160904 32.5531665,8.42327606 32.7431665,8.42327606 C33.1864998,8.42327606 33.3764997,8.2966092 33.3764997,8.04327593 C33.3764997,7.94827595 33.3448321,7.85327623 33.2814988,7.78994291 C33.2181655,7.72660959 33.1231669,7.66327628 33.0281669,7.63160962 C32.9015003,7.56827631 32.7748327,7.53660965 32.6164993,7.47327633 C32.458166,7.44160968 32.2998332,7.37827636 32.1098332,7.31494305 C31.8564999,7.25160973 31.6664999,7.15660952 31.4765,7.0932762 C31.2865,6.99827622 31.1598328,6.90327626 31.0331662,6.77660963 C30.9064995,6.64994299 30.8431652,6.52327673 30.7798319,6.3966101 C30.7164986,6.23827681 30.6848334,6.07994341 30.6848334,5.88994345 C30.6848334,5.60494354 30.7481667,5.38327656 30.8431667,5.16160996 C30.9381667,4.93994337 31.0964985,4.78161044 31.2548319,4.62327715 C31.4448318,4.46494386 31.6348323,4.36994377 31.8564989,4.27494379 C32.0781656,4.21161048 32.3314994,4.14827728 32.6164993,4.14827728 C32.8064993,4.14827728 32.9648317,4.17994388 33.1548316,4.21161054 C33.3448316,4.2432772 33.5031669,4.27494373 33.6615002,4.33827705 C33.8198335,4.40161036 33.9781649,4.4649438 34.1048315,4.52827711 C34.2631649,4.59161043 34.389833,4.65494368 34.4848329,4.74994366 C34.5481663,4.68661034 34.4003884,4.99272132 34.0414992,5.66827661 Z" id="path5449" fill="#7D7D7D"></path>
                        <path d="M35.1498985,6.71331031 C35.1498985,6.3966437 35.2132314,6.0799771 35.339898,5.7633105 C35.4665647,5.4466439 35.6248975,5.16164372 35.8465642,4.90831043 C36.0682308,4.65497715 36.3532327,4.46497731 36.6698994,4.30664401 C36.986566,4.14831071 37.366566,4.08497715 37.7782326,4.08497715 C38.2848993,4.08497715 38.6965659,4.17997713 39.0448992,4.40164375 C39.4248992,4.62331037 39.678232,4.87664377 39.868232,5.22497704 L38.9498982,5.88997702 C38.8865649,5.76331038 38.8232325,5.63664362 38.7282325,5.54164364 C38.6332325,5.44664365 38.5382321,5.3833101 38.4432321,5.31997678 C38.3482321,5.25664345 38.2215659,5.22497692 38.0948993,5.19331026 C37.9682326,5.16164359 37.8732307,5.16164347 37.746564,5.16164347 C37.5248974,5.16164347 37.3032327,5.19331061 37.1448993,5.2883106 C36.986566,5.38331058 36.8282322,5.50997673 36.7015656,5.63664338 C36.5748989,5.79497668 36.5115646,5.95331009 36.4482313,6.14331006 C36.3848979,6.33331003 36.3532327,6.52331034 36.3532327,6.71331031 C36.3532327,6.93497692 36.3848979,7.12497676 36.4482313,7.31497673 C36.5115646,7.5049767 36.6065651,7.66331011 36.7332317,7.82164341 C36.8598984,7.97997671 36.9865655,8.07497621 37.1765655,8.16997619 C37.3348988,8.26497617 37.556564,8.29664331 37.746564,8.29664331 C37.841564,8.29664331 37.9682326,8.29664319 38.0948993,8.26497653 C38.2215659,8.23330987 38.3165654,8.20164333 38.4432321,8.13831001 C38.5382321,8.07497669 38.6648992,8.01164313 38.7282325,7.91664315 C38.8232325,7.82164317 38.8865649,7.69497641 38.9498982,7.56830977 L39.9315643,8.13831001 C39.868231,8.32830998 39.7415648,8.51830945 39.5832315,8.64497609 C39.4248982,8.80330939 39.2665658,8.92997627 39.0448992,9.02497626 C38.8548992,9.11997624 38.6332325,9.21497646 38.4115659,9.24664312 C38.1898993,9.30997644 37.9682307,9.34164286 37.746564,9.34164286 C37.366564,9.34164286 37.0182322,9.27830929 36.7015656,9.11997599 C36.3848989,8.96164269 36.0998994,8.73997608 35.8782328,8.48664279 C35.6565661,8.23330951 35.4665647,7.94830982 35.339898,7.59997655 C35.2132314,7.37830993 35.1498985,7.06164357 35.1498985,6.71331031 Z" id="path5451" fill="#7D7D7D"></path>
                        <path d="M42.7814676,9.43687773 C42.4014676,9.43687773 42.0214648,9.37354476 41.7047981,9.21521145 C41.3881314,9.05687813 41.1031343,8.86687827 40.8814677,8.61354496 C40.659801,8.36021165 40.4697996,8.07521144 40.3431329,7.75854481 C40.2164662,7.44187817 40.1531334,7.09354475 40.1531334,6.77687812 C40.1531334,6.42854481 40.2164662,6.11187856 40.3431329,5.76354525 C40.4697996,5.44687862 40.659801,5.16187841 40.8814677,4.9085451 C41.1031343,4.65521178 41.3881314,4.46521175 41.7047981,4.33854509 C42.0214648,4.18021178 42.369799,4.11687851 42.749799,4.11687851 C43.1297991,4.11687851 43.5097971,4.18021178 43.8264638,4.33854509 C44.1431304,4.49687841 44.4281324,4.68687857 44.649799,4.94021188 C44.8714657,5.19354519 45.0614647,5.4785448 45.1881314,5.79521143 C45.314798,6.11187807 45.3781333,6.42854481 45.3781333,6.77687812 C45.3781333,7.12521142 45.314798,7.44187829 45.1881314,7.79021159 C45.0614647,8.10687823 44.8714657,8.39187783 44.649799,8.64521114 C44.4281324,8.89854445 44.1431304,9.08854479 43.8264638,9.21521145 C43.5097971,9.37354476 43.1614677,9.43687773 42.7814676,9.43687773 Z M41.4198,6.77687812 C41.4198,6.96687811 41.4514677,7.18854462 41.514801,7.3785446 C41.5781343,7.56854459 41.6731305,7.72687802 41.7681305,7.88521134 C41.8947971,8.04354466 42.0214667,8.13854476 42.2114667,8.23354476 C42.3698,8.32854475 42.5914648,8.36021129 42.8131314,8.36021129 C43.0347981,8.36021129 43.2564676,8.32854475 43.414801,8.23354476 C43.5731343,8.13854476 43.7314657,8.01187799 43.8581324,7.88521134 C43.984799,7.72687802 44.0481333,7.56854459 44.1114667,7.3785446 C44.1748,7.18854462 44.2064676,6.99854489 44.2064676,6.8085449 C44.2064676,6.61854491 44.1748,6.39687852 44.1114667,6.2385452 C44.0481333,6.04854521 43.9531324,5.89021178 43.8581324,5.73187847 C43.7314657,5.57354515 43.604801,5.47854504 43.414801,5.38354505 C43.2564676,5.28854505 43.0664667,5.25687851 42.8448,5.25687851 C42.6231334,5.25687851 42.4014638,5.28854505 42.2431305,5.38354505 C42.0847971,5.47854504 41.9264657,5.60521181 41.7997991,5.73187847 C41.6731324,5.89021178 41.6097981,6.04854521 41.5464648,6.2385452 C41.4514648,6.36521186 41.4198,6.55521148 41.4198,6.77687812 Z" id="path5453" fill="#7D7D7D"></path>
                        <path d="M46.1066246,9.37354422 L46.1066246,4.11687851 L48.4816241,4.11687851 C48.7349573,4.11687851 48.956623,4.18021183 49.1782896,4.27521181 C49.3999562,4.37021179 49.5582885,4.52854515 49.7166218,4.68687845 C49.8749551,4.84521175 50.0016237,5.03521178 50.064957,5.2568784 C50.159957,5.47854501 50.1916217,5.66854498 50.1916217,5.8902116 C50.1916217,6.0485449 50.159956,6.2068782 50.1282894,6.3652115 C50.0966227,6.5235448 50.0332894,6.6502112 49.9699561,6.77687784 C49.9066228,6.90354448 49.8116199,7.03021124 49.6849532,7.12521122 C49.5899533,7.22021121 49.4632895,7.31521094 49.3366229,7.37854426 L50.4766197,9.34187744 L49.1149572,9.34187744 L48.1016203,7.63187791 L47.3099538,7.63187791 L47.3099538,9.34187744 C47.3099538,9.36298862 46.9088441,9.37354422 46.1066246,9.37354422 Z M47.3099538,6.61854454 L48.4182869,6.61854454 C48.5766202,6.61854454 48.671624,6.5552111 48.7982906,6.42854446 C48.8932906,6.30187782 48.9566239,6.11187822 48.9566239,5.8902116 C48.9566239,5.66854498 48.8932887,5.51021156 48.7666221,5.38354492 C48.6399554,5.25687827 48.5132897,5.19354483 48.3866231,5.19354483 L47.3099538,5.19354483 L47.3099538,6.61854454 Z" id="path5455" fill="#7D7D7D"></path>
                        <path d="M54.751435,8.32854557 L54.751435,9.40521288 L51.0464363,9.40521288 L51.0464363,4.11687851 L54.6881027,4.11687851 L54.6881027,5.19354522 L52.2814391,5.19354522 L52.2814391,6.20687894 L54.3397723,6.20687894 L54.3397723,7.18854588 L52.2814391,7.18854588 L52.2814391,8.29687938 C52.2814391,8.31799049 53.1047711,8.32854589 54.751435,8.32854557 Z" id="path5457" fill="#7D7D7D"></path>
                    </g>
                    <g id="Group" transform="translate(0, 9.8167)">
                        <g>
                            <path d="M8.86644446,1.20372725 L10.4181117,1.20372725 C14.6614452,1.20372725 18.0814445,4.62372782 18.0814445,8.86706129 L18.0814445,22.3253943 C18.0814445,26.5687277 14.6614452,29.9887271 10.4181117,29.9887271 L8.86644446,29.9887271 C4.62311101,29.9887271 1.20311046,26.5687277 1.20311046,22.3253943 L1.20311046,8.86706129 C1.20311046,4.62372782 4.62311101,1.20372725 8.86644446,1.20372725 Z" id="rect5229_00000085970283402629478910000017706092144546296960_" fill-opacity="0.629700005" fill="#0039FF"></path>
                            <path d="M10.4183335,31.1916637 L8.86666637,31.1916637 C3.98999999,31.1916637 0,27.201664 0,22.3249979 L0,8.86666584 C0,3.98999975 3.98999999,0 8.86666637,0 L10.4183335,0 C15.2949999,0 19.2849998,3.98999975 19.2849998,8.86666584 L19.2849998,22.3249979 C19.2849998,27.2333308 15.2949999,31.1916637 10.4183335,31.1916637 Z M8.86666637,2.40666596 C5.2883331,2.40666596 2.37499992,5.28833278 2.37499992,8.86666584 L2.37499992,22.3249979 C2.37499992,25.903331 5.2883331,28.816664 8.86666637,28.816664 L10.4183335,28.816664 C13.9966667,28.816664 16.9099999,25.903331 16.9099999,22.3249979 L16.9099999,8.86666584 C16.9099999,5.28833278 13.9966667,2.37499978 10.4183335,2.37499978 L8.86666637,2.40666596 Z" id="Vector" fill="#FFFFFF"></path>
                        </g>
                        <path d="M8.86644446,1.20372725 L10.4181117,1.20372725 C14.6614452,1.20372725 18.0814445,4.62372782 18.0814445,8.86706129 L18.0814445,22.3253943 C18.0814445,26.5687277 14.6614452,29.9887271 10.4181117,29.9887271 L8.86644446,29.9887271 C4.62311101,29.9887271 1.20311046,26.5687277 1.20311046,22.3253943 L1.20311046,8.86706129 C1.20311046,4.62372782 4.62311101,1.20372725 8.86644446,1.20372725 Z" id="rect5231" fill="#038141"></path>
                        <path d="M8.32829466,8.73997784 L10.9566276,8.73997784 L15.5482936,22.451643 L12.5716281,22.451643 L11.5899609,19.3799754 L7.66329524,19.3799754 L6.71329539,22.451643 L3.73662901,22.451643 C3.73662901,22.451643 5.26718423,17.8810879 8.32829466,8.73997784 Z M11.1149609,17.1949778 L9.62662761,12.3499777 L8.10662839,17.1949778 C8.1277395,17.1949778 9.13051702,17.1949778 11.1149609,17.1949778 Z" id="path5539" fill="#FFFFFF"></path>
                    </g>
                </g>
                <g id="Page-1" transform="translate(222.1191, 150.1018)" fill-rule="nonzero">
                    <g id="Eco-score-A">
                        <path d="M7.17622133,0.658750653 C3.59707463,0.658750653 0.685940385,3.35684926 0.685940385,6.672299 L0.685940385,60.0650397 C0.685940385,63.3804894 3.59772258,66.077963 7.17622133,66.077963 L33.540355,66.077963 C37.1195017,66.077963 40.0306402,63.3804894 40.0306402,60.0650397 L40.0306402,6.671674 C40.0306402,3.35622425 37.1188537,0.658750653 33.540355,0.658750653 L7.17622133,0.658750653 Z" id="bg" fill="#FFFFFF"></path>
                        <path d="M33.5224076,66.7357712 L7.19187758,66.7357712 C3.22644403,66.7357712 0,63.7427436 0,60.0642563 L0,6.67151492 C0,2.99302762 3.22644403,0 7.19187758,0 L33.5224076,0 C37.4878409,0 40.7142868,2.99302762 40.7142868,6.67151492 L40.7142868,60.0642563 C40.7142868,63.7433683 37.4878409,66.7357712 33.5224076,66.7357712 Z M7.19252472,0.658591106 C3.61794007,0.658591106 0.71051662,3.35669007 0.71051662,6.67213993 L0.71051662,60.0648823 C0.71051662,63.3803322 3.61858721,66.0778059 7.19252472,66.0778059 L33.5230553,66.0778059 C37.0976399,66.0778059 40.0050645,63.3803322 40.0050645,60.0648823 L40.0050645,6.67151492 C40.0050645,3.35606507 37.0969928,0.658591106 33.5230553,0.658591106 L7.19252472,0.658591106 Z" id="border" fill="#1E8F4E"></path>
                        <g id="title" transform="translate(3.3859, 34.8268)">
                            <g id="Group" transform="translate(1.309, -0.0001)" fill="#1D1D1B">
                                <path d="M10.2856432,6.10352715 L2.33131248,6.10352715 C2.58250189,7.94558272 4.15962162,8.8772332 5.71424666,8.8772332 C7.23804569,8.8772332 8.38089488,8.50732246 9.14279422,7.76750099 L9.14279422,9.98634094 C8.38089488,10.7261624 7.23804569,11.0960732 5.71424666,11.0960732 C2.28569882,11.0960732 0,8.8772332 0,5.54803658 C0,2.21946469 2.28569855,0 5.14313412,0 C8.00056995,0 10.2862682,2.21883995 10.2862682,5.54803658 L10.2862682,6.10352715 L10.2856432,6.10352715 Z M2.40004601,4.4389291 L7.88559749,4.4389291 C7.56567465,2.95241279 6.53717317,2.22008929 5.14250965,2.22008929 C3.74784613,2.22008929 2.71996884,2.95241279 2.40004601,4.4389291 Z" id="Shape"></path>
                                <path d="M19.459712,0.555425975 L19.459712,2.77426552 C18.34998,2.40435487 17.4254116,2.21939955 16.6860067,2.21939955 C15.0214083,2.21939955 13.3574352,3.32913189 13.3574352,5.54797157 C13.3574352,7.76681125 15.0220332,8.87654319 16.6860067,8.87654319 C17.4258281,8.87654319 18.3503966,8.69158782 19.459712,8.32167709 L19.459712,10.541142 C18.7198908,10.9110528 17.7953223,11.0960081 16.6860067,11.0960081 C13.357435,11.0960081 11.1379709,8.8771682 11.1379709,5.54797157 C11.1379709,2.21939969 13.357435,-6.5001339e-05 16.6860067,-6.5001339e-05 C17.7953223,0.00035156483 18.7198908,0.185515224 19.459712,0.555425975 Z" id="Path"></path>
                                <path d="M31.3987694,5.54847342 C31.3987694,8.87704531 29.1793061,11.0965105 25.8507339,11.0965105 C22.5221617,11.0965105 20.3026962,8.87767004 20.3026962,5.54847342 C20.3026962,2.21990153 22.5221617,0.00043738191 25.8507339,0.00043738191 C29.1793061,0.00043738191 31.3987694,2.21990153 31.3987694,5.54847342 Z M22.5221609,5.54847342 C22.5221609,7.7673131 24.1867601,8.87704558 25.8507339,8.87704558 C27.5153325,8.87704558 29.1793047,7.7673131 29.1793047,5.54847342 C29.1793047,3.32900887 27.5147076,2.2199018 25.8507339,2.2199018 C24.1861354,2.2199018 22.5221609,3.32900887 22.5221609,5.54847342 Z" id="Shape"></path>
                                <path d="M2.44069186,27.4526248 C1.68754022,27.4526248 0.934388598,27.3270304 0.181237007,27.0758415 L0.181237007,25.569954 C0.934388598,25.8211429 1.68754022,25.9467373 2.44069186,25.9467373 C3.19363522,25.9467373 3.5704192,25.5699539 3.5704192,25.1937947 C3.5704192,24.0640672 0.00440466683,24.8170098 0.00440466683,22.1813958 C0.00440466683,20.6755091 0.934805016,19.9219418 2.4413166,19.9219418 C3.19446825,19.9219418 3.94761998,20.0475362 4.70077181,20.298725 L4.70077181,21.8046125 C3.94761998,21.5534237 3.19446825,21.4278292 2.4413166,21.4278292 C1.68837324,21.4278292 1.31158926,21.8046127 1.31158926,22.1807719 C1.31158926,23.3104993 5.07693064,22.5575568 5.07693064,25.1931707 C5.07630581,26.6996823 3.94657857,27.4526248 2.44069186,27.4526248 Z" id="Path"></path>
                                <path d="M11.1762462,20.298725 L11.1762462,21.8046125 C10.4230946,21.5534237 9.79553765,21.4278292 9.29357545,21.4278292 C8.16384804,21.4278292 7.03412036,22.1807717 7.03412036,23.6872833 C7.03412036,25.1931699 8.16384804,25.9467373 9.29357545,25.9467373 C9.79553765,25.9467373 10.4230946,25.8211429 11.1762462,25.569954 L11.1762462,27.0758415 C10.674284,27.3270304 10.0467271,27.4526248 9.29357545,27.4526248 C7.03412063,27.4526248 5.528234,25.9467381 5.528234,23.6872833 C5.528234,21.4278284 7.03412063,19.9219418 9.29357545,19.9219418 C10.0467271,19.9219418 10.674284,20.0475362 11.1762462,20.298725 Z" id="Path"></path>
                                <path d="M19.3241386,23.6872833 C19.3241386,25.9467381 17.818251,27.4526248 15.5587963,27.4526248 C13.2993417,27.4526248 11.7934551,25.9467381 11.7934551,23.6872833 C11.7934551,21.4278284 13.2993417,19.9219418 15.5587963,19.9219418 C17.818251,19.9219418 19.3241386,21.4278284 19.3241386,23.6872833 Z M13.2999664,23.6872833 C13.2999664,25.1931699 14.429694,25.9467373 15.5594214,25.9467373 C16.6891487,25.9467373 17.8188763,25.1937948 17.8188763,23.6872833 C17.8188763,22.1813966 16.6891487,21.4278292 15.5594214,21.4278292 C14.429694,21.4278292 13.2999664,22.1813966 13.2999664,23.6872833 Z" id="Shape"></path>
                                <path d="M24.4904122,19.9219418 L24.4904122,21.4278292 C22.9845255,21.4278292 21.4780154,21.8046125 21.4780154,23.6872833 L21.4780154,27.4526248 L19.9721279,27.4526248 L19.9721279,19.9219418 L21.4780154,19.9219418 L21.4780154,22.9343406 C21.4780154,21.0516699 22.6077414,19.9219418 24.4904122,19.9219418 Z" id="Path"></path>
                                <path d="M31.3437858,24.0640666 L26.1025509,24.0640666 C26.268136,25.3143899 27.3072591,25.9467373 28.3313871,25.9467373 C29.3353113,25.9467373 30.0884626,25.6957564 30.590841,25.1937947 L30.590841,26.6996821 C30.0888793,27.2016439 29.335728,27.4526248 28.3313871,27.4526248 C26.0719323,27.4526248 24.5660458,25.9467381 24.5660458,23.6872833 C24.5660458,21.4278284 26.0719331,19.9219418 27.9546038,19.9219418 C29.8372743,19.9219418 31.3431597,21.4278284 31.3431597,23.6872833 L31.3431597,24.0640666 L31.3437858,24.0640666 Z M26.1475385,22.9343406 L29.7622909,22.9343406 C29.5517167,21.9252091 28.873756,21.4284532 27.9552277,21.4284532 C27.0360746,21.4278289 26.3581127,21.9252091 26.1475385,22.9343406 Z" id="Shape"></path>
                            </g>
                            <g id="Group" transform="translate(0, 12.7617)">
                                <path d="M33.6436625,2.6685971 C33.6436625,1.35953814 32.5820422,0.297919661 31.2729831,0.297919661 L24.4402573,0.297919661 C23.1311982,0.297919661 22.0695801,1.35953814 22.0695801,2.6685971 C22.0695801,3.97765606 23.1311982,5.03927508 24.4402573,5.03927508 L31.2729831,5.03927508 C32.5826669,5.03865025 33.6436625,3.97765606 33.6436625,2.6685971 Z" id="Path" fill="#D93726"></path>
                                <path d="M33.942482,2.66873736 C33.942482,4.14025726 32.7452709,5.33746834 31.2737506,5.33746834 L24.4410244,5.33746834 C22.9695045,5.33746834 21.7722931,4.14025726 21.7722931,2.66873736 C21.7722931,1.19721747 22.9695045,6.38996198e-06 24.4410244,6.38996198e-06 L31.2737506,6.38996198e-06 C32.7452709,6.38996198e-06 33.942482,1.19721747 33.942482,2.66873736 Z M31.2737506,4.74073755 C32.4166,4.74073755 33.3457501,3.8109617 33.3457501,2.66873736 C33.3457501,1.52588815 32.4159752,0.596737379 31.2737506,0.596737379 L24.4410244,0.596737379 C23.2981752,0.596737379 22.3690228,1.52651303 22.3690228,2.66873736 C22.3690228,3.8109617 23.2988001,4.74073755 24.4410244,4.74073755 L31.2737506,4.74073755 Z" id="Shape" fill="#FFFFFF"></path>
                                <path d="M27.3752918,2.6685971 C27.3752918,1.35953814 26.3136738,0.297919661 25.0046148,0.297919661 L18.4461976,0.297919661 C17.1371386,0.297919661 16.0755196,1.35953814 16.0755196,2.6685971 C16.0755196,3.97765606 17.1371386,5.03927508 18.4461976,5.03927508 L25.0046148,5.03927508 C26.3142987,5.03865025 27.3752918,3.97765606 27.3752918,2.6685971 Z" id="Path" fill="#EF7E1A"></path>
                                <path d="M27.6737995,2.66873736 C27.6737995,4.14025726 26.4765881,5.33746834 25.0050682,5.33746834 L18.459148,5.33746834 C16.9876281,5.33746834 15.7904167,4.14025726 15.7904167,2.66873736 C15.7904167,1.19721747 16.9876281,6.38996198e-06 18.459148,6.38996198e-06 L25.0050682,6.38996198e-06 C26.4765881,6.38996198e-06 27.6737995,1.19721747 27.6737995,2.66873736 Z M25.0050682,4.74073755 C26.1479174,4.74073755 27.0770676,3.8109617 27.0770676,2.66873736 C27.0770676,1.52588815 26.1472926,0.596737379 25.0050682,0.596737379 L18.459148,0.596737379 C17.3162988,0.596737379 16.3871475,1.52651303 16.3871475,2.66873736 C16.3871475,3.81158657 17.3169235,4.74073755 18.459148,4.74073755 L25.0050682,4.74073755 Z" id="Shape" fill="#FFFFFF"></path>
                                <path d="M21.4734631,2.6685971 C21.4734631,1.35953814 20.4118428,0.297919661 19.1027836,0.297919661 L12.4775081,0.297919661 C11.1684489,0.297919661 10.1068296,1.35953814 10.1068296,2.6685971 C10.1068296,3.97765606 11.1684489,5.03927508 12.4775081,5.03927508 L19.1027836,5.03927508 C20.4124676,5.03865025 21.4734631,3.97765606 21.4734631,2.6685971 Z" id="Path" fill="#F5C100"></path>
                                <path d="M21.7721567,2.66873736 C21.7721567,4.14025726 20.5749455,5.33746834 19.1034257,5.33746834 L12.4781497,5.33746834 C11.0066299,5.33746834 9.80941868,4.14025726 9.80941868,2.66873736 C9.80941868,1.19721747 11.0066299,6.38996198e-06 12.4781497,6.38996198e-06 L19.1034257,6.38996198e-06 C20.5749455,6.38996198e-06 21.7721567,1.19721747 21.7721567,2.66873736 Z M19.1034257,4.74073755 C20.2462748,4.74073755 21.1754249,3.8109617 21.1754249,2.66873736 C21.1754249,1.52588815 20.2456499,0.596737379 19.1034257,0.596737379 L12.4781497,0.596737379 C11.3353006,0.596737379 10.4061494,1.52651303 10.4061494,2.66873736 C10.4061494,3.81158657 11.3359253,4.74073755 12.4781497,4.74073755 L19.1034257,4.74073755 Z" id="Shape" fill="#FFFFFF"></path>
                                <path d="M15.4923387,2.6685971 C15.4923387,1.35953814 14.43072,0.297919661 13.1216608,0.297919661 L6.4963841,0.297919661 C5.18732488,0.297919661 4.1257062,1.35953814 4.1257062,2.6685971 C4.1257062,3.97765606 5.18732488,5.03927508 6.4963841,5.03927508 L13.1216608,5.03927508 C14.43072,5.03865025 15.4923387,3.97765606 15.4923387,2.6685971 Z" id="Path" fill="#2ECC71"></path>
                                <path d="M15.7904053,2.66873736 C15.7904053,4.14025726 14.593194,5.33746834 13.1216742,5.33746834 L6.49639802,5.33746834 C5.02487823,5.33746834 3.82766724,4.14025726 3.82766724,2.66873736 C3.82766724,1.19721747 5.02487823,6.38996198e-06 6.49639802,6.38996198e-06 L13.1216742,6.38996198e-06 C14.593194,6.38996198e-06 15.7904053,1.19721747 15.7904053,2.66873736 Z M13.1216742,4.74073755 C14.2645233,4.74073755 15.1936745,3.8109617 15.1936745,2.66873736 C15.1936745,1.52651303 14.2638985,0.596737379 13.1216742,0.596737379 L6.49639802,0.596737379 C5.35354889,0.596737379 4.42439825,1.52651303 4.42439825,2.66873736 C4.42439825,3.81158657 5.35417376,4.74073755 6.49639802,4.74073755 L13.1216742,4.74073755 Z" id="Shape" fill="#FFFFFF"></path>
                                <path d="M9.52032354,2.6685971 C9.52032354,1.35953814 8.4587044,0.297919661 7.14964527,0.297919661 L2.66885143,0.297919661 C1.3597923,0.297919661 0.298173696,1.35953814 0.298173696,2.6685971 C0.298173696,3.97765606 1.3597923,5.03927508 2.66885143,5.03927508 L7.14964527,5.03927508 C8.4587044,5.03865025 9.52032354,3.97765606 9.52032354,2.6685971 Z" id="Path" fill="#1E8F4E"></path>
                                <path d="M9.81825638,2.66873097 C9.81825638,4.14025087 8.62104498,5.33746195 7.14952502,5.33746195 L2.66873109,5.33746195 C1.19721113,5.33746195 0,4.14025087 0,2.66873097 C0,1.19721108 1.19721113,0 2.66873109,0 L7.14952502,0 C8.62104498,0 9.81825638,1.19721108 9.81825638,2.66873097 Z M7.14952502,4.74073116 C8.29237428,4.74073116 9.22152557,3.81095531 9.22152557,2.66873097 C9.22152557,1.52650664 8.2917494,0.596730989 7.14952502,0.596730989 L2.66873109,0.596730989 C1.52588183,0.596730989 0.596731015,1.52650664 0.596731015,2.66873097 C0.596731015,3.81158018 1.5265067,4.74073116 2.66873109,4.74073116 L7.14952502,4.74073116 Z" id="Shape" fill="#FFFFFF"></path>
                            </g>
                        </g>
                        <g id="leaf" transform="translate(6.8074, 4.5826)">
                            <path d="M26.2053026,0.00255717309 C26.6891859,-0.037995541 27.1380167,0.410146266 27.0967767,0.894029485 C27.0369786,1.58342558 26.179184,17.2484586 21.1657686,22.2618735 C16.3613027,27.0663389 10.6997315,25.939109 7.00256097,23.2811879 C6.95788425,23.2488832 6.90770841,23.210394 6.85272168,23.1664046 L3.51983832,26.4944762 C2.71428262,27.2993445 1.40903516,27.2993445 0.604166802,26.4944762 C-0.201388832,25.6889206 -0.201388832,24.3836718 0.604166802,23.5788036 L3.93292629,20.2466085 C3.88824958,20.1909344 3.84975874,20.1407588 3.81745404,20.0960821 C1.16021999,16.3995993 0.0323045155,10.738029 4.83677046,5.93287599 C9.85018583,0.919461152 25.5152191,0.0609805712 26.2053026,0.00255717309 Z" id="Vector" fill="#1E8F4E"></path>
                            <path d="M17.5925065,19.1889658 C18.3147531,19.1889658 18.8318148,18.7047316 18.8318148,18.0235216 C18.8318148,17.7773011 18.7907789,17.5557029 18.675876,17.2356163 L15.4257658,8.4209232 C15.0728498,7.45245606 14.4983356,7.02567387 13.5298686,7.02567387 C12.5942309,7.02567387 12.0115085,7.46887053 11.6667999,8.42913034 L8.43310506,17.2356163 C8.32640953,17.5392882 8.26895809,17.8183379 8.26895809,18.0235216 C8.26895809,18.737561 8.75319151,19.1889658 9.52468226,19.1889658 C10.1812701,19.1889658 10.5506012,18.860671 10.780407,18.0727655 L11.4041652,16.2261119 L15.6801934,16.2261119 L16.3039516,18.0973879 C16.52555,18.8688788 16.8948819,19.1889658 17.5925065,19.1889658 Z M15.105679,14.305592 L11.94585,14.305592 L13.4806247,9.45504897 L13.5380757,9.45504897 L15.105679,14.305592 Z" id="A" fill="#FFFFFF"></path>
                        </g>
                    </g>
                </g>
            </g>
        </g>
    </g>
</svg>