<?xml version="1.0" encoding="UTF-8"?>
<svg width="31px" height="23px" viewBox="0 0 31 23" version="1.1" xmlns="http://www.w3.org/2000/svg" xmlns:xlink="http://www.w3.org/1999/xlink">
    <title>Shape</title>
    <g id="Homepage-V2" stroke="none" stroke-width="1" fill="none" fill-rule="evenodd">
        <g id="Homepage-V2-scrolled" transform="translate(-365, -141)" fill="#000000" fill-rule="nonzero">
            <g id="Recherche">
                <path d="M365,141 L365,164 L366,164 L366,141 L365,141 Z M368,141 L368,164 L370,164 L370,141 L368,141 Z M371,141 L371,164 L377,164 L377,141 L371,141 Z M379,141 L379,164 L380,164 L380,141 L379,141 Z M382,141 L382,164 L384,164 L384,141 L382,141 Z M385,141 L385,164 L386,164 L386,141 L385,141 Z M388,141 L388,164 L391,164 L391,141 L388,141 Z M393,141 L393,164 L394,164 L394,141 L393,141 Z M395,141 L395,164 L396,164 L396,141 L395,141 Z" id="Shape"></path>
            </g>
        </g>
    </g>
</svg>