<?xml version="1.0" encoding="UTF-8"?>
<svg width="48px" height="45px" viewBox="0 0 48 45" version="1.1" xmlns="http://www.w3.org/2000/svg" xmlns:xlink="http://www.w3.org/1999/xlink">
    <title>pumpkin</title>
    <g id="Homepage-V2" stroke="none" stroke-width="1" fill="none" fill-rule="evenodd">
        <g transform="translate(-43, -538)" fill-rule="nonzero" id="Group-4">
            <g transform="translate(27, 523)">
                <g id="pumpkin" transform="translate(16, 15)">
                    <path d="M16.4851724,12.9142833 L16.4851724,39.142851 C16.4851724,41.615299 14.6387564,43.6932562 12.1960743,43.969873 C12.0168283,43.9902455 11.8365716,44 11.6561852,44 C7.78238753,44 4.12877029,41.5889252 2.28988729,38.1957082 C0.232739983,34.4003548 -0.274303367,29.4188669 0.126511987,25.1873189 C0.633560165,19.818233 2.60667735,14.1684052 7.5998413,11.5076569 C9.44435422,10.5231259 11.4996506,10.0056388 13.5877818,10 C13.6215944,10 13.654416,10.0009714 13.6882247,10.0029143 C15.2483175,10.0564522 16.4854361,11.3441806 16.4851724,12.9142833 Z M44.025851,41.155672 C42.0161215,42.9822589 39.4050693,43.9955245 36.696409,44.0000045 C35.4152768,44.0013266 34.1862353,43.4900216 33.2803375,42.5788416 C32.3744398,41.6676615 31.866099,40.4314535 31.8674221,39.142851 L31.8674221,12.9142833 C31.8670207,11.4619881 32.9303255,10.2312941 34.3601464,10.0291487 C34.4941568,10.0096121 34.6293989,10.0000045 34.7648095,10.0000045 C37.7679523,10.0036468 40.6755812,11.0618827 42.9856839,12.9920054 C44.9887466,14.6716051 46.3031816,16.9505762 47.000484,19.4597836 C47.551954,21.4434327 47.7499424,23.5067457 47.8735644,25.5623038 C48.1893916,30.8089626 48.231877,37.3185297 44.025851,41.155672 Z" id="Shape" fill="#F7991D"></path>
                    <path d="M26.0363934,11 L23.1402802,11 C23.4174999,10.5931635 25.0011029,8.18438268 24.3496469,4.98235489 C23.7142996,1.8595426 21.4235572,0.294482199 21,0.0161845536 C23.1031249,0.0107932612 25.2062568,0.00539841002 27.3093957,0 C28.5627014,3.67156992 28.0936815,7.72436686 26.0363934,11 L26.0363934,11 Z" id="Path" fill="#37B678"></path>
                    <path d="M37.9678523,42.4966681 C37.3896881,43.0662269 36.7499096,43.5704066 36.0602002,44 C33.7133833,43.5938885 32.0001995,41.568399 32,39.1996437 L32,12.8936522 C31.9995901,11.4370683 33.0782913,10.2027404 34.5288147,10 C35.3862149,10.4772127 36.1860011,11.0502394 36.9126259,11.7079409 C38.9446884,13.5435145 40.2781535,16.0347805 40.9855513,18.7784136 C41.5450054,20.9462222 41.74684,23.2026829 41.8722517,25.4494182 C42.1916696,31.185083 42.2347721,38.3013496 37.9678523,42.4966681 Z" id="Path" fill="#E37626"></path>
                    <path d="M28.7891921,45 C31.462907,45 34.0776507,43.8878014 36.0582771,41.9051833 C40.2295288,37.7297397 40.1876301,30.6454358 39.8748908,24.935593 C39.7523893,22.6990085 39.5552551,20.4529777 39.0087712,18.2950155 C38.3171176,15.5637832 37.0131977,13.0844584 35.0271289,11.2566264 C32.749285,9.1602676 29.8389941,8 26.873509,8 C25.2865083,8 24,9.41990382 24,11.1714285 L24,39.7142849 C24,42.6335072 26.1441884,45 28.7891921,45 Z" id="Path" fill="#FAA827"></path>
                    <path d="M16,12.9141958 L16,39.1682817 C16,41.6431351 14.1915256,43.7231141 11.7990378,44 C11.1086857,43.5625015 10.4691779,43.045421 9.89293544,42.4588015 C5.7733383,38.271761 5.81495257,31.1695358 6.12333256,25.4451815 C6.24441427,23.2028823 6.43928866,20.9508709 6.9794181,18.7873398 C7.66239463,16.0491203 8.94981769,13.562767 10.9117189,11.7308181 C11.626392,11.0617955 12.414676,10.4809165 13.2605319,10 C14.7885622,10.053593 16.0002553,11.3425699 16,12.9141958 L16,12.9141958 Z" id="Path" fill="#E37626"></path>
                    <path d="M19.2108079,45 C16.537093,45 13.9223493,43.8878014 11.9417229,41.9051833 C7.77047124,37.7297397 7.81236988,30.6454358 8.12510918,24.935593 C8.2476107,22.6990085 8.44474491,20.4529777 8.99122884,18.2950155 C9.68288244,15.5637832 10.9868023,13.0844584 12.9728711,11.2566264 C15.250715,9.1602676 18.1610059,8 21.126491,8 C22.7134917,8 24,9.41990382 24,11.1714285 L24,39.7142849 C24,42.6335072 21.8558116,45 19.2108079,45 Z" id="Path" fill="#FAA827"></path>
                    <ellipse id="Oval" fill="#E37626" cx="22" cy="26.5" rx="7" ry="18.5"></ellipse>
                    <ellipse id="Oval" fill="#E37626" cx="26" cy="26.5" rx="7" ry="18.5"></ellipse>
                    <ellipse id="Oval" fill="#F7991D" cx="24" cy="26.5" rx="7" ry="18.5"></ellipse>
                </g>
            </g>
        </g>
    </g>
</svg>