<?xml version="1.0" encoding="UTF-8"?>
<svg width="42px" height="48px" viewBox="0 0 42 48" version="1.1" xmlns="http://www.w3.org/2000/svg" xmlns:xlink="http://www.w3.org/1999/xlink">
    <title>spinach</title>
    <g id="Homepage-V2" stroke="none" stroke-width="1" fill="none" fill-rule="evenodd">
        <g transform="translate(-148, -539)" fill-rule="nonzero" id="Group-5">
            <g transform="translate(126, 523)">
                <g id="spinach" transform="translate(22, 16)">
                    <path d="M37.9621625,11.3982756 C38.000261,11.7126834 38.0078807,12.0349514 37.9926413,12.3493591 C36.7506289,12.3886601 35.8591231,13.1196582 35.706729,13.2532815 C35.2952648,13.0882174 33.8018021,12.5615844 32.3083393,13.2847223 C31.8816357,13.4969475 31.5539883,13.756334 31.3025379,14 C31.1730029,13.5834097 30.9901299,13.1825398 30.7615387,12.8052504 C31.3939744,12.302198 33.5274926,10.5336542 34.0608721,7.47603854 C34.0837312,7.33455504 34.1142101,7.16949095 34.1446889,6.96512589 L34.1523086,6.96512589 C34.8685611,7.06730842 35.5619545,7.36599581 36.1334326,7.8140269 C37.1849523,8.67078811 37.8250077,10.0227416 37.9621625,11.3982756 L37.9621625,11.3982756 Z M22.0369733,3.75030633 C20.8635384,3.6481238 19.6520048,4.02541314 18.7376399,4.78785201 C17.6175429,5.73107535 16.9774874,7.2480929 17.0689239,8.73366966 C15.8116721,9.14239978 14.7068145,10.0227416 13.9753226,11.1546096 C13.7772102,10.5572348 13.5562387,10.0620425 13.3428868,9.62973184 C14.4706036,8.17559585 14.8134904,6.10836469 14.2191532,4.35554131 C13.9677029,3.60096263 13.548619,2.90926551 13,2.33547131 L13.0076197,2.32761112 C14.2267729,1.40796836 15.7659539,0.904915906 17.2898954,1.01495863 C19.1567238,1.14858194 20.9321157,2.19398781 22.0369733,3.75030633 L22.0369733,3.75030633 Z" id="Shape" fill="#486C00"></path>
                    <path d="M34.0739381,19.7442386 C25.5689567,23.8911293 18.1095417,30.6426134 12,38 C13.2731035,35.5987601 14.4983787,33.1720406 15.6750883,30.721302 C17.0171588,29.407202 18.249991,28.5101516 19.2019247,27.9042492 C21.1760167,26.6531 22.3698352,26.369821 23.6182729,24.9770323 C25.0149625,23.4347352 25.5065348,21.5855525 25.7016032,20.295059 C25.8576579,20.295059 29.0255684,20.2635836 30.6719456,17.5173505 C31.5536546,16.0380043 31.7175121,14.2596414 31.1635179,12.6543934 C31.4210081,12.4104586 31.7565258,12.1507862 32.1934789,11.9383269 C33.7228151,11.2143915 35.2521512,11.7416053 35.6734989,11.9068514 C35.8295536,11.7730808 36.7424736,11.0412765 38.0143195,11.0019322 C38.2405988,10.9940634 38.4746808,11.0098011 38.7243684,11.0570143 C40.1054525,11.3245556 40.8389096,12.3553766 41.1276108,12.7488197 C42.0639391,14.0550509 42.0093199,15.4478396 41.9937145,15.8806271 C41.8766734,18.2491547 40.1444662,19.6812877 39.8401595,19.9330913 C40.9325425,21.3966998 40.3629428,23.6235879 39.0832942,24.9219503 C37.7958429,26.2281815 36.0012138,26.826215 34.2612038,27.3927731 C35.1663211,27.2904779 36.024622,28.0773642 36.1962821,28.9744145 C36.3601396,29.8793337 35.9700028,30.8235973 35.345784,31.4845817 C34.7137624,32.153435 33.8944752,32.5940914 33.0595826,32.9717968 C29.1582149,34.734422 24.8745132,35.3167178 20.6142198,35.7495053 C21.3242687,34.4826184 22.0421203,33.2157315 22.8379993,32.0039267 C25.8966716,27.3534288 30.0087131,23.5212927 34.0739381,19.7442386 L34.0739381,19.7442386 Z" id="Path" fill="#92C538"></path>
                    <path d="M23.3854975,32.1020569 C22.6228407,33.2940101 21.9349542,34.540143 21.2545447,35.7862759 C23.2064227,35.5827151 25.162413,35.3415187 27.0820463,34.9599389 C27.1563493,31.4349695 28.2822027,28.0895671 30.8933675,25.4277963 C31.8068734,24.4965829 32.835245,23.72191 33.6573442,22.6916252 C34.3751388,21.7921456 34.9804041,20.7430913 35.3794905,19.6509835 C36.274771,17.201094 36.2089732,14.5408712 35.1319074,12.1628666 C35.1305055,12.1597706 35.1301316,12.1566746 35.1287297,12.1535786 C34.4709382,11.9805906 33.4134996,11.8488179 32.3505467,12.3652664 C31.9318332,12.5742452 31.610321,12.8296637 31.3635791,13.0696024 C31.894448,14.6485534 31.7374305,16.3977834 30.8925264,17.8528951 C29.3148736,20.5541396 26.2792005,20.5850995 26.12966,20.5850995 C25.9427343,21.8544522 25.4716816,23.6733418 24.1332937,25.1903732 C22.9369693,26.5603453 21.7929841,26.8389837 19.9012962,28.0696367 C18.9890989,28.6656133 17.8077286,29.5479683 16.5216799,30.8405409 C15.3940894,33.2511317 14.2199606,35.638097 13,38 C18.8545124,30.7631413 26.0025505,24.1222593 34.1525103,20.0433026 C30.2568856,23.7583846 26.3164922,27.5277431 23.3854975,32.1020569 L23.3854975,32.1020569 Z" id="Path" fill="#609000"></path>
                    <path d="M21.1528366,19.2547246 C22.2956196,16.1104403 24.0135782,11.6534937 26.3899615,6.33415838 C25.0504079,7.98261809 23.7259904,9.65397308 22.4318454,11.3405916 C22.1442576,11.706916 21.864238,12.0732403 21.5842183,12.4395647 C16.7557708,18.8273461 16.7406346,19.6134172 12.5781798,25.4975025 C11.4353968,22.834019 12.0105724,19.4531503 14.0917997,17.4154709 C12.9792891,15.9501734 12.6311565,13.912494 13.1836278,12.1495579 C13.3425579,11.6458619 13.5696009,11.1574294 13.8647568,10.7224192 L13.8647568,10.7147874 C14.5912943,9.61581429 15.6886687,8.7610574 16.9374052,8.36420599 C16.846588,6.92180374 17.4823083,5.44887446 18.594819,4.53306351 C19.5029909,3.79278299 20.7063187,3.42645861 21.8718061,3.52567146 C22.1291214,3.54856674 22.3864368,3.59435728 22.6437522,3.66304311 C23.9908739,1.09877244 27.0786585,-0.412315627 29.9166959,0.0990121539 C31.7935845,0.442441261 32.8606866,1.95352933 32.9590719,2.08326921 C34.1699678,3.7012019 34.0640144,5.57861435 33.9050843,6.64706046 L33.8975162,6.64706046 C33.8672438,6.84548616 33.8369714,7.00575308 33.8142671,7.14312472 C33.2845002,10.1118786 31.1654323,11.8290241 30.53728,12.3174566 C30.764323,12.683781 30.9459574,13.0730006 31.0746151,13.4774838 C31.6119502,15.0343624 31.4530201,16.7591397 30.5978248,18.1939102 C29.0009558,20.8573937 25.9283074,20.8879207 25.7769454,20.8879207 C25.5877429,22.139529 25.1109527,23.9329922 23.7562628,25.4288167 C22.5453669,26.7796379 21.3874477,27.0543812 19.4727185,28.2678307 C18.5494104,28.855476 17.3536506,29.7254964 16.0519375,31 C19.4575823,23.9024651 21.1528366,19.2547246 21.1528366,19.2547246 L21.1528366,19.2547246 Z" id="Path" fill="#92C538"></path>
                    <path d="M12.816009,9.62238695 C13.033026,10.0356624 13.2577935,10.5090507 13.4593092,11.0801223 L13.4593092,11.0876364 C13.1570356,11.51594 12.9245175,11.9968424 12.7617548,12.492773 C12.1959607,14.2285299 12.5524885,16.2347945 13.6918274,17.6775016 C11.5604111,19.6837662 10.9713651,23.0125122 12.1417064,25.634933 C11.8781859,25.9880956 11.5991641,26.3638006 11.3046411,26.7620479 C11.3046411,26.769562 9.9870383,28.5278613 8.40591493,31 L8.39816432,30.9924859 C9.32048629,28.1371281 10.0025395,25.2216575 10.3048131,22.2460741 C10.8008518,17.2942825 10.2583095,12.5078012 8.07263892,7.99934146 C8.15789558,10.3136841 8.05713771,12.6280267 7.76261473,14.9198271 L7.76261473,14.9273412 C7.14256635,19.8265341 5.67770205,24.6130154 3.42227607,29.0313059 C3.09675067,29.6700044 2.74797346,30.3087028 2.40694685,30.9474013 C0.965334364,29.6249198 0.0817654215,27.7463949 0.004259374,25.8227855 C-0.0732466735,23.6136402 0.91108013,21.3969809 2.62396378,19.9392456 C2.39144564,19.2554625 1.96516238,17.7150721 2.39144564,15.821519 C2.86423253,13.6724866 4.15083292,12.3349769 4.67012344,11.8465604 C3.6315424,10.4639661 2.94173858,8.81837831 2.87973374,7.12019182 C2.8177289,5.42200534 3.43777728,3.67122016 4.69337525,2.48399244 C6.02647927,1.25168012 8.01063409,0.725693159 9.79327318,1.13896863 C10.816353,1.37190572 11.7464256,1.91292088 12.4672318,2.64930263 C13.0252754,3.19783189 13.4515586,3.85907265 13.7073286,4.5804262 C14.3118758,6.25607038 13.9630985,8.23227855 12.816009,9.62238695 Z" id="Path" fill="#92C538"></path>
                    <path d="M13.6737435,12.2380738 C13.8480749,11.7353156 14.0971199,11.2477925 14.4208783,10.8135922 L14.4208783,10.8059747 C14.2050393,10.227041 13.9642959,9.74713548 13.7318539,9.32817033 C14.9604757,7.91892389 15.3340431,5.91550869 14.6865262,4.21679542 C14.4125768,3.48551079 13.9559944,2.81516654 13.3582865,2.25908551 C12.7998025,1.71949869 12.1264687,1.2909451 11.3800395,1 C11.5468996,1.81936254 11.5400509,2.65243666 11.2362161,3.52502682 C10.7379186,4.95598327 9.87487414,6.21878233 9.57020915,7.71267877 C9.46467636,8.23010074 9.41517868,8.75323587 9.38736866,9.27818017 C11.1060901,13.3770877 11.5121371,17.6852873 11.0421685,22.1255562 C10.7184101,25.1421054 9.98787828,28.0977141 9,30.9923825 L9.0083015,31 C10.7018071,28.4938266 12.1130618,26.7113203 12.1130618,26.7037028 C12.4285187,26.2999727 12.7273727,25.9190953 13.0096236,25.5610705 C11.7560974,22.9025462 12.3870112,19.5279723 14.6699232,17.4940869 C13.449603,16.0316128 13.0677341,13.9977274 13.6737435,12.2380738 L13.6737435,12.2380738 Z" id="Path" fill="#609000"></path>
                    <path d="M12.5049354,38.3973106 C12.5049354,38.3973106 12.5049354,38.4049233 12.4973373,38.4049233 C11.7831146,39.7447496 11.0233032,41.1378645 10.2179031,42.5614301 C9.74682004,43.4064342 8.68308408,45.2258575 6.99630276,45.4161737 C6.04653851,45.5227508 4.95241009,45.0964424 4.37495343,44.2895016 C3.5999458,43.2008926 3.96465527,41.7164259 4.23818737,40.8181333 C4.6332893,39.5392081 5.21074597,38.1537058 5.87938,36.7758162 C6.82154614,34.8422032 7.93087079,32.9238154 8.93382184,31.302321 L8.92622373,31.2947084 C9.83039929,28.4019014 10.4990333,25.4481933 10.7953598,22.433584 C11.2816391,17.4168478 10.7497711,12.5675899 8.60710294,8 C8.69068219,10.3446961 8.59190671,12.6893923 8.30317838,15.0112505 L8.30317838,15.0188631 C7.69532925,19.9823108 6.2592857,24.8315687 4.04823452,29.3078068 C3.72911373,29.954882 3.3871986,30.6019572 3.05288159,31.2490325 C2.02713619,33.1902582 1.00898891,35.1390965 0.431532249,37.2478005 C-0.335877267,40.0568683 -0.176316873,43.3303077 1.70041729,45.5532014 C3.8202911,48.0577632 7.6649368,48.5678107 10.7345749,47.410688 C13.8042129,46.2611779 16.1824226,43.7566161 18.0211662,41.0389001 C19.0621078,39.4859195 19.9662834,37.8491998 20.8932533,36.2200928 C21.5846817,34.9944562 22.2837082,33.7688195 23.0587158,32.5964715 C26.0371765,28.0973954 30.0413826,24.390035 34,20.7359631 C25.7180557,24.7478295 18.4542587,31.2794831 12.5049354,38.3973106 L12.5049354,38.3973106 Z" id="Path" fill="#BEDC88"></path>
                    <path d="M3.37894876,36.9597702 C3.25008213,36.9595808 3.13011539,36.892646 3.06037549,36.7820241 C2.99063559,36.6714022 2.9806535,36.5322111 3.03386791,36.4124004 L6.23866408,29.225946 C6.32607192,29.0308439 6.55122769,28.9477126 6.74083255,29.0339408 C6.83243002,29.0763843 6.90373039,29.154274 6.93901364,29.2504372 C6.97429689,29.3466004 6.97066567,29.4531404 6.92892057,29.5465677 L3.72412441,36.733022 C3.66258426,36.871168 3.52761193,36.9597702 3.37894876,36.9597702 Z M4.99807947,36.8395733 C4.95143668,36.8395733 4.90403546,36.8304763 4.85805628,36.812379 C4.66344567,36.7333759 4.56832096,36.5083693 4.64550923,36.3096234 C4.98766829,35.431149 5.39600409,34.5810645 5.86684894,33.7670055 C5.9742601,33.5825489 6.2083273,33.5220634 6.38608186,33.6301631 C6.47278665,33.6822361 6.53564212,33.7673751 6.56078885,33.8668072 C6.58593557,33.9662394 6.57130837,34.0717987 6.52013249,34.1602098 C6.06919018,34.9398746 5.6781891,35.7540823 5.35064971,36.5955021 C5.29307406,36.742802 5.15343685,36.8394677 4.99807947,36.8395733 L4.99807947,36.8395733 Z M13.2125205,41.7509978 C13.1336687,41.7509978 13.0567743,41.7259311 12.9925788,41.6791894 C12.9105868,41.6197017 12.8551376,41.5293676 12.8384564,41.4281033 C12.8217751,41.3268391 12.8452315,41.2229599 12.9036542,41.1393682 C13.85092,39.7844925 14.9256004,38.5089738 16.098022,37.3484259 C16.2488206,37.2004844 16.4883251,37.2045478 16.6342246,37.357523 C16.7795138,37.5113151 16.7755284,37.756114 16.6253132,37.9048927 C15.4841858,39.0349001 14.4452976,40.2677413 13.521292,41.5884127 C13.4501507,41.6903568 13.3351335,41.7509197 13.2125205,41.7509978 L13.2125205,41.7509978 Z M14.7471822,42.9999998 C14.6058733,42.9999998 14.4762724,42.919839 14.4109111,42.7919457 C14.3455498,42.6640524 14.3552714,42.5096681 14.4361354,42.3913701 L18.309668,36.7269251 C18.4304462,36.550017 18.6674523,36.5107256 18.8377175,36.6309225 C18.9202238,36.6896645 18.9764864,36.779464 18.9941238,36.8805592 C19.0117612,36.9816545 18.9893282,37.0857612 18.9317615,37.1699694 L15.058229,42.8344145 C14.9873576,42.9382674 14.8711684,43.0001205 14.7471822,42.9999998 Z" id="Shape" fill="#92C538"></path>
                    <path d="M7.19377148,22.6766534 C7.01714545,22.6768337 6.8630226,22.5588854 6.81983955,22.3904877 C6.46549683,21.013174 5.42138239,19.2290043 4.52047182,18.1229596 C4.38745897,17.9591392 4.4144417,17.7203616 4.58078342,17.5892458 C4.74589246,17.4603005 4.98868284,17.4854444 5.12358783,17.6485473 C6.09310888,18.8382784 7.18701658,20.7225491 7.56770341,22.2036642 C7.59312809,22.3011876 7.57798877,22.4046523 7.52563413,22.4911728 C7.4732795,22.5776933 7.38802424,22.6401392 7.28872607,22.664698 C7.25772075,22.6726391 7.2258114,22.6766534 7.19377148,22.6766534 L7.19377148,22.6766534 Z M8.55729616,16.2140199 C8.42064975,16.2140199 8.29419035,16.1429751 8.22485862,16.0271959 C7.796598,15.3133952 6.91932957,14.1489977 6.32605641,13.5567415 C6.25424436,13.4850038 6.21437409,13.388144 6.21521141,13.2874898 C6.21607541,13.1868356 6.25757725,13.0906406 6.33059185,13.0200863 C6.48286658,12.8740622 6.72710444,12.8748213 6.87638771,13.0245458 C7.51347122,13.6605429 8.42914607,14.8745639 8.88973371,15.6417834 C8.96032079,15.7590726 8.96145591,15.9045879 8.89270689,16.0229279 C8.82395788,16.1412679 8.69590307,16.2142238 8.55729616,16.2140199 L8.55729616,16.2140199 Z M9.74606195,13.819471 C9.70379558,13.819471 9.66085372,13.8128292 9.61868385,13.7979327 C9.52198338,13.7648707 9.4426564,13.6953024 9.39823755,13.6046052 C9.35381869,13.513908 9.34796589,13.409551 9.38197287,13.3146014 C9.68961029,12.4495581 10.5298233,10.9444377 11.1390187,10.2477159 C11.2777836,10.0883133 11.5212495,10.0713294 11.6833671,10.2076755 C11.7609961,10.2733147 11.8089057,10.3666027 11.8165437,10.4669931 C11.8241818,10.5673835 11.7909219,10.666642 11.7240895,10.7429074 C11.1782936,11.3670442 10.3862334,12.7898066 10.110344,13.565186 C10.0560385,13.7173225 9.91004281,13.819234 9.74606195,13.819471 L9.74606195,13.819471 Z M5.50881009,27.1948608 C5.33363857,27.1948952 5.18041767,27.0789139 5.13565015,26.9123957 C4.9713131,26.3023016 4.50011062,25.188002 4.08921975,24.7009704 C3.95277078,24.5393855 3.97535144,24.2999022 4.13968849,24.1664975 C4.30402555,24.0330928 4.54681593,24.0545362 4.68326489,24.216121 C5.16498572,24.7869339 5.68897291,26.0019986 5.88197003,26.7180765 C5.91226635,26.83193 5.88727369,26.9531605 5.81427789,27.0464268 C5.7412821,27.1396931 5.62850011,27.1944965 5.50881009,27.1948608 L5.50881009,27.1948608 Z M22.6456037,13.1167715 C22.6350854,13.1167715 22.6236985,13.1160125 22.6131802,13.1152534 C22.5111831,13.1070847 22.4166774,13.0593666 22.3504971,12.9826187 C22.2843168,12.9058708 22.2518958,12.8063948 22.2603815,12.7061203 C22.3598715,11.5082293 22.1330034,9.63629332 21.6700998,8.52360678 C21.6312714,8.43041424 21.6317055,8.32586871 21.6713065,8.23299102 C21.7109075,8.14011334 21.7864281,8.06651965 21.8812386,8.02841525 C21.9760111,7.9901583 22.0823694,7.99054598 22.1768508,8.02949276 C22.2713323,8.06843954 22.3461735,8.14274525 22.3848646,8.23601806 C22.8937015,9.45914778 23.1394834,11.4518691 23.0293785,12.7683631 C23.0127562,12.9648092 22.846085,13.116121 22.6456037,13.1167715 Z M18.8192427,18.2660423 C18.8093999,18.2660423 18.7996535,18.2660423 18.7905827,18.2652833 C18.5780252,18.2497575 18.4182584,18.0681461 18.4332485,17.8590915 C18.5161408,16.7464049 18.0318145,15.1186015 17.5568485,14.1053518 C17.514023,14.0139341 17.5099024,13.9095294 17.5453941,13.8151234 C17.5808858,13.7207174 17.6530799,13.64405 17.7460822,13.6020004 C17.9368599,13.5145188 18.1690354,13.5967819 18.2580071,13.7880649 C18.7872052,14.9169763 19.2957526,16.6738198 19.2037895,17.9139335 C19.1889544,18.1121102 19.0213396,18.2655861 18.8192427,18.2660423 L18.8192427,18.2660423 Z M23.4091968,13.4592024 C23.2866116,13.4592906 23.1712906,13.4020497 23.098568,13.3050183 C23.0377005,13.2240432 23.0120821,13.1225918 23.0273599,13.0230273 C23.0426377,12.9234627 23.0975573,12.8339591 23.1800128,12.7742459 C24.2927377,11.9662269 26.4572969,11.0267957 27.8233306,10.8244114 C28.0238546,10.7954723 28.230458,10.9356137 28.2621095,11.1431216 C28.2773483,11.2426018 28.2517529,11.3439586 28.1909587,11.4248761 C28.1301644,11.5057936 28.039156,11.5596372 27.9379708,11.5745521 C26.6963239,11.7590985 24.6509403,12.6496652 23.6384774,13.3850042 C23.5720735,13.4331835 23.4917224,13.4592024 23.4091968,13.4592024 L23.4091968,13.4592024 Z M21.4437141,18.0189686 C21.3076228,18.0190744 21.1815469,17.9486549 21.1119521,17.833663 C21.0594308,17.7471953 21.0440662,17.6437307 21.0692499,17.5461071 C21.0944336,17.4484834 21.1580949,17.3647278 21.2461816,17.3133276 C22.5368498,16.5594865 24.942752,15.9755799 26.4452346,15.9281386 C26.6683393,15.9214969 26.8365363,16.0867821 26.8432912,16.2958081 C26.8500461,16.5048342 26.6827176,16.6805565 26.4693592,16.6871983 C25.0972462,16.73018 22.8195906,17.2769876 21.6412467,17.9656445 C21.581496,18.0006044 21.5132435,18.0190292 21.4437141,18.0189686 L21.4437141,18.0189686 Z M19.3276937,23.5082979 C19.1460107,23.508332 18.9888978,23.3837844 18.9503937,23.209202 C18.9118895,23.0346197 19.0024186,22.8572687 19.1677955,22.7833011 C20.2579398,22.2940871 22.2021928,22.0190229 23.400126,21.9871424 L23.4106443,21.9871424 C23.619782,21.987066 23.7909396,22.1507712 23.7966386,22.35633 C23.8020442,22.5657866 23.6341651,22.7401024 23.4211627,22.746202 C22.325711,22.7751412 20.4847114,23.0263899 19.4873023,23.4741402 C19.4372097,23.4966587 19.3827733,23.5082979 19.3276937,23.5082979 Z M16.2582674,21.6003066 C16.0507249,21.6000051 15.8804007,21.4387298 15.8722732,21.2348194 C15.8406216,20.3934967 15.5717766,19.1555653 15.1910898,18.4009652 C15.0966212,18.2130741 15.1748945,17.9854574 15.3659452,17.8924901 C15.5570632,17.7999982 15.7882655,17.8768638 15.883081,18.0644171 C16.3113416,18.9146588 16.6080747,20.2585739 16.6442616,21.2066393 C16.6480323,21.3096863 16.6090516,21.4098158 16.5362654,21.4840489 C16.4634792,21.558282 16.3631373,21.6002446 16.2582674,21.6003066 L16.2582674,21.6003066 Z M33.6140163,25.9108165 C33.5778293,25.9108165 33.5416423,25.905598 33.5054554,25.8952558 C32.2856171,25.5439061 30.2176529,25.4727443 28.9766814,25.7388895 C28.8766776,25.7606129 28.7719921,25.7422356 28.685812,25.6878281 C28.5996319,25.6334206 28.5390704,25.5474736 28.5175412,25.4490236 C28.4722615,25.2443326 28.6042071,25.042276 28.8123443,24.9975729 C30.1806939,24.7040066 32.3805716,24.7796279 33.7225771,25.1673176 C33.8208932,25.1954164 33.9037688,25.2608785 33.9528659,25.3492192 C34.001963,25.43756 34.0132339,25.541496 33.9841847,25.6380295 C33.9360967,25.7996962 33.7853245,25.9108043 33.6140163,25.9108165 L33.6140163,25.9108165 Z M29.9955132,24.3022757 C29.8811142,24.3025796 29.7724801,24.2529369 29.6989596,24.166758 C29.6254392,24.0805791 29.5946193,23.9667569 29.6148264,23.8560421 L30.1724915,20.8664857 C30.2094505,20.659642 30.413738,20.5269963 30.6203414,20.5596359 C30.7211487,20.5772722 30.8106875,20.6335961 30.8692259,20.7161958 C30.9277644,20.7987954 30.9504983,20.9008915 30.9324177,20.9999854 L30.3747525,23.9895417 C30.341966,24.170288 30.1822389,24.302004 29.9955132,24.3022757 L29.9955132,24.3022757 Z M30.4190454,29.2939453 C30.3730156,29.2939453 30.3263103,29.2857854 30.2810524,29.2687066 C29.235394,28.8757984 27.5314224,28.6171488 26.4163815,28.4993048 C26.3145832,28.4885603 26.2213062,28.4384607 26.1571033,28.360045 C26.0929003,28.2816292 26.0630398,28.1813319 26.0741011,28.0812527 C26.0966818,27.8729857 26.2912229,27.7254435 26.4992738,27.7447046 C27.6798372,27.8691904 29.4495243,28.1434956 30.5569418,28.5601244 C30.7305146,28.6256804 30.8318869,28.8035934 30.7981034,28.9833738 C30.7643198,29.1631543 30.6049827,29.2937031 30.4190454,29.2939453 L30.4190454,29.2939453 Z M23.4084248,31.9999966 C23.2077288,31.9997942 23.0406722,31.8484049 23.0241324,31.6517412 C23.0075926,31.4550775 23.1470886,31.2787629 23.3450253,31.2461518 C25.1875688,30.9414843 27.7712213,30.9166251 29.6318101,31.042629 C29.8444062,31.0573226 30.0048751,31.2383109 29.9906883,31.4473975 C29.9756345,31.6564236 29.7840848,31.814308 29.5790254,31.8002654 C27.7832837,31.6779619 25.2568548,31.6998797 23.4731754,31.9948693 C23.4517779,31.998373 23.4301168,32.000087 23.4084248,31.9999966 L23.4084248,31.9999966 Z" id="Shape" fill="#BEDC88"></path>
                    <path d="M6.00946321,36.2720634 C6.97027036,34.3224934 8.10154329,32.3882743 9.124338,30.7533987 C10.7050207,28.2281682 12.0222563,26.4321077 12.0222563,26.4244322 C12.3166972,26.0176322 12.5956412,25.6338585 12.8590884,25.2731113 C17.120733,19.3553221 17.1362299,18.5647484 22.0797376,12.140378 C22.36643,11.7719553 22.6531225,11.4035326 22.9475634,11.0351099 C24.2725475,9.33883052 25.6285253,7.65790205 27,6 C24.5669884,11.3498043 22.8080914,15.8322802 21.6380762,18.9945749 C21.6380762,18.9945749 19.9024246,23.6689376 16.4156245,30.807127 C15.2471023,33.1976346 14.0303524,35.5647135 12.766107,37.906939 C12.766107,37.906939 12.766107,37.9146145 12.7583586,37.9146145 C12.0300048,39.2654976 11.2551603,40.6701091 10.4338252,42.1054224 C9.95342158,42.9573999 8.86863932,44.7918378 7.14848459,44.9837246 C6.179929,45.0911812 5.06415296,44.6613548 4.47527116,43.8477547 C3.68492979,42.7501621 4.05685514,41.253445 4.33579915,40.3477392 C4.73871828,39.0582599 5.32760008,37.6613239 6.00946321,36.2720634 L6.00946321,36.2720634 Z" id="Path" fill="#D5EF9C"></path>
                    <path d="M6.3707603,41 C6.33237357,41 6.29324507,40.9942028 6.25485834,40.981019 C6.16141885,40.9501157 6.08400937,40.8829962 6.03970524,40.794466 C5.99540111,40.7059358 5.98784243,40.6032688 6.01869652,40.5091116 C6.76302411,38.2165629 7.88378346,36.0663139 9.33423419,34.1480391 C9.4581102,33.9822591 9.69353025,33.9514967 9.85366039,34.0771642 C9.93201385,34.137115 9.98346959,34.226061 9.99665762,34.3243481 C10.0098457,34.4226352 9.98368034,34.5221725 9.92394333,34.6009655 C8.52409062,36.4535382 7.44208931,38.5296371 6.72291679,40.7429615 C6.67284703,40.8963064 6.53085548,41 6.3707603,41 L6.3707603,41 Z M8.3715062,40.5660547 C8.318298,40.5660547 8.26570456,40.5545834 8.21721751,40.5324872 C8.03112163,40.4462254 7.94918008,40.2244948 8.03390698,40.0364561 L9.20525849,37.453448 C9.29074778,37.2649469 9.51170326,37.1846282 9.69714639,37.2685935 C9.88324227,37.3548552 9.96518382,37.5765858 9.88045692,37.7646245 L8.70910541,40.3476327 C8.64863254,40.4807687 8.51672091,40.5661137 8.3715062,40.5660547 L8.3715062,40.5660547 Z" id="Shape" fill="#92C538"></path>
                </g>
            </g>
        </g>
    </g>
</svg>