<?xml version="1.0" encoding="UTF-8"?>
<svg width="45px" height="45px" viewBox="0 0 45 45" version="1.1" xmlns="http://www.w3.org/2000/svg" xmlns:xlink="http://www.w3.org/1999/xlink">
    <title>FlatFood-11</title>
    <g id="Homepage-V2" stroke="none" stroke-width="1" fill="none" fill-rule="evenodd">
        <g transform="translate(-240, -540)" fill-rule="nonzero" id="Group-6">
            <g transform="translate(223, 523)">
                <g id="FlatFood-11" transform="translate(17, 17)">
                    <path d="M41,37.7207207 L41,38.8018018 C41,41.7927928 39.388224,45 34.8894208,45 L10.1105792,45 C5.61177597,45 4,41.7927928 4,38.8018018 L4,37.7207207 C4,37.3243243 4.31881283,37 4.70847295,37 L40.291527,37 C40.6811872,37 41,37.3243243 41,37.7207207 Z" id="Path" fill="#EB573B"></path>
                    <path d="M41,14.3378641 L41,19.3009709 C41,19.6854369 40.6810345,20 40.2911877,20 L4.70881226,20 C4.31896552,20 4,19.6854369 4,19.3009709 L4,14.5475728 C4,14.1631068 4.31896552,13.8485437 4.70881226,13.8485437 C5.32902299,13.8485437 6.07327586,13.2893204 6.85296935,12.7126214 C7.91618774,11.9262136 9.12116858,11.0174757 10.6096743,11.0174757 C12.0095785,11.0174757 13.0019157,11.8213592 13.8524904,12.5378641 C14.7030651,13.2368932 15.4295977,13.831068 16.5105364,13.831068 C17.6800766,13.831068 18.8141762,13.1145631 19.9128352,12.3980583 C21.0292146,11.6815534 22.092433,11 23.2796935,11 C24.4846743,11 25.4415709,11.7339806 26.3453065,12.4330097 C27.2667625,13.1495146 28.1173372,13.8135922 29.2337165,13.8135922 C30.3500958,13.8135922 31.2538314,13.1495146 32.210728,12.4504854 C33.1853448,11.7339806 34.1954023,11 35.4712644,11 C36.8888889,11 38.1293103,11.9262136 39.2279693,12.7475728 C39.7418582,13.1320388 40.2203065,13.4815534 40.6278736,13.6737864 C40.8582375,13.831068 41,14.0757282 41,14.3378641 Z" id="Path" fill="#EB573B"></path>
                    <path d="M44.9966601,12.5950617 C44.7154293,14.945679 42.7819677,16 41.0066984,16 C40.6551599,16 40.3036214,15.9135802 39.9169291,15.7234568 C39.3896214,15.4641975 38.8623137,15.0666667 38.2998521,14.6518519 C37.3858521,13.9777778 36.3488136,13.2 35.4172366,13.2 C34.626275,13.2 33.8880442,13.7358025 33.026775,14.3753086 C31.9897365,15.1358025 30.7945056,16 29.2301594,16 C27.6306594,16 26.4881593,15.1185185 25.4862746,14.3407407 C24.71289,13.7358025 24.02739,13.217284 23.324313,13.217284 C22.5860822,13.217284 21.6896591,13.7876543 20.7580821,14.3753086 C19.5628513,15.1358025 18.1918513,16 16.627505,16 C15.0631588,16 14.0085434,15.1530864 13.0945433,14.3925926 C12.3211587,13.7530864 11.6532356,13.217284 10.7743894,13.217284 C9.77250474,13.217284 8.82335085,13.9259259 7.89177389,14.6 C6.96019692,15.291358 5.99346611,16 4.92127376,16 C2.84719675,16 0.456735105,13.6320988 0.193081248,13.3555556 C0.0348889331,13.182716 -0.0354187623,12.9580247 0.0173120092,12.7160494 C0.0700427807,12.491358 0.228235095,12.3012346 0.456735105,12.2148148 C2.3726198,11.4888889 3.28661984,10.6765432 3.19873522,9.76049383 C3.1811583,9.57037037 3.251466,9.38024691 3.37450446,9.22469136 C3.51511985,9.08641975 3.69088909,9 3.90181218,9 L41.0066984,9 C41.3933907,9 41.7097753,9.31111111 41.7097753,9.67407407 C41.7097753,10.3654321 42.0085831,11.3506173 44.4341985,11.8 C44.785737,11.9037037 45.031814,12.2320988 44.9966601,12.5950617 Z" id="Path" fill="#F9F6CD"></path>
                    <path d="M41.5170944,7.82339956 C41.306184,8 41.0073941,8.05298013 40.7613319,7.92935982 C40.6910284,7.89403974 40.603149,7.8410596 40.5504214,7.78807947 L4.44957858,7.78807947 C4.39685096,7.8410596 4.32654747,7.89403974 4.2386681,7.92935982 C4.15078874,7.96467991 4.0453335,8 3.93987826,8 C3.76411954,8 3.60593668,7.94701987 3.48290557,7.82339956 C2.11198749,6.62251656 1.63743892,4.62693157 2.28774622,2.86092715 C2.95562938,1.07726269 4.59018556,0 6.66413856,0 L38.3358614,0 C40.4098144,0 42.0443706,1.05960265 42.7122538,2.84326711 C43.3625611,4.62693157 42.8880125,6.62251656 41.5170944,7.82339956 Z" id="Path" fill="#F9F6CD"></path>
                    <path d="M41,7.73059361 L41,10.2694064 C41,10.6712329 40.6876712,11 40.3059361,11 L3.69406393,11 C3.31232877,11 3,10.6712329 3,10.2694064 L3,7.73059361 C3,7.32876712 3.31232877,7 3.69406393,7 L40.3232877,7 C40.6876712,7 41,7.32876712 41,7.73059361 Z" id="Path" fill="#F6D67A"></path>
                    <path d="M41,19.7326007 L41,38.2673993 C41,38.6703297 40.6810345,39 40.2911877,39 L4.70881226,39 C4.31896552,39 4,38.6703297 4,38.2673993 L4,19.7326007 C4,19.3296703 4.31896552,19 4.70881226,19 L40.308908,19 C40.6810345,19 41,19.3296703 41,19.7326007 Z" id="Path" fill="#F9F6CD"></path>
                    <path d="M26.0650167,32.6545455 C24.8276408,34.1818182 21.8069879,35 19.6051868,35 C18.6953516,35 17.4579757,34.8545455 16.8028944,34.2 C16.0386328,33.4363636 15.9476493,31.9636364 16.0204361,30.8545455 C16.1296163,28.7454545 16.8938779,26.1090909 18.3678109,24.9272727 C19.1320725,24.3090909 19.9873176,24 20.9153495,24 C21.2428901,24 21.5704308,24.0363636 21.8979715,24.1090909 C22.1345286,24.1636364 22.3164957,24.3272727 22.4074792,24.5454545 C22.5348561,24.8727273 23.0443638,25.3636364 24.6820672,25.8181818 C24.8822309,25.8727273 25.064198,26.0181818 25.1551815,26.2181818 L25.3189518,26.5818182 C25.7010826,27.4181818 26.2105903,28.5454545 26.5745244,28.7636364 C26.7564914,28.8727273 26.8838684,29.0363636 26.9202618,29.2545455 C27.1568189,30.4727273 26.8656716,31.6545455 26.0650167,32.6545455 Z" id="Path" fill="#EB573B"></path>
                    <path d="M26.0209443,29.9831126 C25.9172383,29.9831126 25.8135323,29.9662252 25.7271106,29.9155629 C25.7098263,29.9155629 25.692542,29.8986755 25.6752577,29.8986755 L25.6752577,29.8986755 C24.9320315,29.4764899 24.4307859,28.3956948 23.912256,27.2642375 L23.8949717,27.2135752 C22.3566664,26.7576148 21.4751656,26.1496676 21.129479,25.3221839 C21.077626,25.1870845 21.0430573,25.0519851 21.0084886,24.9168858 C20.9566357,24.5960247 21.1467633,24.2751637 21.4578812,24.1738391 C22.0109798,23.9711901 22.6332156,24.0387398 23.2900202,24.3764882 C23.3937261,24.0387398 23.5492851,23.6841039 23.7912657,23.3125806 C23.8949717,23.1437064 24.0850993,23.0254944 24.2925113,23.008607 C24.4999232,22.9748321 24.7073352,23.0423818 24.8456098,23.1774812 C25.744395,23.9880775 25.8999539,24.8155612 25.8308166,25.4572833 C27.2999846,25.5417204 27.6456712,25.9807934 27.7666615,26.1327802 C27.9740735,26.3860915 28.0432108,26.7069526 27.9740735,27.0278136 C27.9395048,27.1966878 27.8357989,27.3317872 27.6975242,27.4331117 C27.4382593,27.6188734 27.0752884,27.7201979 26.5913271,27.7370854 C26.8678764,28.4463571 26.9024451,29.0711917 26.6950331,29.5947019 C26.6086115,29.8142383 26.4184838,29.9662252 26.1937875,30 C26.1073659,29.9831126 26.0727972,29.9831126 26.0209443,29.9831126 Z" id="Path" fill="#009345"></path>
                    <path d="M25.7423631,27 C25.5364226,27 25.3304821,26.9411961 25.1994291,26.8088873 C24.9186012,26.5736717 24.937323,26.1914463 25.2368728,25.9709316 C25.6674756,25.6622111 26.9780059,24.7066476 28.4757549,25.088873 C28.868914,25.1917799 29.0935763,25.5152013 28.9625233,25.8239219 C28.8314702,26.1326424 28.4195893,26.3090541 28.0264302,26.2061473 C27.8579334,26.1620443 27.3524432,26.0444365 26.2665752,26.8382893 C26.0980784,26.9558971 25.9295817,27 25.7423631,27 Z" id="Path" fill="#008438"></path>
                </g>
            </g>
        </g>
    </g>
</svg>