<?xml version="1.0" encoding="UTF-8"?>
<svg width="48px" height="44px" viewBox="0 0 48 44" version="1.1" xmlns="http://www.w3.org/2000/svg" xmlns:xlink="http://www.w3.org/1999/xlink">
    <title>FlatFood-62</title>
    <g id="Homepage-V2" stroke="none" stroke-width="1" fill="none" fill-rule="evenodd">
        <g transform="translate(-336, -538)" fill-rule="nonzero" id="Group-7">
            <g transform="translate(321, 523)">
                <g id="FlatFood-62" transform="translate(15, 15)">
                    <path d="M48,21.7292605 L48,29.0031662 C48,29.3210489 47.79375,29.6202327 47.475,29.7137276 C47.04375,29.8446205 4.55625,43.3826866 3.09375,43.8314623 C2.7375,43.9436562 2.41875,43.9997532 2.1,43.9997532 C0.73125,44.0184522 0,42.9713089 0,41.9802627 L0,36.5388576 C0,36.2209749 0.20625,35.9217911 0.525,35.8282962 L47.025,21.037398 C47.25,20.962602 47.5125,21 47.7,21.1495919 C47.8875,21.2991838 48,21.5048726 48,21.7292605 Z" id="Path" fill="#F5B31F"></path>
                    <path d="M48,12.8960953 L48,14.9900728 C48,15.3236267 47.79375,15.6015884 47.475,15.6942422 L0.975,29.9629385 C0.9,29.9814692 0.825,30 0.75,30 C0.6,30 0.43125,29.9444077 0.3,29.8517538 C0.1125,29.7035076 0,29.4996691 0,29.258769 L0,27.2945069 C0,26.794176 0,26.0344143 7.5375,18.3256122 C11.60625,14.1932495 16.55625,9.35671741 19.8375,6.15089345 C21.675,4.37193911 22.9875,3.07478491 23.45625,2.59298478 C23.83125,2.20383852 24.45,2 25.3125,2 C28.3125,2 34.3125,4.26075447 38.53125,6.20648577 C41.04375,7.35539378 43.33125,8.57842488 44.94375,9.63467902 C47.64375,11.3951026 48,12.3031105 48,12.8960953 Z" id="Path" fill="#AC6535"></path>
                    <path d="M48,15.7388797 L48,22.2561779 C48,22.5782537 47.79375,22.8813839 47.475,22.976112 L0.975,37.9621087 C0.9,37.9810544 0.825,38 0.75,38 C0.6,38 0.43125,37.9431631 0.3,37.8484349 C0.1125,37.6968699 0,37.4695222 0,37.2421746 L0,30.3459638 C0,30.0049423 0.20625,29.7207578 0.525,29.6260297 L47.025,15.0378913 C47.25,14.9621087 47.49375,15 47.7,15.1515651 C47.8875,15.2652389 48,15.4925865 48,15.7388797 Z" id="Path" fill="#F6D67A"></path>
                    <path d="M34.4317035,1.44662062 C31.4468102,2.23864089 29.0666991,3.80426235 27.1938249,6.23558037 C30.2957729,6.8249908 32.6563748,9.44049958 32.6563748,12.5533234 C32.6563748,16.1082051 29.593445,19 25.8281874,19 C22.0629298,19 19,16.1082051 19,12.5533234 C19,9.14579437 21.8288205,6.34609483 25.3989871,6.12506591 C27.5449888,2.993823 30.3738093,1.0045628 34.0220123,0.028351777 C34.4317035,-0.0821626787 34.8609039,0.138866233 34.9779585,0.544085903 C35.0755041,0.930886498 34.8413948,1.33610617 34.4317035,1.44662062 Z" id="Path" fill="#EB573B"></path>
                </g>
            </g>
        </g>
    </g>
</svg>