<?xml version="1.0" encoding="UTF-8"?>
<svg width="240.000597px" height="130.002438px" viewBox="0 0 240.000597 130.002438" version="1.1" xmlns="http://www.w3.org/2000/svg" xmlns:xlink="http://www.w3.org/1999/xlink">
    <title>ecoscore-b</title>
    <g id="ecoscore-b" stroke="none" stroke-width="1" fill="none" fill-rule="evenodd" transform="translate(0, 0)">
        <path d="M0,20.6817547 C0,9.27721904 9.68105612,0 21.5776993,0 L218.427312,0 C230.321748,0 240.000597,9.2794258 240.000597,20.6817547 L240.000597,109.318477 C240.000597,120.723013 230.321748,130.000232 218.427312,130.000232 L21.5754925,130.000232 C9.68105612,130.000232 0,120.720806 0,109.318477 L0,20.6817547 Z" id="Path" fill="#FFFFFF" fill-rule="nonzero" transform="translate(120.0003, 65.0001) scale(-1, 1) rotate(-180) translate(-120.0003, -65.0001)"></path>
        <path d="M2.34799264,20.6839615 C2.34799264,10.6674778 10.8837403,2.3501994 21.5776993,2.3501994 L218.427312,2.3501994 C229.121271,2.3501994 237.654811,10.6696846 237.654811,20.6839615 L237.654811,109.320684 C237.654811,119.337167 229.121271,127.654446 218.427312,127.654446 L21.5754925,127.654446 C10.8815336,127.654446 2.34799264,119.334961 2.34799264,109.320684 L2.34799264,20.6839615 Z M21.5776993,0.00220676 C9.68326288,0.00220676 0,9.2794258 0,20.6839615 L0,109.320684 C0,120.723013 9.67884936,130.002438 21.5754925,130.002438 L218.427312,130.002438 C230.321748,130.002438 240.000597,120.725219 240.000597,109.320684 L240.000597,20.6817547 C240.000597,9.2794258 230.321748,0 218.427312,0 L21.5776993,0.00220676 Z" id="Shape" fill="#2ECC71" transform="translate(120.0003, 65.0012) scale(-1, 1) rotate(-180) translate(-120.0003, -65.0012)"></path>
        <path d="M148.954093,89.484118 L122.812814,89.484118 C123.638143,83.4309753 128.821822,80.3701992 133.930471,80.3701992 C141.442282,80.3701992 145.198188,84.0157667 145.198188,84.0157667 L145.198188,76.7246317 C145.198188,76.7246317 141.442282,73.0768574 133.930471,73.0768574 C122.662755,73.0768574 115.150944,80.3679924 115.150944,91.3091085 C115.150944,102.250225 122.662755,109.543566 132.054725,109.543566 C141.444489,109.543566 148.9563,102.252431 148.9563,91.3091085 L148.9563,89.484118 L148.954093,89.484118 Z M123.037904,94.9568828 L141.067133,94.9568828 C140.014508,99.8404427 136.633752,102.248018 132.050312,102.248018 C127.469078,102.248018 124.090528,99.8404427 123.037904,94.954676 L123.037904,94.9568828 Z M179.105055,107.718576 L179.105055,100.425234 C179.105055,100.425234 173.63229,102.250225 169.98893,102.250225 C164.516165,102.250225 159.05002,98.6024503 159.05002,91.3091085 C159.05002,84.0179735 164.520578,80.3701992 169.98893,80.3701992 C173.636704,80.3701992 179.102848,82.1951897 179.102848,82.1951897 L179.102848,74.8996412 C179.102848,74.8996412 175.457281,73.0768574 169.98893,73.0768574 C159.05002,73.0768574 151.754472,80.3679924 151.754472,91.3091085 C151.754472,102.250225 159.05002,109.543566 169.98893,109.543566 C175.457281,109.543566 179.102848,107.718576 179.102848,107.718576 L179.105055,107.718576 Z M218.341248,91.3069018 C218.341248,80.3679924 211.047906,73.0746506 200.108997,73.0746506 C189.167881,73.0746506 181.874539,80.3657857 181.874539,91.3069018 C181.874539,102.248018 189.167881,109.54136 200.108997,109.54136 C211.047906,109.54136 218.341248,102.248018 218.341248,91.3069018 L218.341248,91.3069018 Z M189.167881,91.3069018 C189.167881,84.0157667 194.640646,80.3679924 200.108997,80.3679924 C205.579555,80.3679924 211.047906,84.0157667 211.047906,91.3069018 C211.047906,98.6024503 205.575141,102.248018 200.108997,102.248018 C194.638439,102.248018 189.167881,98.6024503 189.167881,91.3069018 Z M123.172516,19.3223906 C119.458539,19.3223906 115.746769,20.5581762 115.746769,20.5581762 L115.746769,25.5079388 C115.746769,25.5079388 119.458539,24.2721532 123.172516,24.2721532 C125.644087,24.2721532 126.884286,25.5079388 126.884286,26.7437244 C126.884286,30.4577015 115.166391,27.9839236 115.166391,36.6454566 C115.166391,41.5930125 118.222753,44.071204 123.172516,44.071204 C126.886493,44.071204 130.60047,42.8310048 130.60047,42.8310048 L130.60047,37.8834489 C130.60047,37.8834489 126.886493,39.1192345 123.172516,39.1192345 C120.700945,39.1192345 119.460746,37.8834489 119.460746,36.6476633 C119.460746,32.9336862 131.836256,35.409671 131.836256,26.7459312 C131.834049,21.7961685 128.120072,19.3201838 123.172516,19.3201838 L123.172516,19.3223906 Z M151.880257,42.8310048 L151.880257,37.8834489 C151.880257,37.8834489 148.168487,39.1192345 145.692502,39.1192345 C141.980732,39.1192345 138.266755,36.6476633 138.266755,31.6956939 C138.266755,26.7459312 141.980732,24.2699465 145.692502,24.2699465 C148.168487,24.2699465 151.880257,25.5079388 151.880257,25.5079388 L151.880257,20.5603829 C151.880257,20.5603829 149.406479,19.3201838 145.692502,19.3201838 C138.266755,19.3201838 133.319199,24.2699465 133.319199,31.6956939 C133.319199,39.1214413 138.266755,44.071204 145.692502,44.071204 C149.406479,44.071204 151.880257,42.8310048 151.880257,42.8310048 Z M178.661496,31.6956939 C178.661496,24.2699465 173.711734,19.3201838 166.285986,19.3201838 C158.860239,19.3201838 153.910476,24.2699465 153.910476,31.6956939 C153.910476,39.1214413 158.860239,44.071204 166.285986,44.071204 C173.711734,44.071204 178.661496,39.1214413 178.661496,31.6956939 Z M158.860239,31.6956939 C158.860239,26.7459312 162.572009,24.2699465 166.285986,24.2699465 C169.999963,24.2699465 173.711734,26.7437244 173.711734,31.6956939 C173.711734,36.6454566 169.999963,39.1214413 166.285986,39.1214413 C162.572009,39.1214413 158.860239,36.6454566 158.860239,31.6956939 Z M195.638101,44.071204 L195.638101,39.1214413 C190.688338,39.1214413 185.736369,37.8834489 185.736369,31.6956939 L185.736369,19.3201838 L180.788813,19.3201838 L180.788813,44.071204 L185.736369,44.071204 L185.736369,34.1694718 C185.738576,40.3572269 189.450346,44.071204 195.638101,44.071204 Z M218.160294,30.4577015 L200.934325,30.4577015 C201.479395,26.3487144 204.895459,24.2699465 208.260768,24.2699465 C213.210531,24.2699465 215.686516,26.7437244 215.686516,26.7437244 L215.686516,21.7961685 C215.686516,21.7961685 213.210531,19.3201838 208.260768,19.3201838 C200.835021,19.3201838 195.885258,24.2699465 195.885258,31.6956939 C195.885258,39.1214413 200.835021,44.071204 207.022776,44.071204 C213.210531,44.071204 218.158087,39.1214413 218.158087,31.6956939 L218.158087,30.4577015 L218.160294,30.4577015 Z M201.082178,34.1694718 L212.963374,34.1694718 C212.270451,37.4862321 210.04383,39.1192345 207.024983,39.1192345 C204.001721,39.1192345 201.777307,37.4862321 201.082178,34.1694718 Z" id="Shape" fill="#1D1D1B" fill-rule="nonzero" transform="translate(166.7461, 64.4319) scale(-1, 1) rotate(-180) translate(-166.7461, -64.4319)"></path>
        <path d="M221.417471,70.0337354 C221.417471,74.3369174 217.928584,77.8235982 213.627609,77.8235982 L191.169412,77.8235982 C186.917694,77.7520396 183.508468,74.2849517 183.508468,70.032632 C183.508468,65.7803123 186.917694,62.3132244 191.169412,62.2416658 L213.623195,62.2416658 C217.925775,62.2416658 221.414046,65.7289492 221.415265,70.0315286 L221.417471,70.0337354 Z" id="Path" fill="#D93726" fill-rule="nonzero" transform="translate(202.463, 70.0326) scale(-1, 1) rotate(-180) translate(-202.463, -70.0326)"></path>
        <path d="M222.39948,70.0337354 C222.3934,65.1916851 218.469659,61.2679435 213.627609,61.2618644 L191.173826,61.2618644 C186.331775,61.2679435 182.408034,65.1916851 182.401955,70.0337354 C182.409249,74.8749238 186.332635,78.7973232 191.173826,78.8033996 L213.627609,78.8033996 C218.468799,78.7973232 222.392185,74.8749238 222.39948,70.0337354 L222.39948,70.0337354 Z M213.627609,63.223674 C217.386685,63.228537 220.432807,66.2746585 220.43767,70.0337354 C220.431592,73.7919504 217.385825,76.8367299 213.627609,76.84159 L191.173826,76.84159 C187.415609,76.8367299 184.369842,73.7919504 184.363764,70.0337354 C184.368627,66.2746585 187.414749,63.228537 191.173826,63.223674 L213.627609,63.223674 Z" id="Shape" fill="#FFFFFF" fill-rule="nonzero" transform="translate(202.4007, 70.0326) scale(-1, 1) rotate(-180) translate(-202.4007, -70.0326)"></path>
        <path d="M200.817367,70.0337354 C200.817367,74.3369174 197.330686,77.8235982 193.027504,77.8235982 L171.471872,77.8235982 C167.220155,77.7520396 163.810929,74.2849517 163.810929,70.032632 C163.810929,65.7803123 167.220155,62.3132244 171.471872,62.2416658 L193.027504,62.2416658 C197.328717,62.2441007 200.814932,65.7303151 200.817367,70.0315286 L200.817367,70.0337354 Z" id="Path" fill="#EF7E1A" fill-rule="nonzero" transform="translate(182.3141, 70.0326) scale(-1, 1) rotate(-180) translate(-182.3141, -70.0326)"></path>
        <path d="M201.797168,70.0337354 C201.791092,65.1925452 197.868692,61.2691588 193.027504,61.2618644 L171.513801,61.2618644 C166.672612,61.2691588 162.750213,65.1925452 162.744136,70.0337354 C162.751428,74.8740637 166.673472,78.7961081 171.513801,78.8033996 L193.027504,78.8033996 C197.867832,78.7961081 201.789877,74.8740637 201.797168,70.0337354 L201.797168,70.0337354 Z M193.027504,63.223674 C196.786581,63.228537 199.832702,66.2746585 199.837565,70.0337354 C199.831487,73.7919504 196.785721,76.8367299 193.027504,76.84159 L171.513801,76.84159 C167.755584,76.8367299 164.709817,73.7919504 164.703739,70.0337354 C164.708602,66.2746585 167.754724,63.228537 171.513801,63.223674 L193.027504,63.223674 Z" id="Shape" fill="#FFFFFF" fill-rule="nonzero" transform="translate(182.2707, 70.0326) scale(-1, 1) rotate(-180) translate(-182.2707, -70.0326)"></path>
        <path d="M181.422153,70.0337354 C181.422153,74.3369174 177.935472,77.8235982 173.63229,77.8235982 L151.858189,77.8235982 C147.555358,77.8235982 144.067223,74.3354638 144.067223,70.032632 C144.067223,65.7298002 147.555358,62.2416658 151.858189,62.2416658 L173.63229,62.2416658 C177.933504,62.2441007 181.419718,65.7303151 181.422153,70.0315286 L181.422153,70.0337354 Z" id="Path" fill="#F5C100" fill-rule="nonzero" transform="translate(162.7447, 70.0326) scale(-1, 1) rotate(-180) translate(-162.7447, -70.0326)"></path>
        <path d="M182.401955,70.0337354 C182.395878,65.1925452 178.473479,61.2691588 173.63229,61.2618644 L151.858189,61.2618644 C147.016139,61.2679435 143.092398,65.1916851 143.086318,70.0337354 C143.0924,74.8754273 147.016496,78.7985362 151.858189,78.8033996 L173.63229,78.8033996 C178.472619,78.7961081 182.394663,74.8740637 182.401955,70.0337354 L182.401955,70.0337354 Z M173.63229,63.223674 C177.390505,63.2297521 180.435285,66.2755185 180.440145,70.0337354 C180.43407,73.7910904 177.389645,76.835515 173.63229,76.84159 L151.858189,76.84159 C148.099973,76.8367299 145.054206,73.7919504 145.048128,70.0337354 C145.052991,66.2746585 148.099113,63.228537 151.858189,63.223674 L173.63229,63.223674 Z" id="Shape" fill="#FFFFFF" fill-rule="nonzero" transform="translate(162.7441, 70.0326) scale(-1, 1) rotate(-180) translate(-162.7441, -70.0326)"></path>
        <path d="M161.764335,70.0337354 C161.764335,74.3369174 158.275447,77.8235982 153.974472,77.8235982 L132.198165,77.8235982 C127.946447,77.7520396 124.537221,74.2849517 124.537221,70.032632 C124.537221,65.7803123 127.946447,62.3132244 132.198165,62.2416658 L153.972265,62.2416658 C158.273479,62.2441007 161.759693,65.7303151 161.762128,70.0315286 L161.764335,70.0337354 Z" id="Path" fill="#2ECC71" fill-rule="nonzero" transform="translate(143.1508, 70.0326) scale(-1, 1) rotate(-180) translate(-143.1508, -70.0326)"></path>
        <path d="M162.744136,70.0337354 C162.738057,65.1916851 158.814316,61.2679435 153.972265,61.2618644 L132.198165,61.2618644 C127.356473,61.267946 123.433364,65.1920421 123.4285,70.0337354 C123.434579,74.8745669 127.357333,78.7973204 132.198165,78.8033996 L153.972265,78.8033996 C158.813456,78.7973232 162.736842,74.8749238 162.744136,70.0337354 L162.744136,70.0337354 Z M153.972265,63.223674 C157.731342,63.228537 160.777464,66.2746585 160.782327,70.0337354 C160.776249,73.7919504 157.730482,76.8367299 153.972265,76.84159 L132.198165,76.84159 C128.440809,76.835515 125.396385,73.7910904 125.39031,70.0337354 C125.39517,66.2755185 128.43995,63.2297521 132.198165,63.223674 L153.972265,63.223674 Z" id="Shape" fill="#FFFFFF" fill-rule="nonzero" transform="translate(143.0863, 70.0326) scale(-1, 1) rotate(-180) translate(-143.0863, -70.0326)"></path>
        <path d="M142.135205,70.0337354 C142.135205,74.3369174 138.648524,77.8235982 134.345342,77.8235982 L119.619633,77.8235982 C115.367915,77.7520396 111.958689,74.2849517 111.958689,70.032632 C111.958689,65.7803123 115.367915,62.3132244 119.619633,62.2416658 L134.345342,62.2416658 C138.646556,62.2441007 142.13277,65.7303151 142.135205,70.0315286 L142.135205,70.0337354 Z" id="Path" fill="#1E8F4E" fill-rule="nonzero" transform="translate(127.0469, 70.0326) scale(-1, 1) rotate(-180) translate(-127.0469, -70.0326)"></path>
        <path d="M143.115006,70.0315286 C143.108927,65.1906971 139.186174,61.2679435 134.345342,61.2618644 L119.619633,61.2618644 C114.777939,61.2667278 110.853843,65.1898367 110.847762,70.0315286 C110.852627,74.8740823 114.777079,78.7985339 119.619633,78.8033996 L134.345342,78.8033996 C139.187034,78.797318 143.110143,74.8732219 143.115006,70.0315286 L143.115006,70.0315286 Z M134.345342,63.223674 C138.103559,63.2285341 141.149325,66.2733135 141.155403,70.0315286 C141.15054,73.7906055 138.104419,76.836727 134.345342,76.84159 L119.619633,76.84159 C115.860556,76.836727 112.814434,73.7906055 112.809571,70.0315286 C112.815649,66.2733135 115.861416,63.2285341 119.619633,63.223674 L134.345342,63.223674 Z" id="Shape" fill="#FFFFFF" fill-rule="nonzero" transform="translate(126.9814, 70.0326) scale(-1, 1) rotate(-180) translate(-126.9814, -70.0326)"></path>
        <path d="M101.453584,108.090414 C103.042451,108.222819 104.518774,106.748704 104.384162,105.159837 C104.185553,102.893494 101.367521,51.4097832 84.8918504,34.934113 C69.1024826,19.1441781 50.4950823,22.8498953 38.3446618,31.5842514 C38.1777186,31.7054407 38.0136378,31.8305248 37.8525543,31.9594006 L26.8981976,21.0249048 C24.2360299,18.4773088 20.0261588,18.5235945 17.4206471,21.1291062 C14.8151354,23.7346178 14.7688498,27.9444889 17.3164457,30.6066567 L28.255355,41.5565998 C28.1248807,41.7182975 27.9983231,41.8831168 27.8757923,42.050914 C19.143643,54.2013346 15.4357191,72.8065282 31.2278608,88.5981027 C47.7035309,105.07598 99.1872417,107.896219 101.453584,108.088207 L101.453584,108.090414 Z" id="Path" fill="#2ECC71" fill-rule="nonzero" transform="translate(59.9142, 63.6214) scale(-1, 1) rotate(-180) translate(-59.9142, -63.6214)"></path>
        <path d="M63.7621234,42.7758358 C72.0683681,42.7758358 77.2233594,47.0657773 77.2233594,53.9177671 C77.2233594,59.0683449 73.3372551,62.9257614 68.0498581,63.3295985 L68.0498581,63.545861 C72.1764993,64.1659605 75.360854,67.7276712 75.360854,71.9889247 C75.360854,77.9493835 70.7752067,81.6986687 63.4664176,81.6986687 L50.5988,81.6986687 C48.0367517,81.6986687 46.5251211,80.1340759 46.5251211,77.4638963 L46.5251211,47.0415029 C46.5251211,44.3426354 48.0367517,42.7780426 50.5988,42.7780426 L63.7621234,42.7758358 Z M60.5248065,65.5142909 L54.672479,65.5142909 L54.672479,75.6300787 L61.3589618,75.6300787 C65.163416,75.6300787 67.3481084,73.8492234 67.3481084,70.7200377 C67.3481084,67.4319653 64.8677102,65.5142909 60.5248065,65.5142909 Z M61.6855623,48.8466326 L54.672479,48.8466326 L54.672479,60.1474506 L61.4957809,60.1474506 C66.2976907,60.1474506 68.9127013,58.2055018 68.9127013,54.5643478 C68.9127013,50.8415436 66.377134,48.8466326 61.6855623,48.8466326 Z" id="Shape" fill="#FFFFFF" fill-rule="nonzero" transform="translate(61.8742, 62.2373) scale(-1, 1) rotate(-180) translate(-61.8742, -62.2373)"></path>
    </g>
</svg>