<?xml version="1.0" encoding="UTF-8"?>
<svg width="53px" height="48px" viewBox="0 0 53 48" version="1.1" xmlns="http://www.w3.org/2000/svg" xmlns:xlink="http://www.w3.org/1999/xlink">
    <title>Eye</title>
    <g id="Homepage-V2" stroke="none" stroke-width="1" fill="none" fill-rule="evenodd" opacity="0.8">
        <g id="Homepage-V2-search" transform="translate(-191, -262)" fill-rule="nonzero">
            <g id="Eye" transform="translate(191, 262)">
                <path d="M2.8964616,35.0267959 C9.1609316,46.4890959 23.5946116,50.7192959 35.0658116,44.4617959 C36.8573116,43.4831959 38.4771116,42.3057959 39.9017116,40.9723959 L48.4924116,47.8302959 L52.2433116,43.1400959 L43.7268116,36.3406959 C48.1685116,29.3033959 48.7773116,20.1334959 44.5113116,12.3281959 C38.2468116,0.865885944 23.8131116,-3.36426406 12.3419116,2.89323594 C0.866841599,9.15069594 -3.3680084,23.5682959 2.8964616,35.0267959 Z M8.1695416,32.1494959 C3.4936316,23.5955959 6.6551416,12.8311959 15.2224116,8.16045594 C23.7858116,3.48975594 34.5623116,6.64773594 39.2382116,15.2054959 C43.9141116,23.7593959 40.7526116,34.5237959 32.1853116,39.1944959 C23.6219116,43.8652959 12.8454116,40.7072959 8.1695416,32.1494959 Z" id="Shape" fill="#000000"></path>
                <path d="M12.7050116,25.3149959 C14.8985116,29.3307959 19.9569116,30.8122959 23.9771116,28.6211959 C27.9973116,26.4300959 29.4805116,21.3772959 27.2869116,17.3615959 C25.0934116,13.3458959 20.0350116,11.8642959 16.0148116,14.0553959 C11.9946116,16.2464959 10.5114116,21.2992959 12.7050116,25.3149959 Z" id="Path" fill="#000000"></path>
                <path d="M12.6152116,18.6089959 C13.5597116,20.3400959 15.7415116,20.9794959 17.4745116,20.0320959 C19.2075116,19.0885959 19.8476116,16.9091959 18.8992116,15.1780959 C17.9546116,13.4470959 15.7728116,12.8076959 14.0398116,13.7550959 C12.3068116,14.6985959 11.6667116,16.8779959 12.6152116,18.6089959 Z" id="Path" fill="#FFFFFF"></path>
            </g>
        </g>
    </g>
</svg>