<?xml version="1.0" encoding="UTF-8"?>
<svg width="123px" height="132px" viewBox="0 0 123 132" version="1.1" xmlns="http://www.w3.org/2000/svg" xmlns:xlink="http://www.w3.org/1999/xlink">
    <title>Illustrations - Planet settings</title>
    <g id="Homepage-V2" stroke="none" stroke-width="1" fill="none" fill-rule="evenodd">
        <g id="Homepage-V2-search---Error" transform="translate(-153, -219)" fill-rule="nonzero">
            <g id="Illustrations---Planet-settings" transform="translate(153, 219)">
                <path d="M106.530365,15.5835108 L109.180182,12.9431997 C109.62599,12.4991081 109.62599,11.7772123 109.180182,11.3330687 C108.734375,10.8889771 108.010133,10.8889771 107.564325,11.3330687 L95.1416749,23.7112501 C94.6963887,24.1553937 94.6963887,24.8772895 95.1416749,25.3213811 C95.3658822,25.5444672 95.6568303,25.6559842 95.9498641,25.6559842 C96.2428979,25.6559842 96.5359316,25.5444672 96.7575319,25.3213811 L101.523763,20.5721291 C121.01833,40.9786519 120.713303,73.2704758 100.608163,93.3040094 L100.598256,93.3144122 C80.4931147,113.347426 48.0857174,113.651705 27.6063066,94.2267296 L32.3725374,89.4773736 C32.8182407,89.033178 32.8182407,88.3112301 32.3725374,87.8675546 C31.9268341,87.423359 31.2023316,87.423359 30.7566804,87.8675546 L18.3342384,100.245736 C17.8885872,100.689411 17.8885872,101.411359 18.3342384,101.855555 C18.5581329,102.078693 18.8491331,102.190002 19.1422191,102.190002 C19.4352528,102.190002 19.7283387,102.078693 19.9501476,101.855555 L22.5998611,99.2153479 C33.7869729,109.890086 48.1345737,115.353068 62.5596565,115.612615 L62.5596565,122.331204 L56.419504,122.331204 C51.0611051,122.331204 46.7161234,126.66081 46.7161234,132 L80.6844731,132 C80.6844731,126.66081 76.3395435,122.331204 70.9809882,122.331204 L64.8429214,122.331204 L64.8429214,115.608974 C79.6280916,115.310417 94.3214931,109.543156 105.604336,98.3030304 L105.614764,98.2926277 C128.485477,75.5034169 128.790503,38.7459708 106.53245,15.5814823 L106.530365,15.5835108 Z" id="Path" fill="#784600"></path>
                <path d="M66.0384469,91.1590432 C72.0912094,83.3375423 89.1182993,91.9595257 82.3005133,74.3874496 C75.4822086,56.8153734 99.1045793,55.030563 106.380342,58.3929021 C108.532263,59.388167 110.645802,60.9391345 112.649904,62.8786251 C112.878634,60.9516339 113,58.9902694 113,57.0023436 C113,54.0780043 112.743263,51.2131935 112.25313,48.4293683 C97.5823122,43.8546392 94.8007385,31.9599477 87.1712495,36.7559683 C79.3690468,41.6616712 68.7105833,31.6106936 69.6177197,24.4470779 C70.3059816,19.0093692 73.6139952,11.9087193 71.98644,8.63148021 C69.4335954,8.21926035 66.8159183,8 64.1458565,8 C57.8073123,8 51.7505043,9.2121816 46.1935808,11.4153054 C49.3921053,21.3343101 52.0015358,26.4734914 44.0132897,32.5142441 C34.1849416,39.947951 26.385021,34.973189 26.385021,46.2628052 C26.385021,57.5523173 33.7962578,62.2489677 26.385021,69.2908184 C24.2856927,71.2865562 21.2774645,72.4948318 18,73.1083441 C19.5385531,77.542507 21.6924963,81.6891837 24.3626618,85.4395251 C35.0756883,77.1284643 47.5964525,89.4393338 51.0075238,95.6161217 C52.4894911,98.2988059 52.1980042,101.30387 51.1674786,104.248 C55.3011471,105.387008 59.653742,106 64.1479311,106 C65.1520569,106 66.1458095,105.965627 67.1359315,105.906775 C64.2651483,99.9414356 63.3948368,94.5724216 66.0363723,91.1590432 L66.0384469,91.1590432 Z M55.9007181,84.050529 C50.232179,85.2749496 49.0054443,69.4918504 45.54982,62.4296882 C42.0941958,55.3654428 37.3267766,50.1938672 41.4018365,45.844544 C45.4769483,41.4951687 49.6107205,45.844544 56.5646029,40.3154855 C64.0021877,34.4046745 70.5855393,40.5205278 71.8183942,46.1511439 C73.0512491,51.7817079 68.346484,57.8913636 67.3242051,60.8927826 C66.6437231,62.8932077 66.5285806,66.1690927 66.9777402,70.7204375 C67.6519982,77.5466735 61.5665602,82.8261084 55.8986435,84.050529 L55.9007181,84.050529 Z" id="Shape" fill="#78E6FF"></path>
                <path d="M69.0546607,23.8946863 C68.1409301,31.0950496 78.8768731,41.1975862 86.7352699,36.2667183 C94.4207423,31.4440537 97.2225361,43.3997621 112,48 C108.380603,27.4683275 92.0536105,11.3287049 71.4421672,8 C73.0815536,11.2940505 69.749493,18.4311251 69.056228,23.8967279 L69.0546607,23.8946863 Z" id="Path" fill="#009664"></path>
                <path d="M66.9849084,70.664556 C66.5368184,66.1349749 66.6512902,62.8743815 67.3288394,60.8832941 C68.3436164,57.8958856 73.022522,51.8146974 71.7968488,46.2104165 C70.5711756,40.6060836 64.0261735,34.5187786 56.6324302,40.4019466 C49.7169417,45.9051959 45.6072497,41.576175 41.5578874,45.9051959 C37.5065657,50.2342686 42.2462135,55.3817555 45.6817079,62.4130256 C49.1172023,69.4442958 50.338802,85.1516473 55.971897,83.9329422 C61.6052498,82.714237 67.6573013,77.459446 66.986971,70.664556 L66.9849084,70.664556 Z" id="Path" fill="#009664"></path>
                <path d="M50.963748,95.2074956 C47.5118529,88.9157675 34.8412401,76.3779343 24,84.8415287 C30.5084076,94.0472925 40.0385291,100.92204 51.1276641,104 C52.1702081,101.001084 52.4636089,97.9395698 50.965795,95.2074956 L50.963748,95.2074956 Z" id="Path" fill="#009664"></path>
                <path d="M26.0894467,46.021154 C26.0894467,34.6732374 33.8898779,39.6748312 43.7143505,32.2040802 C51.7009964,26.1311836 49.0920718,20.9684337 45.8941672,11 C27.7997077,18.2115615 15,36.0057709 15,56.812169 C15,62.4827251 15.9533198,67.9292645 17.7040803,73 C20.9809097,72.3860474 23.9885547,71.1696571 26.0874243,69.163974 C33.4972246,62.0870319 26.0874243,57.3669769 26.0874243,46.021154 L26.0894467,46.021154 Z" id="Path" fill="#009664"></path>
                <path d="M82.7713014,73.420131 C89.5594442,91.0275256 72.6017429,82.3874153 66.5750127,90.22394 C63.9462281,93.6417877 64.810953,99.0211147 67.6701244,105 C91.208827,103.565548 110.231744,85.2479712 113,61.8892 C111.004004,59.945984 108.899013,58.3920373 106.755797,57.3948607 C99.5094637,54.0260631 75.982642,55.8122146 82.7733676,73.420131 L82.7713014,73.420131 Z" id="Path" fill="#009664"></path>
                <path d="M16.7262156,59.6628239 C10.3502677,57.462097 3.39311079,60.9214266 1.2188656,67.375813 C-0.261472663,71.7715222 0.852800879,76.4382749 3.72698889,79.6636403 L0,83.9188664 L2.31704944,86 L6.0762404,81.7076947 C6.91898748,82.2675379 7.84217531,82.7297219 8.83776498,83.0738792 C15.2136614,85.2751284 22.1708337,81.8157987 24.3451047,75.3614123 C26.5193241,68.907026 23.102112,61.8640731 16.7262156,59.6628239 Z M21.4146082,74.3493077 C19.7914672,79.1664661 14.59822,81.7505185 9.83943537,80.1075458 C5.08060951,78.4640509 2.52823606,73.2071649 4.15137703,68.3894843 C5.77452314,63.572326 10.9677703,60.9882736 15.726555,62.6317685 C20.4853396,64.2747412 23.0377491,69.5321494 21.4146082,74.3493077 Z" id="Shape" fill="#000000"></path>
                <path d="M21.5176752,74.9046749 C19.9159587,79.6004171 14.7912592,82.1193386 10.0952876,80.517777 C5.39929054,78.9157062 2.88060686,73.7913198 4.48232336,69.0950685 C6.08402969,64.3993263 11.2087292,61.8804048 15.9047008,63.4824755 C20.6007233,65.0840372 23.1193917,70.2084237 21.5176752,74.9046749 Z" id="Path" fill="#FFFFFF"></path>
                <path d="M19.7584556,71.9528284 C18.9570749,74.3017143 16.3944228,75.5599492 14.047379,74.7583668 C11.6982767,73.9573267 10.4401637,71.3947578 11.2415444,69.0474989 C12.0429251,66.6980706 14.6055772,65.440378 16.952621,66.2414181 C19.3017233,67.0430005 20.5598363,69.6055694 19.7584556,71.9528284 Z" id="Path" fill="#000000"></path>
                <path d="M19.8929074,69.6456453 C19.537446,70.6899826 18.399042,71.2482304 17.354504,70.8930326 C16.3099101,70.5372755 15.7516312,69.3989647 16.1070926,68.3546274 C16.462554,67.3097308 17.6009021,66.751483 18.645496,67.1072401 C19.6900899,67.4624379 20.2483688,68.6007487 19.8929074,69.6456453 Z" id="Path" fill="#FFFFFF"></path>
                <path d="M62.5001582,0 C55.6077664,0 50,5.4297731 50,12.1029035 C50,16.6479958 52.6013085,20.6132158 56.4371523,22.6815086 L54.2168446,27.8143949 L57.1389403,29 L59.3782295,23.823263 C60.3763398,24.0723637 61.4219038,24.205858 62.5001582,24.205858 C69.3920227,24.205858 75,18.7760849 75,12.1029035 C75,5.4297731 69.3920227,0 62.5001582,0 Z M71.8306176,12.1029035 C71.8306176,17.0843565 67.6451979,21.1372781 62.5001582,21.1372781 C57.3551185,21.1372781 53.1691715,17.0843565 53.1691715,12.1029035 C53.1691715,7.12150152 57.3551185,3.06856977 62.5001582,3.06856977 C67.6451979,3.06856977 71.8306176,7.12150152 71.8306176,12.1029035 Z" id="Shape" fill="#000000"></path>
                <path d="M63,21 C67.9702937,21 72,16.9705963 72,12.000028 C72,7.02945979 67.9702937,3 63,3 C58.0291971,3 54,7.02945979 54,12.000028 C54,16.9705963 58.0291971,21 63,21 Z" id="Path" fill="#FFFFFF"></path>
                <path d="M57.5,16 C57.2225951,16 57,15.7880515 57,15.5288157 L57,8.47118429 C57,8.20989023 57.2248322,8 57.5,8 C57.7751678,8 58,8.21194849 58,8.47118429 L58,15.5288157 C58,15.7901098 57.7751678,16 57.5,16 Z" id="Path" fill="#000000"></path>
                <path d="M59.5002798,16 C59.2227196,16 59,15.7880515 59,15.5288157 L59,8.47118429 C59,8.20989023 59.224958,8 59.5002798,8 C59.775042,8 60,8.21194849 60,8.47118429 L60,15.5288157 C60,15.7901098 59.775042,16 59.5002798,16 Z" id="Path" fill="#000000"></path>
                <path d="M61.5,16 C61.2225951,16 61,15.7880515 61,15.5288157 L61,8.47118429 C61,8.20989023 61.2248322,8 61.5,8 C61.7751678,8 62,8.21194849 62,8.47118429 L62,15.5288157 C62,15.7901098 61.7751678,16 61.5,16 Z" id="Path" fill="#000000"></path>
                <path d="M62.5,16 C62.2225951,16 62,15.7880515 62,15.5288157 L62,8.47118429 C62,8.20989023 62.2248322,8 62.5,8 C62.7751678,8 63,8.21194849 63,8.47118429 L63,15.5288157 C63,15.7901098 62.7751678,16 62.5,16 Z" id="Path" fill="#000000"></path>
                <path d="M64.4997202,16 C64.2227196,16 64,15.7880515 64,15.5288157 L64,8.47118429 C64,8.20989023 64.224958,8 64.4997202,8 C64.775042,8 65,8.21194849 65,8.47118429 L65,15.5288157 C65,15.7901098 64.775042,16 64.4997202,16 Z" id="Path" fill="#000000"></path>
                <path d="M66.5,16 C66.2231544,16 66,15.7880515 66,15.5288157 L66,8.47118429 C66,8.20989023 66.2248322,8 66.5,8 C66.7751678,8 67,8.21194849 67,8.47118429 L67,15.5288157 C67,15.7901098 66.7751678,16 66.5,16 Z" id="Path" fill="#000000"></path>
                <path d="M67.5,16 C67.2225951,16 67,15.7880515 67,15.5288157 L67,8.47118429 C67,8.20989023 67.2248322,8 67.5,8 C67.7751678,8 68,8.21194849 68,8.47118429 L68,15.5288157 C68,15.7901098 67.7751678,16 67.5,16 Z" id="Path" fill="#000000"></path>
                <path d="M93.4970825,88.3076298 C96.7343669,94.2990887 104.193972,96.510017 110.122275,93.2390975 C111.048394,92.7279184 111.885106,92.1122036 112.621557,91.4154737 L117.061454,95 L119,92.5481171 L114.598347,88.9944288 C116.894008,85.3163432 117.208744,80.5233852 115.004042,76.4438827 C111.76624,70.4524239 104.306636,68.2414956 98.3783327,71.512415 C92.4479625,74.7828118 90.2592812,82.3187844 93.4970825,88.3076298 Z M96.2222103,86.803885 C93.8056168,82.3328967 95.4392464,76.7067898 99.8672562,74.2653605 C104.292682,71.8239311 109.86232,73.4745485 112.278397,77.9476276 C114.694991,82.4186159 113.061361,88.0447228 108.633868,90.4861521 C104.207925,92.9275814 98.6388039,91.276964 96.2222103,86.803885 Z" id="Shape" fill="#000000"></path>
                <path d="M96.0991795,86.3137062 C98.4774594,90.6691645 103.956251,92.2791668 108.314058,89.9008238 C112.669321,87.5224808 114.279085,82.0437888 111.900805,77.6862938 C109.523034,73.3308355 104.043733,71.7208332 99.6864353,74.0991762 C95.3306635,76.4775192 93.7208996,81.9562112 96.0991795,86.3137062 Z" id="Path" fill="#FFFFFF"></path>
                <path d="M98.5492897,82.656798 C99.7380806,84.8352302 102.478693,85.6391238 104.656879,84.4506414 C106.835607,83.2616167 107.639151,80.5212184 106.45036,78.3427861 C105.262111,76.1643539 102.520957,75.3610028 100.342771,76.5494851 C98.1645853,77.7379674 97.3610407,80.4789082 98.5492897,82.656798 Z" id="Path" fill="#000000"></path>
                <path d="M98.2449782,78.9590634 C98.7727684,79.9269259 99.9914333,80.2847722 100.959328,79.7547123 C101.927223,79.2274481 102.284668,78.0090932 101.754644,77.0412306 C101.227412,76.072809 100.008747,75.7155218 99.0408524,76.2450225 C98.0729577,76.7728459 97.7155124,77.9912008 98.2449782,78.9590634 Z" id="Path" fill="#FFFFFF"></path>
            </g>
        </g>
    </g>
</svg>