<?xml version="1.0" encoding="UTF-8"?>
<svg width="346px" height="61px" viewBox="0 0 346 61" version="1.1" xmlns="http://www.w3.org/2000/svg" xmlns:xlink="http://www.w3.org/1999/xlink">
    <title>Logo OFF</title>
    <g id="Homepage-V2" stroke="none" stroke-width="1" fill="none" fill-rule="evenodd">
        <g transform="translate(-41, -322)" fill-rule="nonzero" id="Logo-OFF">
            <g transform="translate(41.4138, 322.418)" id="Group">
                <g transform="translate(145.4416, 6.4524)">
                    <path d="M16.2179293,4.52758591 L92.1962297,4.52758591 C100.358998,4.52758591 106.97623,11.1448173 106.97623,19.3075859 L106.97623,27.3522639 C106.97623,35.5150325 100.358998,42.1322639 92.1962297,42.1322639 L16.2179293,42.1322639 C8.05516067,42.1322639 1.43792927,35.5150325 1.43792927,27.3522639 L1.43792927,19.3075859 C1.43792927,11.1448173 8.05516067,4.52758591 16.2179293,4.52758591 Z" id="Rectangle" fill="#FF8714" transform="translate(54.2071, 23.3299) rotate(-5) translate(-54.2071, -23.3299)"></path>
                    <g transform="translate(8.4902, 8.6899)" fill="#FFFFFF">
                        <polygon id="Path" points="2.0292575 30.0974104 0 6.90891582 15.8747123 5.51802891 16.2425152 9.72028298 5.1915171 10.6884079 5.70728672 16.5732547 15.2025208 15.7446412 15.5703237 19.9468953 6.07508964 20.7755087 6.85297168 29.678876 2.0292575 30.101638"></polygon>
                        <path d="M31.1068264,27.932869 C29.3650471,28.0850633 27.720503,27.9244138 26.1731941,27.455148 C24.6258853,26.9858822 23.2519088,26.2502764 22.0428096,25.2610133 C20.8379379,24.2675227 19.8613578,23.0753339 19.1088415,21.6759917 C18.3605528,20.2766496 17.9081974,18.7293408 17.7602307,17.02561 C17.612264,15.3261068 17.7813688,13.7196113 18.2633175,12.2145787 C18.7494938,10.709546 19.4977825,9.36939053 20.5166388,8.18988461 C21.5312676,7.01460631 22.761505,6.05916424 24.2031233,5.32778601 C25.6447417,4.59640779 27.2470096,4.15250771 29.009927,3.99608578 C30.7728445,3.83966385 32.4300714,3.99608578 33.9773803,4.4695792 C35.5246891,4.94307261 36.8986655,5.6659956 38.1035372,6.65103101 C39.3084088,7.6318388 40.2807614,8.82402758 41.0205948,10.2233697 C41.7604283,11.6227119 42.2043284,13.1742483 42.3522951,14.8737515 C42.5002618,16.5774823 42.3269293,18.1797502 41.8322978,19.6847828 C41.3376663,21.1898155 40.5809224,22.5384262 39.5662936,23.7263873 C38.5516649,24.9143485 37.3214275,25.8740182 35.8798092,26.6053964 C34.4381908,27.3367746 32.8443782,27.7806747 31.1025988,27.932869 L31.1068264,27.932869 Z M30.7263406,23.574193 C31.7832456,23.4811854 32.7471429,23.2106177 33.6180326,22.7582624 C34.4889223,22.3059071 35.237211,21.7140403 35.8628987,20.9784345 C36.4885864,20.2428286 36.949397,19.3930771 37.2411027,18.4291797 C37.5328085,17.4610548 37.6300438,16.4210603 37.5328085,15.2965135 C37.4355732,14.1761942 37.1565503,13.1700207 36.704195,12.277993 C36.2518397,11.3859652 35.6515177,10.6292212 34.9074566,10.0035335 C34.1633955,9.37784577 33.3220992,8.92549046 32.3877952,8.63801231 C31.4534912,8.35476178 30.455773,8.25752653 29.398868,8.35053417 C28.3419631,8.4435418 27.3780658,8.70988185 26.5071761,9.15378193 C25.6362864,9.597682 24.8879977,10.1895488 24.26231,10.9336099 C23.6366223,11.6776709 23.1800393,12.5274225 22.8841059,13.4828646 C22.5924002,14.4383067 22.4951649,15.4783011 22.5924002,16.5986204 C22.6896354,17.7189396 22.9686583,18.7293408 23.4210136,19.6298238 C23.8775966,20.5303068 24.4779186,21.2870507 25.2177521,21.9042832 C25.9618131,22.5172881 26.8031095,22.973871 27.7374134,23.2698044 C28.6717174,23.5657378 29.6694357,23.6672007 30.7263406,23.574193 Z" id="Shape"></path>
                        <path d="M57.5674987,25.6161334 C55.8257193,25.7683277 54.1811752,25.6076782 52.6338664,25.1384124 C51.0865576,24.6691466 49.7125811,23.9335407 48.5034819,22.9442777 C47.2986102,21.950787 46.32203,20.7585983 45.5695137,19.3592561 C44.821225,17.9599139 44.3688697,16.4126051 44.220903,14.7088743 C44.0729363,13.0093712 44.2420411,11.4028757 44.7239898,9.89784301 C45.210166,8.39281036 45.9584547,7.05265489 46.9773111,5.87314897 C47.9919399,4.69787067 49.2221772,3.74242859 50.6637956,3.01105037 C52.1054139,2.27967215 53.7076818,1.83577207 55.4705993,1.67935014 C57.2335167,1.52715582 58.8907437,1.67935014 60.4380525,2.15284355 C61.9853614,2.62633697 63.3593378,3.34925995 64.5642094,4.33429536 C65.7690811,5.31510316 66.7414336,6.50729194 67.4812671,7.90663409 C68.2211006,9.30597624 68.6650006,10.8575127 68.8129673,12.5570159 C68.960934,14.2607466 68.7876016,15.8630145 68.2929701,17.3680472 C67.7983386,18.8773074 67.0415946,20.2216905 66.0269659,21.4096517 C65.0123371,22.5976129 63.7820998,23.5572826 62.3404814,24.2886608 C60.8988631,25.020039 59.3050504,25.4639391 57.5632711,25.6161334 L57.5674987,25.6161334 Z M57.1870129,21.2574574 C58.2439179,21.1644498 59.2078152,20.8938821 60.0787048,20.4415268 C60.9495945,19.9891714 61.6978832,19.3973047 62.323571,18.6616988 C62.9492587,17.926093 63.4100692,17.0763414 63.701775,16.1124441 C63.9934808,15.1443192 64.090716,14.1043247 63.9934808,12.9797778 C63.8962455,11.8594586 63.6172226,10.8532851 63.1648673,9.96125731 C62.712512,9.06922953 62.11219,8.31248559 61.3681289,7.68679786 C60.6240678,7.06111013 59.7827715,6.60875481 58.8484675,6.32127667 C57.9141635,6.03802614 56.9164452,5.94079088 55.8595403,6.03379852 C54.8026353,6.12680616 53.8345104,6.3931462 52.9636207,6.83704628 C52.0927311,7.28094636 51.3444424,7.87281313 50.7187546,8.61687421 C50.0930669,9.3609353 49.636484,10.2106869 49.3405506,11.1661289 C49.0488448,12.121571 48.9516096,13.1615655 49.0488448,14.2818847 C49.1460801,15.402204 49.425103,16.4126051 49.8774583,17.3130881 C50.3340412,18.2135711 50.9343632,18.9703151 51.6741967,19.5875476 C52.4182578,20.2005524 53.2595541,20.6571354 54.1938581,20.9530688 C55.1281621,21.2490021 56.1258803,21.350465 57.1827853,21.2574574 L57.1870129,21.2574574 Z" id="Shape"></path>
                        <path d="M72.6601013,23.9208579 L70.6308438,0.732363302 L78.1940557,0.068626995 C80.7052618,-0.151209234 82.9289898,0.157407011 84.8610121,0.990248109 C86.7930343,1.82308921 88.3445708,3.07023705 89.5156215,4.72323638 C90.6824445,6.37623572 91.3673189,8.32516845 91.5617894,10.5658069 C91.7562599,12.8064454 91.422278,14.8483858 90.5598435,16.691628 C89.6974091,18.5348702 88.3826193,20.0356753 86.6239295,21.1940431 C84.8652397,22.3524109 82.7302917,23.0415129 80.2190855,23.2613492 L72.6558737,23.9250855 L72.6601013,23.9208579 Z M77.1160126,19.2958418 L79.9781112,19.0464122 C81.4915991,18.915356 82.7725679,18.492594 83.8210176,17.7865815 C84.8652397,17.0763414 85.6473493,16.1420374 86.163119,14.979442 C86.6788886,13.8168466 86.8691315,12.4851463 86.7380752,10.9927965 C86.607019,9.47930865 86.1842571,8.19833985 85.4782446,7.14989014 C84.7680044,6.10566806 83.8379281,5.32778601 82.6880155,4.82047164 C81.5338753,4.31315726 80.2021751,4.12714199 78.6886872,4.26242583 L75.8265886,4.5118554 L77.1202402,19.2958418 L77.1160126,19.2958418 Z" id="Shape"></path>
                    </g>
                </g>
                <g transform="translate(258.9459, 13.0845)" fill="#000000">
                    <path d="M11.3215658,0 C9.74466362,0 8.37914243,0.287478146 7.21654698,0.862434437 C6.05395154,1.43739073 5.16192376,2.27023183 4.53623604,3.35673011 C3.91054831,4.4432284 3.59770444,5.77492863 3.59770444,7.35183082 L3.59770444,7.9902014 L5.68434189e-14,7.9902014 L5.68434189e-14,12.3784707 L3.59770444,12.3784707 L3.59770444,28.3884669 L8.51019864,28.3884669 L8.51019864,12.3784707 L13.0464347,12.3784707 L13.0464347,7.9902014 L8.51019864,7.9902014 L8.51019864,7.35183082 C8.51019864,6.30338111 8.81035964,5.53395431 9.41068165,5.04777803 C10.0110037,4.56160175 10.8607552,4.31639981 11.9599364,4.31639981 C12.1332688,4.31639981 12.3277393,4.32485505 12.5391203,4.33331029 C12.7505013,4.34599314 12.9830204,4.37558648 13.2324499,4.42631792 L13.2324499,0.190242891 C12.9830204,0.139511453 12.6744041,0.0972352552 12.3150565,0.0591866771 C11.9514811,0.021138099 11.6217268,0.00422761979 11.3215658,0.00422761979 L11.3215658,0 Z" id="Path"></path>
                    <path d="M27.5894468,8.45523958 C26.3127056,7.84223471 24.8372663,7.53784609 23.1631288,7.53784609 C21.7891524,7.53784609 20.5124112,7.76190994 19.3371329,8.21426525 C18.1618546,8.66239295 17.1429983,9.28385306 16.2805638,10.0701903 C15.4181294,10.8565276 14.788214,11.7908316 14.3865901,12.864647 L18.3986013,14.8135797 C18.7748595,13.9130967 19.3667263,13.1774909 20.1784293,12.6025346 C20.9901323,12.0275783 21.9202086,11.7401002 22.9728859,11.7401002 C24.0974328,11.7401002 24.9979158,12.0360335 25.674335,12.6194451 C26.3507542,13.2070842 26.6847361,13.9384625 26.6847361,14.8135797 L26.6847361,15.4730884 L20.6476951,16.4623515 C19.0454272,16.711781 17.7221822,17.1387706 16.6737325,17.7390926 C15.6252827,18.3394147 14.8431731,19.0834757 14.3316311,19.9712759 C13.8200891,20.859076 13.5622043,21.8652496 13.5622043,22.9897964 C13.5622043,24.1143433 13.8496824,25.196614 14.4246387,26.0844141 C14.999595,26.9722143 15.8197533,27.6528611 16.8808858,28.1263545 C17.9420184,28.5998479 19.1849386,28.8408222 20.6138741,28.8408222 C21.738421,28.8408222 22.7572773,28.6928555 23.6704432,28.3926945 C24.5836091,28.0925335 25.4079949,27.6444058 26.1436008,27.0440838 C26.4437618,26.7988819 26.7227847,26.5283142 26.9891247,26.2450637 L26.9891247,28.3969221 L31.6395065,28.3969221 L31.6395065,14.822035 C31.6395065,13.3973271 31.2843865,12.1332688 30.5699187,11.0340877 C29.855451,9.93490651 28.8619603,9.07669969 27.5894468,8.46369482 L27.5894468,8.45523958 Z M26.0505932,22.6093106 C25.6236036,23.3829651 25.0190539,23.9917423 24.2327166,24.4271872 C23.4463794,24.8668596 22.5374411,25.0824682 21.5143571,25.0824682 C20.715337,25.0824682 20.047373,24.8753148 19.5062377,24.4652357 C18.96933,24.050929 18.6987623,23.4971108 18.6987623,22.7953259 C18.6987623,22.093541 18.935509,21.4889914 19.4132301,21.0535466 C19.8867235,20.6181017 20.6138741,20.3094855 21.5862267,20.1361531 L26.6847361,19.2314424 L26.6847361,20.0981045 C26.6847361,20.9985875 26.4733551,21.8356562 26.0463655,22.6093106 L26.0505932,22.6093106 Z" id="Shape"></path>
                    <path d="M42.0521341,12.8435089 C42.8892028,12.3319669 43.8446449,12.0740821 44.9226879,12.0740821 C46.0726005,12.0740821 47.0914568,12.3784707 47.979257,12.9914756 C48.8670572,13.6044805 49.4969725,14.433094 49.8732307,15.4857713 L54.1854029,13.5748871 C53.783779,12.3742431 53.1284979,11.3257934 52.215332,10.4253104 C51.3021662,9.52482739 50.2198955,8.81881488 48.9727477,8.30727289 C47.7213722,7.79573089 46.3727615,7.53784609 44.9226879,7.53784609 C42.8722923,7.53784609 41.0417329,7.99865664 39.4310098,8.92450538 C37.8202866,9.85035411 36.5477731,11.1101848 35.626152,12.7124527 C34.7003032,14.310493 34.2394927,16.1241419 34.2394927,18.1491718 C34.2394927,20.1742016 34.7087585,21.9920782 35.6472901,23.6028013 C36.5858217,25.2135244 37.8541076,26.4902656 39.4521479,27.4287972 C41.0501882,28.3673288 42.8765199,28.8365946 44.9269155,28.8365946 C46.4023548,28.8365946 47.7636484,28.5787098 49.0150239,28.0671678 C50.2663993,27.5556258 51.3402147,26.8411581 52.2406978,25.9279922 C53.1411808,25.0148263 53.7922342,23.9832871 54.1896305,22.8333745 L49.8774583,20.8844418 C49.4758344,21.9328915 48.8459191,22.7699602 47.9834846,23.3956479 C47.1210502,24.0213357 46.1021938,24.3341795 44.9269155,24.3341795 C43.8531001,24.3341795 42.8934304,24.0720671 42.0563617,23.5478422 C41.219293,23.0236174 40.5640119,22.2964668 40.0862909,21.3748457 C39.6127974,20.4489969 39.3718231,19.3878644 39.3718231,18.1872203 C39.3718231,16.9865763 39.6085698,15.9550371 40.0862909,15.0207331 C40.5597843,14.0822015 41.2150653,13.3592785 42.0563617,12.8477365 L42.0521341,12.8435089 Z" id="Path"></path>
                    <path d="M67.1515128,24.3003586 C66.3524926,24.3003586 65.6929839,24.17353 65.1814419,23.9241004 C64.6698999,23.6746708 64.2936418,23.3110955 64.0568951,22.8376021 C63.8201484,22.3641087 63.701775,21.7891524 63.701775,21.1127332 L63.701775,12.3742431 L68.3902054,12.3742431 L68.3902054,7.98597378 L63.701775,7.98597378 L63.701775,3.33559201 L58.7512322,3.33559201 L58.7512322,4.9124942 C58.7512322,5.91444009 58.4806646,6.67541165 57.9437569,7.1996365 C57.4068491,7.72386136 56.6374223,7.98597378 55.6397041,7.98597378 L55.2634459,7.98597378 L55.2634459,12.3742431 L58.7512322,12.3742431 L58.7512322,21.3748457 C58.7512322,23.6746708 59.3896028,25.4544988 60.6621164,26.7185571 C61.9388576,27.9826154 63.7229131,28.6125307 66.0227383,28.6125307 C66.3989964,28.6125307 66.8090756,28.587165 67.2614309,28.5364336 C67.7095586,28.4857022 68.1111824,28.4349707 68.4620749,28.3884669 L68.4620749,24.1904404 C68.238011,24.2158062 68.005492,24.2411719 67.7687452,24.2665376 C67.5319985,24.2919033 67.3248452,24.3045862 67.1515128,24.3045862 L67.1515128,24.3003586 Z" id="Path"></path>
                    <path d="M80.9377809,16.6864153 L77.6740584,15.7098351 C77.200565,15.5618684 76.7820306,15.3969913 76.4184553,15.2236589 C76.05488,15.0503265 75.7758571,14.8262626 75.5729314,14.5472397 C75.3742333,14.2724444 75.2727704,13.9596005 75.2727704,13.6087081 C75.2727704,12.9830204 75.5095171,12.4883889 75.9872381,12.1290412 C76.4607315,11.7654659 77.111785,11.5836782 77.9361708,11.5836782 C78.9592548,11.5836782 79.8851036,11.8542459 80.7094894,12.3911536 C81.5338753,12.9280613 82.1215144,13.6594395 82.4724069,14.5852883 L86.2223056,12.8223708 C85.5966179,11.1482334 84.5481682,9.84612649 83.0727289,8.92450538 C81.5972896,7.99865664 79.8977864,7.53784609 77.9742194,7.53784609 C76.4987801,7.53784609 75.1924456,7.79995851 74.0552159,8.32418337 C72.9179862,8.84840822 72.030186,9.57978645 71.3918154,10.518318 C70.7534448,11.4568496 70.4363733,12.5475755 70.4363733,13.798951 C70.4363733,15.1982931 70.8802734,16.4158476 71.7680736,17.4558421 C72.6558737,18.491609 73.9495254,19.2483529 75.6490285,19.7260739 L78.9846206,20.6646055 C79.4327482,20.7914341 79.8343721,20.9478561 80.1852646,21.1338713 C80.536157,21.3198866 80.8151799,21.5481781 81.0307885,21.8102905 C81.2421695,22.0724029 81.34786,22.4063849 81.34786,22.8037812 C81.34786,23.4548346 81.0857476,23.9790595 80.5615227,24.3806833 C80.0372979,24.7823072 79.335513,24.9810053 78.4603957,24.9810053 C77.3104831,24.9810053 76.266261,24.6554786 75.3277294,24.0044252 C74.3891978,23.3533717 73.6578196,22.4528887 73.1335948,21.3029761 L69.4217446,23.0658936 C70.0474323,24.8414939 71.1635239,26.2492913 72.7784747,27.2850581 C74.3891978,28.320825 76.2831715,28.8408222 78.4603957,28.8408222 C80.0119322,28.8408222 81.3605429,28.5787098 82.5104555,28.0544849 C83.660368,27.5302601 84.5608511,26.7988819 85.2119045,25.8603503 C85.862958,24.9218187 86.1884847,23.8437756 86.1884847,22.6177659 C86.1884847,21.1676923 85.7319017,19.9416826 84.8187359,18.9439643 C83.90557,17.946246 82.6119183,17.1937297 80.9377809,16.6948706 L80.9377809,16.6864153 Z" id="Path"></path>
                </g>
                <g transform="translate(51.6108, 20.6223)" fill="#000000">
                    <path d="M16.2721086,1.38665929 C14.6487026,0.460810557 12.8223708,0 10.7973409,0 C8.77231107,0 6.98402789,0.460810557 5.36062189,1.38665929 C3.7372159,2.31250803 2.435109,3.57233872 1.46275645,5.17460662 C0.486176276,6.7726469 0,8.59897865 0,10.6493743 C0,12.6997699 0.486176276,14.5261016 1.46275645,16.1241419 C2.43933662,17.7221822 3.74144351,18.9862405 5.38175999,19.9120892 C7.01784885,20.8379379 8.8230425,21.2987485 10.8015686,21.2987485 C12.7800946,21.2987485 14.6148816,20.8379379 16.2382876,19.9120892 C17.8616936,18.9862405 19.1638005,17.7264098 20.1361531,16.1241419 C21.1127332,14.5261016 21.5989095,12.6997699 21.5989095,10.6493743 C21.5989095,8.59897865 21.1169609,6.74305357 20.1572912,5.15769614 C19.1933939,3.57233872 17.8997422,2.31250803 16.2763362,1.39088691 L16.2721086,1.38665929 Z M15.7267456,13.8158615 C15.2405693,14.7543931 14.576833,15.4857713 13.7397643,16.0099961 C12.9026956,16.534221 11.9218878,16.7963334 10.7973409,16.7963334 C9.67279408,16.7963334 8.72157963,16.534221 7.87182805,16.0099961 C7.02207647,15.4857713 6.35411255,14.7543931 5.86370865,13.8158615 C5.37753237,12.8773299 5.13233043,11.8246526 5.13233043,10.6493743 C5.13233043,9.47409595 5.37753237,8.42564624 5.86370865,7.49979751 C6.34988493,6.57394877 7.01784885,5.85102579 7.87182805,5.32680094 C8.72157963,4.80257608 9.6981598,4.54046366 10.7973409,4.54046366 C11.8965221,4.54046366 12.9026956,4.80257608 13.7397643,5.32680094 C14.576833,5.85102579 15.2405693,6.57817639 15.7267456,7.49979751 C16.2129219,8.42564624 16.4581238,9.47409595 16.4581238,10.6493743 C16.4581238,11.8246526 16.2129219,12.8815575 15.7267456,13.8158615 Z" id="Shape"></path>
                    <path d="M40.6654748,1.42470787 C39.1139383,0.473493417 37.3763866,0 35.4528196,0 C33.880145,0 32.4892581,0.304388625 31.2928417,0.917393495 C30.333172,1.40779739 29.5341519,2.05885084 28.8915537,2.8620986 L28.8915537,0.448127698 L24.2411719,0.448127698 L24.2411719,28.3461907 L29.1917147,28.3461907 L29.1917147,18.8890052 C29.7920367,19.5273758 30.510732,20.047373 31.3478007,20.4363141 C32.5864933,21.0112704 33.9393317,21.2987485 35.414771,21.2987485 C37.3890694,21.2987485 39.1519869,20.8294827 40.7035233,19.8909511 C42.2550598,18.9524195 43.4768419,17.6714507 44.3773249,16.0480447 C45.277808,14.4246387 45.7259357,12.6236727 45.7259357,10.6493743 C45.7259357,8.67507581 45.2693527,6.84874406 44.3561868,5.25070378 C43.443021,3.6526635 42.2127836,2.37592232 40.6612471,1.42470787 L40.6654748,1.42470787 Z M39.8791375,13.8369996 C39.3802784,14.7628483 38.6996316,15.4857713 37.8371971,16.0099961 C36.9747627,16.534221 35.981272,16.7963334 34.8567252,16.7963334 C33.7321783,16.7963334 32.8147848,16.534221 31.9523504,16.0099961 C31.0899159,15.4857713 30.4134968,14.7586207 29.9273205,13.8369996 C29.4411442,12.9111508 29.1959423,11.8500183 29.1959423,10.6493743 C29.1959423,9.44873023 29.4411442,8.42564624 29.9273205,7.49979751 C30.4134968,6.57394877 31.0899159,5.85102579 31.9523504,5.32680094 C32.8147848,4.80257608 33.7829097,4.54046366 34.8567252,4.54046366 C35.9305406,4.54046366 36.9747627,4.80257608 37.8371971,5.32680094 C38.6996316,5.85102579 39.3802784,6.57817639 39.8791375,7.49979751 C40.3779966,8.42564624 40.6274262,9.47409595 40.6274262,10.6493743 C40.6274262,11.8246526 40.3779966,12.9111508 39.8791375,13.8369996 Z" id="Shape"></path>
                    <path d="M64.9658333,2.96356147 C64.1160817,2.03771274 63.0845425,1.31478975 61.8712156,0.790564901 C60.6578888,0.266340047 59.254319,0.00422761979 57.6520511,0.00422761979 C55.7284841,0.00422761979 54.0036152,0.465038177 52.4774445,1.39088691 C50.9512737,2.31673565 49.7421745,3.57233872 48.8416914,5.15769614 C47.9412084,6.74728119 47.4930807,8.5651577 47.4930807,10.6113257 C47.4930807,12.6574937 47.9285256,14.3865901 48.8036429,16.0099961 C49.6787602,17.6334021 50.9089975,18.9228262 52.4985826,19.8740406 C54.08394,20.8252551 55.9314098,21.2987485 58.0283092,21.2987485 C59.4022857,21.2987485 60.6790269,21.0873675 61.8543052,20.6603779 C63.0295835,20.2376159 64.0399846,19.6499768 64.8897362,18.8974605 C65.7394877,18.1491718 66.3651755,17.2867373 66.7625717,16.3101572 L62.7886091,14.3612244 C62.3404814,15.1602446 61.7190213,15.7986152 60.932684,16.2721086 C60.1463468,16.745602 59.1909047,16.9865763 58.0621302,16.9865763 C56.9333557,16.9865763 55.9440927,16.7244639 55.0816583,16.200239 C54.2192238,15.6760142 53.5681704,14.9319531 53.1327255,13.9680558 C52.8706131,13.3888719 52.7057359,12.7589565 52.638094,12.0740821 L67.3248452,12.0740821 C67.426308,11.7739211 67.49395,11.4441668 67.5319985,11.0805915 C67.5700471,10.7170162 67.5869576,10.3492132 67.5869576,9.97295509 C67.5869576,8.59897865 67.3628937,7.31800986 66.9105384,6.1300487 C66.4624107,4.94208754 65.8113573,3.88518259 64.9616057,2.96356147 L64.9658333,2.96356147 Z M52.7395569,8.28613479 C52.8241093,7.85491757 52.9424826,7.45752131 53.0989046,7.08549077 C53.5132113,6.1089106 54.1177609,5.36062189 54.9167811,4.83639704 C55.7158012,4.31217219 56.6289671,4.05005976 57.6520511,4.05005976 C58.6751351,4.05005976 59.64326,4.31217219 60.4084592,4.83639704 C61.1694308,5.36062189 61.7190213,6.07508964 62.0572309,6.97557265 C62.2094252,7.38565177 62.3024329,7.82532423 62.3320262,8.28613479 L52.7353293,8.28613479 L52.7395569,8.28613479 Z" id="Shape"></path>
                    <path d="M84.7215006,0.976580172 C83.5589052,0.325526724 82.2272049,0 80.7263999,0 C79.2255949,0 78.0080404,0.317071484 76.9215421,0.955442073 C76.0802458,1.44584597 75.4291923,2.11803752 74.9514713,2.95933385 L74.9514713,0.452355318 L70.3010895,0.452355318 L70.3010895,20.8506208 L75.2516323,20.8506208 L75.2516323,8.89068442 C75.2516323,7.9902014 75.4249647,7.21654698 75.7758571,6.56549354 C76.1267496,5.91444009 76.6129258,5.41558095 77.2386136,5.06468851 C77.8643013,4.71379607 78.5745414,4.54046366 79.3777892,4.54046366 C80.181037,4.54046366 80.8912771,4.71379607 81.5169648,5.06468851 C82.1426525,5.41558095 82.6288288,5.91444009 82.9797213,6.56549354 C83.3306137,7.21654698 83.5039461,7.9902014 83.5039461,8.89068442 L83.5039461,20.8506208 L88.4164403,20.8506208 L88.4164403,7.72808898 C88.4164403,6.20191823 88.0909136,4.85753514 87.4398601,3.69916732 C86.7888067,2.53657187 85.884096,1.63186124 84.7215006,0.980807791 L84.7215006,0.976580172 Z" id="Path"></path>
                </g>
                <g transform="translate(0, -0)">
                    <g transform="translate(0.0042, 10.3999)">
                        <path d="M0,20.7068817 C0,9.2711702 9.2711702,0 20.7068817,0 C32.1425933,0 41.4137635,9.2711702 41.4137635,20.7068817 L0,20.7068817 Z" id="Path" fill="#FF8C14"></path>
                        <circle id="Oval" fill="#8C3C00" cx="27.720503" cy="7.33492034" r="1.13722972"></circle>
                        <circle id="Oval" fill="#8C3C00" cx="33.2671401" cy="12.4249746" r="1.13722972"></circle>
                        <circle id="Oval" fill="#8C3C00" cx="26.9933524" cy="13.6721224" r="1.13722972"></circle>
                    </g>
                    <path d="M10.6705124,49.2094944 L6.99248313,57.9944883 L11.8331078,60.0237458 L15.544958,51.1626547 C17.1979573,51.5896443 18.9312814,51.8179358 20.715337,51.8179358 C32.134138,51.8179358 41.4222187,42.5298551 41.4222187,31.111054 L36.1715149,31.111054 C36.1715149,39.6339355 29.2382185,46.5714596 20.7111094,46.5714596 C12.1840002,46.5714596 5.25070378,39.6381632 5.25070378,31.111054 L0,31.111054 C0,38.8856468 4.31217219,45.6709766 10.6662847,49.213722 L10.6705124,49.2094944 Z" id="Path" fill="#000000"></path>
                    <path d="M29.2762671,0 C25.2050692,0 21.6665514,2.27023183 19.8444473,5.61005146 C21.2480171,6.91215836 22.3006944,8.58206818 22.850285,10.4718142 C27.5894468,9.40645403 31.144875,5.22111044 31.2294274,0.181787651 C30.5952844,0.0634142969 29.944231,0 29.2762671,0 L29.2762671,0 Z" id="Path" fill="#00641E"></path>
                    <path d="M12.5391203,2.73104238 C11.7316449,2.73104238 10.9495353,2.82405002 10.1927913,2.98892719 C11.4906706,7.46597655 15.6168275,10.7381543 20.5081836,10.7381543 C21.315659,10.7381543 22.0977686,10.6451466 22.8545126,10.4802695 C21.5566333,6.0032201 17.4304764,2.73104238 12.5391203,2.73104238 Z" id="Path" fill="#00961E"></path>
                </g>
            </g>
        </g>
    </g>
</svg>