<?xml version="1.0" encoding="UTF-8"?>
<svg width="240.000109px" height="125.752113px" viewBox="0 0 240.000109 125.752113" version="1.1" xmlns="http://www.w3.org/2000/svg" xmlns:xlink="http://www.w3.org/1999/xlink">
    <title>nutriscore-d</title>
    <g id="nutriscore-d" stroke="none" stroke-width="1" fill="none" fill-rule="evenodd">
        <path d="M22.2420543,0 L217.758054,0 C223.66099,-0.0129932711 229.325913,2.32616344 233.499929,6.50017928 C237.673945,10.6741951 240.013102,16.3391189 240.000109,22.2420543 L240.000109,100.373054 C240.013102,106.27599 237.673945,111.940913 233.499929,116.114929 C229.325913,120.288945 223.66099,122.628102 217.758054,122.615109 L22.2420543,122.615109 C16.3391189,122.628102 10.6741951,120.288945 6.50017928,116.114929 C2.32616344,111.940913 -0.0129932711,106.27599 0,100.373054 L0,22.2420543 C-0.0129932711,16.3391189 2.32616344,10.6741951 6.50017928,6.50017928 C10.6741951,2.32616344 16.3391189,-0.0129932711 22.2420543,0 Z" id="Path" fill="#FFFFFF"></path>
        <polygon id="Path" fill="#038141" points="35.9300543 44.1980543 80.7750543 44.1980543 80.7750543 116.627054 35.9290543 116.627054"></polygon>
        <polygon id="Path" fill="#E63E11" points="166.528054 44.1980543 211.374054 44.1980543 211.374054 116.627054 166.528054 116.627054"></polygon>
        <path d="M26.8040543,44.1980543 L38.0020543,44.1980543 C47.3220543,44.1980543 54.8260543,51.7020543 54.8260543,61.0220543 L54.8260543,99.8020543 C54.8260543,109.123054 47.3230543,116.627095 38.0020543,116.627095 L26.8040543,116.627095 C22.339039,116.636906 18.0540621,114.867547 14.8968119,111.710297 C11.7395616,108.553046 9.97020212,104.26807 9.98001337,99.8030543 L9.98001337,61.0230543 C9.98001337,51.7020543 17.4840543,44.1980543 26.8040543,44.1980543 Z" id="Path" fill="#038141"></path>
        <polygon id="Path" fill="#EE8100" points="144.572054 44.1980543 189.417054 44.1980543 189.417054 116.627054 144.572054 116.627054"></polygon>
        <path d="M152.681054,97.4710543 L152.681054,64.6360543 L164.937054,64.6360543 C167.650388,64.6360543 170.024054,65.067721 172.058054,65.9310543 C174.093388,66.7943876 175.789388,67.9660543 177.146054,69.4460543 C178.532721,70.9260543 179.565388,72.6680543 180.244054,74.6720543 C180.953388,76.6453876 181.308054,78.7570543 181.308054,81.0070543 C181.308054,83.5043876 180.922721,85.770721 180.152054,87.8060543 C179.380721,89.8100543 178.270721,91.536721 176.822054,92.9860543 C175.404054,94.4033876 173.677388,95.5130543 171.642054,96.3150543 C169.638054,97.085721 167.403054,97.4710543 164.937054,97.4710543 L152.681054,97.4710543 Z M173.585054,81.0070543 C173.585054,79.5583876 173.384388,78.2483876 172.983054,77.0770543 C172.613054,75.8743876 172.058388,74.8410543 171.319054,73.9770543 C170.579054,73.1143876 169.669388,72.451721 168.590054,71.9890543 C167.510721,71.5270543 166.293054,71.2960543 164.937054,71.2960543 L160.266054,71.2960543 L160.266054,90.8120543 L164.936054,90.8120543 C166.324054,90.8120543 167.557388,90.5653876 168.636054,90.0720543 C169.715388,89.578721 170.609721,88.9003876 171.319054,88.0370543 C172.059054,87.1430543 172.613721,86.1100543 172.983054,84.9380543 C173.384388,83.7360543 173.585054,82.4260543 173.585054,81.0080543 L173.585054,81.0070543 Z" id="Shape" fill-opacity="0.446" fill="#FFFFFF" fill-rule="nonzero"></path>
        <polygon id="Path" fill="#FECB02" points="97.2960543 44.1980543 144.649054 44.1980543 144.649054 116.627054 97.2960543 116.627054"></polygon>
        <polygon id="Path" fill="#85BB2F" points="99.5950543 44.1980543 54.7490543 44.1980543 54.7490543 116.627054 99.5950543 116.627054"></polygon>
        <path d="M102.503054,79.3580543 C102.503054,77.384721 102.873054,75.4270543 103.613054,73.4850543 C104.353054,71.511721 105.432054,69.7543876 106.850054,68.2130543 C108.268054,66.6710543 109.994721,65.4223876 112.030054,64.4670543 C114.064721,63.5110543 116.376721,63.0330543 118.966054,63.0330543 C122.049388,63.0330543 124.716388,63.6960543 126.967054,65.0220543 C129.248388,66.3473876 130.944054,68.0740543 132.054054,70.2020543 L126.227054,74.2710543 C125.857054,73.407721 125.379054,72.698721 124.793054,72.1440543 C124.238388,71.5573876 123.621721,71.094721 122.943054,70.7560543 C122.265054,70.3860543 121.571721,70.1393876 120.863054,70.0160543 C120.153721,69.8620543 119.459721,69.7850543 118.781054,69.7850543 C117.332388,69.7850543 116.068388,70.0780543 114.989054,70.6640543 C113.910388,71.2493876 113.016388,72.004721 112.307054,72.9300543 C111.597721,73.854721 111.073388,74.9030543 110.734054,76.0750543 C110.395388,77.2463876 110.226054,78.4330543 110.226054,79.6350543 C110.226054,80.9303876 110.426054,82.1790543 110.826054,83.3810543 C111.227388,84.583721 111.798054,85.6473876 112.538054,86.5720543 C113.308721,87.4973876 114.218388,88.2373876 115.267054,88.7920543 C116.345721,89.3160543 117.548054,89.5780543 118.874054,89.5780543 C119.552054,89.5780543 120.245388,89.5013876 120.954054,89.3480543 C121.694054,89.162721 122.388054,88.9003876 123.036054,88.5610543 C123.714054,88.1910543 124.330721,87.728721 124.886054,87.1740543 C125.440721,86.5880543 125.887721,85.878721 126.227054,85.0460543 L132.424054,88.7000543 C131.930721,89.9020543 131.190721,90.9810543 130.204054,91.9370543 C129.248721,92.8930543 128.138721,93.694721 126.874054,94.3420543 C125.610054,94.9893876 124.269054,95.482721 122.851054,95.8220543 C121.433054,96.160721 120.045721,96.3300543 118.689054,96.3300543 C116.315054,96.3300543 114.126054,95.8523876 112.122054,94.8970543 C110.148721,93.9103876 108.437388,92.6153876 106.988054,91.0120543 C105.570054,89.408721 104.460054,87.589721 103.658054,85.5550543 C102.888054,83.5203876 102.503054,81.454721 102.503054,79.3580543 L102.503054,79.3580543 Z M90.7450543,87.9140543 C90.7450543,89.3320543 90.4523876,90.5653876 89.8670543,91.6140543 C89.2803876,92.6620543 88.478721,93.5403876 87.4620543,94.2490543 C86.444721,94.927721 85.257721,95.4520543 83.9010543,95.8220543 C82.5443876,96.160721 81.110721,96.3300543 79.6000543,96.3300543 L63.5990543,96.3300543 L63.5990543,63.4950543 L81.8660543,63.4950543 C83.006721,63.4950543 84.0393876,63.741721 84.9640543,64.2350543 C85.8893876,64.7283876 86.675721,65.3760543 87.3230543,66.1780543 C87.9703876,66.948721 88.463721,67.842721 88.8030543,68.8600543 C89.1730543,69.846721 89.3580543,70.8640543 89.3580543,71.9120543 C89.3580543,73.484721 88.9570543,74.964721 88.1550543,76.3520543 C87.3843876,77.7393876 86.2130543,78.787721 84.6410543,79.4970543 C86.5210543,80.051721 88.0010543,81.0383876 89.0810543,82.4570543 C90.1903876,83.8750543 90.7450543,85.6940543 90.7450543,87.9140543 L90.7450543,87.9140543 Z M83.0220543,86.3870543 C83.0220543,85.369721 82.7290543,84.5063876 82.1430543,83.7970543 C81.557721,83.0883876 80.817721,82.7340543 79.9230543,82.7340543 L71.1830543,82.7340543 L71.1830543,89.9020543 L79.6000543,89.9020543 C80.586721,89.9020543 81.4033876,89.5783876 82.0500543,88.9310543 C82.6980543,88.283721 83.0220543,87.435721 83.0220543,86.3870543 L83.0220543,86.3870543 Z M71.1830543,69.9700543 L71.1830543,76.7680543 L78.6290543,76.7680543 C79.4610543,76.7680543 80.2010543,76.490721 80.8490543,75.9360543 C81.495721,75.380721 81.8190543,74.5173876 81.8190543,73.3460543 C81.8190543,72.266721 81.5263876,71.4343876 80.9410543,70.8490543 C80.3863876,70.2630543 79.7080543,69.9700543 78.9060543,69.9700543 L71.1830543,69.9700543 Z M28.9800543,63.4950543 L35.8250543,63.4950543 L47.8030543,96.3300543 L40.0330543,96.3300543 L37.4900543,88.9770543 L27.2700543,88.9770543 L24.7720543,96.3300543 L17.0030543,96.3300543 L28.9800543,63.4950543 Z M36.2420543,83.7510543 L32.4030543,72.1440543 L28.4730543,83.7510543 L36.2420543,83.7510543 Z" id="Shape" fill-opacity="0.446" fill="#FFFFFF" fill-rule="nonzero"></path>
        <path d="M206.164054,44.1980543 L217.362054,44.1980543 C226.682054,44.1980543 234.186054,51.7020543 234.186054,61.0220543 L234.186054,99.8020543 C234.186054,109.123054 226.683054,116.627095 217.362054,116.627095 L206.164054,116.627095 C201.699039,116.636906 197.414062,114.867547 194.256812,111.710297 C191.099562,108.553046 189.330202,104.26807 189.340013,99.8030543 L189.340013,61.0230543 C189.340013,51.7020543 196.844054,44.1980543 206.164054,44.1980543 Z" id="Path" fill="#E63E11"></path>
        <path d="M164.565054,34.787996 L169.423054,34.787996 C175.855687,34.773942 182.028921,37.3230491 186.57749,41.8716186 C191.126059,46.4201881 193.675167,52.5934211 193.661113,59.0260543 L193.661113,101.514054 C193.675167,107.946687 191.126059,114.119921 186.57749,118.66849 C182.028921,123.217059 175.855687,125.766167 169.423054,125.752113 L164.565054,125.752113 C158.132594,125.7659 151.959619,123.216676 147.411266,118.668135 C142.862913,114.119595 140.313943,107.946514 140.327996,101.514054 L140.327996,59.0260543 C140.313943,52.5935948 142.862913,46.4205141 147.411266,41.8719736 C151.959619,37.323433 158.132594,34.7742084 164.565054,34.787996 L164.565054,34.787996 Z" id="Path" stroke="#FFFFFF" stroke-width="7.53928296" fill-opacity="0.63" fill="#0039FF" stroke-linecap="round" stroke-linejoin="round"></path>
        <polygon id="Path" fill-opacity="0.446" fill="#FFFFFF" fill-rule="nonzero" points="227.112054 89.6710543 227.112054 96.3310543 204.035054 96.3310543 204.035054 63.4940543 226.695054 63.4940543 226.695054 70.1540543 211.620054 70.1540543 211.620054 76.5360543 224.570054 76.5360543 224.570054 82.6860543 211.620054 82.6860543 211.620054 89.6700543"></polygon>
        <path d="M164.565054,34.787996 L169.423054,34.787996 C175.855687,34.773942 182.028921,37.3230491 186.57749,41.8716186 C191.126059,46.4201881 193.675167,52.5934211 193.661113,59.0260543 L193.661113,101.514054 C193.675167,107.946687 191.126059,114.119921 186.57749,118.66849 C182.028921,123.217059 175.855687,125.766167 169.423054,125.752113 L164.565054,125.752113 C158.132594,125.7659 151.959619,123.216676 147.411266,118.668135 C142.862913,114.119595 140.313943,107.946514 140.327996,101.514054 L140.327996,59.0260543 C140.313943,52.5935948 142.862913,46.4205141 147.411266,41.8719736 C151.959619,37.323433 158.132594,34.7742084 164.565054,34.787996 L164.565054,34.787996 Z" id="Path" fill="#EE8100"></path>
        <path d="M149.684054,102.802054 L149.684054,59.5120543 L164.506054,59.5120543 C167.786721,59.5120543 170.657721,60.0810543 173.119054,61.2190543 C175.579721,62.3570543 177.630388,63.901721 179.271054,65.8530543 C180.949054,67.8043876 182.198054,70.1010543 183.018054,72.7430543 C183.876054,75.3443876 184.305054,78.128721 184.305054,81.0960543 C184.305054,84.388721 183.838721,87.3763876 182.906054,90.0590543 C181.974054,92.7010543 180.631721,94.9773876 178.879054,96.8880543 C177.164388,98.7573876 175.076388,100.220721 172.615054,101.278054 C170.191721,102.294054 167.488388,102.802054 164.505054,102.802054 L149.684054,102.802054 Z M174.964054,81.0960543 C174.964054,79.1853876 174.721721,77.457721 174.237054,75.9130543 C173.790388,74.327721 173.119388,72.9660543 172.224054,71.8280543 C171.328721,70.6900543 170.228721,69.8160543 168.924054,69.2060543 C167.618721,68.596721 166.146054,68.2920543 164.506054,68.2920543 L158.856054,68.2920543 L158.856054,94.0220543 L164.506054,94.0220543 C166.183388,94.0220543 167.674721,93.696721 168.980054,93.0460543 C170.284721,92.3960543 171.366054,91.5020543 172.224054,90.3640543 C173.118721,89.184721 173.789721,87.8230543 174.237054,86.2790543 C174.721721,84.693721 174.964054,82.9660543 174.964054,81.0960543 L174.964054,81.0960543 Z" id="Shape" fill="#FFFFFF" fill-rule="nonzero"></path>
        <path d="M19.2680543,20.1540543 L19.2680543,29.6440543 L15.4340543,29.6440543 L15.4340543,13.0480543 L18.4260543,13.0480543 L26.1640543,22.7950543 L26.1640543,13.0480543 L29.9970543,13.0480543 L29.9970543,29.6440543 L26.9120543,29.6440543 L19.2680543,20.1540543 Z M40.3240543,26.3720543 C40.9780543,26.3720543 41.5313876,26.2393876 41.9840543,25.9740543 C42.4353876,25.6940543 42.8013876,25.3280543 43.0820543,24.8760543 C43.3620543,24.4240543 43.556721,23.909721 43.6660543,23.3330543 C43.790721,22.7410543 43.8530543,22.1410543 43.8530543,21.5330543 L43.8530543,13.0480543 L47.6870543,13.0480543 L47.6870543,21.5330543 C47.6870543,22.6863876 47.5390543,23.761721 47.2430543,24.7590543 C46.9630543,25.7563876 46.518721,26.6290543 45.9100543,27.3770543 C45.3180543,28.1250543 44.554721,28.7170543 43.6200543,29.1530543 C42.7000543,29.5743876 41.6013876,29.7850543 40.3240543,29.7850543 C38.9993876,29.7850543 37.8693876,29.5590543 36.9340543,29.1070543 C35.9993876,28.6550543 35.2360543,28.0550543 34.6440543,27.3070543 C34.0673876,26.5430543 33.638721,25.6623876 33.3580543,24.6650543 C33.092721,23.667721 32.9600543,22.623721 32.9600543,21.5330543 L32.9600543,13.0480543 L36.7940543,13.0480543 L36.7940543,21.5330543 C36.7940543,22.171721 36.8563876,22.7793876 36.9810543,23.3560543 C37.105721,23.932721 37.3083876,24.4470543 37.5890543,24.8990543 C37.8690543,25.3510543 38.2273876,25.7093876 38.6640543,25.9740543 C39.1160543,26.2393876 39.6693876,26.3720543 40.3240543,26.3720543 L40.3240543,26.3720543 Z M63.2800543,16.4140543 L58.2310543,16.4140543 L58.2310543,29.6440543 L54.3980543,29.6440543 L54.3980543,16.4140543 L49.3250543,16.4140543 L49.3250543,13.0480543 L63.2810543,13.0480543 L63.2800543,16.4140543 Z M65.1530543,29.6440543 L65.1530543,13.0480543 L72.6330543,13.0480543 C73.4123876,13.0480543 74.1290543,13.2113876 74.7830543,13.5380543 C75.453721,13.8653876 76.0303876,14.2940543 76.5130543,14.8240543 C76.9963876,15.3540543 77.3703876,15.9540543 77.6350543,16.6240543 C77.915721,17.2940543 78.0560543,17.9720543 78.0560543,18.6580543 C78.0560543,19.1720543 77.993721,19.670721 77.8690543,20.1540543 C77.7443876,20.6213876 77.5650543,21.0653876 77.3310543,21.4860543 C77.097721,21.906721 76.809721,22.288721 76.4670543,22.6320543 C76.139721,22.958721 75.765721,23.2390543 75.3450543,23.4730543 L78.9910543,29.6440543 L74.6670543,29.6440543 L71.4870543,24.2910543 L68.9870543,24.2910543 L68.9870543,29.6440543 L65.1530543,29.6440543 Z M68.9860543,20.9490543 L72.4930543,20.9490543 C72.9450543,20.9490543 73.3343876,20.7383876 73.6610543,20.3170543 C73.9883876,19.8810543 74.1520543,19.327721 74.1520543,18.6570543 C74.1520543,17.971721 73.9653876,17.426721 73.5920543,17.0220543 C73.2173876,16.616721 72.8120543,16.4140543 72.3760543,16.4140543 L68.9860543,16.4140543 L68.9860543,20.9490543 Z M80.8130543,29.6440543 L80.8130543,13.0480543 L84.6460543,13.0480543 L84.6460543,29.6440543 L80.8130543,29.6440543 Z M87.5160543,24.9000543 L87.5160543,21.5330543 L94.7160543,21.5330543 L94.7160543,24.8990543 L87.5160543,24.9000543 Z M107.526054,17.9100543 C107.479388,17.8473876 107.316054,17.730721 107.036054,17.5600543 C106.754721,17.3880543 106.403721,17.208721 105.983054,17.0220543 C105.563054,16.834721 105.103388,16.6710543 104.604054,16.5310543 C104.105388,16.3910543 103.606721,16.3210543 103.108054,16.3210543 C101.736721,16.3210543 101.051054,16.7803876 101.051054,17.6990543 C101.051054,17.979721 101.121054,18.213721 101.261054,18.4010543 C101.417054,18.587721 101.635388,18.7590543 101.916054,18.9150543 C102.212054,19.0550543 102.578388,19.1873876 103.015054,19.3120543 C103.451054,19.436721 103.957388,19.5770543 104.534054,19.7330543 C105.328721,19.9510543 106.045388,20.192721 106.684054,20.4580543 C107.323388,20.7073876 107.861054,21.026721 108.297054,21.4160543 C108.749054,21.7900543 109.092054,22.2500543 109.326054,22.7960543 C109.575388,23.340721 109.700054,23.9950543 109.700054,24.7590543 C109.700054,25.693721 109.520721,26.4883876 109.162054,27.1430543 C108.819388,27.7823876 108.359721,28.3043876 107.783054,28.7090543 C107.206388,29.0990543 106.544054,29.3873876 105.796054,29.5740543 C105.048054,29.7453876 104.276721,29.8310543 103.482054,29.8310543 C102.874054,29.8310543 102.250721,29.7843876 101.612054,29.6910543 C100.973388,29.597721 100.350054,29.4653876 99.7420543,29.2940543 C99.1340543,29.1073876 98.541721,28.8890543 97.9650543,28.6390543 C97.4043876,28.389721 96.8823876,28.1013876 96.3990543,27.7740543 L98.0820543,24.4320543 C98.144721,24.5093876 98.3473876,24.6573876 98.6900543,24.8760543 C99.032721,25.0940543 99.4533876,25.3120543 99.9520543,25.5300543 C100.466721,25.7480543 101.035721,25.9430543 101.659054,26.1150543 C102.282388,26.2863876 102.913388,26.3720543 103.552054,26.3720543 C104.908054,26.3720543 105.586054,25.958721 105.586054,25.1320543 C105.586054,24.820721 105.484721,24.5640543 105.282054,24.3620543 C105.079388,24.1593876 104.798721,23.9800543 104.440054,23.8240543 C104.082054,23.652721 103.653721,23.496721 103.155054,23.3560543 C102.671721,23.2160543 102.141721,23.0603876 101.565054,22.8890543 C100.801721,22.655721 100.139388,22.4063876 99.5780543,22.1410543 C99.0173876,21.8603876 98.5500543,21.540721 98.1760543,21.1820543 C97.8173876,20.8240543 97.544721,20.4110543 97.3580543,19.9430543 C97.186721,19.4763876 97.1010543,18.9310543 97.1010543,18.3070543 C97.1010543,17.4343876 97.2643876,16.6630543 97.5910543,15.9930543 C97.9183876,15.3230543 98.362721,14.7620543 98.9240543,14.3100543 C99.484721,13.842721 100.131388,13.4920543 100.864054,13.2580543 C101.612054,13.024721 102.398721,12.9080543 103.224054,12.9080543 C103.801388,12.9080543 104.370388,12.9623876 104.931054,13.0710543 C105.492388,13.1803876 106.030054,13.3203876 106.544054,13.4910543 C107.058721,13.6630543 107.534054,13.8580543 107.970054,14.0760543 C108.422054,14.294721 108.835054,14.5130543 109.209054,14.7310543 L107.526054,17.9100543 Z M110.991054,21.2060543 C110.991054,20.208721 111.178054,19.2190543 111.552054,18.2370543 C111.926054,17.239721 112.471388,16.3513876 113.188054,15.5720543 C113.905388,14.7933876 114.778054,14.1623876 115.806054,13.6790543 C116.834721,13.195721 118.003721,12.9540543 119.313054,12.9540543 C120.871054,12.9540543 122.219054,13.2890543 123.357054,13.9590543 C124.510388,14.629721 125.367388,15.5023876 125.928054,16.5770543 L122.983054,18.6340543 C122.796388,18.1980543 122.554721,17.839721 122.258054,17.5590543 C121.978054,17.2630543 121.666388,17.0293876 121.323054,16.8580543 C120.980388,16.6713876 120.629721,16.546721 120.271054,16.4840543 C119.912388,16.4060543 119.561721,16.3670543 119.219054,16.3670543 C118.487054,16.3670543 117.848054,16.5150543 117.302054,16.8110543 C116.756721,17.1070543 116.305054,17.4890543 115.947054,17.9570543 C115.588388,18.423721 115.323388,18.953721 115.152054,19.5470543 C114.980721,20.1383876 114.895054,20.7380543 114.895054,21.3460543 C114.895054,22.000721 114.996388,22.631721 115.199054,23.2390543 C115.401721,23.8470543 115.690054,24.384721 116.064054,24.8520543 C116.453388,25.3200543 116.913054,25.6940543 117.443054,25.9740543 C117.988388,26.2393876 118.596054,26.3720543 119.266054,26.3720543 C119.608721,26.3720543 119.959388,26.3330543 120.318054,26.2550543 C120.691388,26.161721 121.042054,26.0293876 121.370054,25.8580543 C121.712721,25.670721 122.024388,25.436721 122.305054,25.1560543 C122.585054,24.8600543 122.811054,24.501721 122.983054,24.0810543 L126.115054,25.9280543 C125.865721,26.5353876 125.491721,27.080721 124.993054,27.5640543 C124.509721,28.0473876 123.948721,28.4523876 123.310054,28.7790543 C122.671388,29.1063876 121.993388,29.355721 121.276054,29.5270543 C120.559388,29.6990543 119.858054,29.7850543 119.172054,29.7850543 C117.972054,29.7850543 116.865721,29.5433876 115.853054,29.0600543 C114.855721,28.5613876 113.990721,27.906721 113.258054,27.0960543 C112.541388,26.2860543 111.980388,25.366721 111.575054,24.3380543 C111.185721,23.3093876 110.991054,22.2653876 110.991054,21.2060543 L110.991054,21.2060543 Z M135.107054,29.7850543 C133.876388,29.7850543 132.754388,29.5433876 131.741054,29.0600543 C130.727721,28.576721 129.862721,27.945721 129.146054,27.1670543 C128.429388,26.371721 127.868388,25.467721 127.463054,24.4550543 C127.073721,23.441721 126.879054,22.397721 126.879054,21.3230543 C126.879054,20.231721 127.081721,19.179721 127.487054,18.1670543 C127.907721,17.153721 128.484388,16.2653876 129.217054,15.5020543 C129.965054,14.722721 130.845388,14.1070543 131.858054,13.6550543 C132.871388,13.1883876 133.978054,12.9550543 135.178054,12.9550543 C136.408721,12.9550543 137.530388,13.1963876 138.543054,13.6790543 C139.556388,14.1623876 140.421388,14.8013876 141.138054,15.5960543 C141.854721,16.390721 142.408054,17.2943876 142.798054,18.3070543 C143.187388,19.3203876 143.382054,20.3490543 143.382054,21.3930543 C143.382054,22.483721 143.171721,23.5353876 142.751054,24.5480543 C142.345721,25.5613876 141.777054,26.457721 141.045054,27.2370543 C140.312388,28.0003876 139.439721,28.615721 138.427054,29.0830543 C137.413721,29.5510543 136.307054,29.7850543 135.107054,29.7850543 L135.107054,29.7850543 Z M130.783054,21.3690543 C130.783054,22.0083876 130.876388,22.631721 131.063054,23.2390543 C131.249721,23.831721 131.522388,24.361721 131.881054,24.8290543 C132.255054,25.2963876 132.715054,25.6703876 133.261054,25.9510543 C133.806388,26.2310543 134.429721,26.3710543 135.131054,26.3710543 C135.863054,26.3710543 136.501721,26.2233876 137.047054,25.9280543 C137.593054,25.6313876 138.045054,25.2493876 138.403054,24.7820543 C138.761721,24.2993876 139.026721,23.761721 139.198054,23.1690543 C139.384721,22.561721 139.478054,21.9463876 139.478054,21.3230543 C139.478054,20.683721 139.384721,20.0680543 139.198054,19.4760543 C139.011388,18.8680543 138.730721,18.3380543 138.356054,17.8860543 C137.982721,17.4193876 137.523054,17.0533876 136.977054,16.7880543 C136.447721,16.5073876 135.832388,16.3670543 135.131054,16.3670543 C134.398388,16.3670543 133.759388,16.5150543 133.214054,16.8110543 C132.684054,17.0910543 132.232054,17.4650543 131.858054,17.9330543 C131.499388,18.4003876 131.226721,18.9380543 131.040054,19.5460543 C130.868721,20.1380543 130.783054,20.745721 130.783054,21.3690543 L130.783054,21.3690543 Z M145.597054,29.6440543 L145.597054,13.0480543 L153.077054,13.0480543 C153.857054,13.0480543 154.574054,13.2113876 155.228054,13.5380543 C155.898054,13.8653876 156.474721,14.2940543 156.958054,14.8240543 C157.440721,15.3540543 157.814721,15.9540543 158.080054,16.6240543 C158.360054,17.2940543 158.500054,17.9720543 158.500054,18.6580543 C158.500054,19.1720543 158.438054,19.670721 158.314054,20.1540543 C158.189388,20.6213876 158.010054,21.0653876 157.776054,21.4860543 C157.542721,21.906721 157.254388,22.288721 156.911054,22.6320543 C156.584388,22.958721 156.210388,23.2390543 155.789054,23.4730543 L159.436054,29.6440543 L155.111054,29.6440543 L151.932054,24.2910543 L149.431054,24.2910543 L149.431054,29.6440543 L145.597054,29.6440543 Z M149.431054,20.9490543 L152.937054,20.9490543 C153.389054,20.9490543 153.778721,20.7383876 154.106054,20.3170543 C154.432721,19.8810543 154.596054,19.327721 154.596054,18.6570543 C154.596054,17.971721 154.409388,17.426721 154.036054,17.0220543 C153.662054,16.616721 153.256721,16.4140543 152.820054,16.4140543 L149.430054,16.4140543 L149.431054,20.9490543 Z M172.921054,26.2780543 L172.921054,29.6440543 L161.257054,29.6440543 L161.257054,13.0480543 L172.711054,13.0480543 L172.711054,16.4140543 L165.091054,16.4140543 L165.091054,19.6400543 L171.636054,19.6400543 L171.636054,22.7490543 L165.091054,22.7490543 L165.091054,26.2790543 L172.921054,26.2780543 Z" id="Shape" fill="#7D7D7D" fill-rule="nonzero"></path>
    </g>
</svg>