<?xml version="1.0" encoding="UTF-8"?>
<svg width="428px" height="808px" viewBox="0 0 428 808" version="1.1" xmlns="http://www.w3.org/2000/svg" xmlns:xlink="http://www.w3.org/1999/xlink">
    <title>Fiche produit Pour moi complète</title>
    <defs>
        <rect id="path-1" x="0" y="0" width="186" height="37" rx="18.5"></rect>
    </defs>
    <g id="Fiche-produit-Pour-moi-complète" stroke="none" stroke-width="1" fill="none" fill-rule="evenodd">
        <rect fill="#FFFFFF" x="0" y="0" width="428" height="808"></rect>
        <g id="Group-2" transform="translate(214, 744)">
            <mask id="mask-2" fill="white">
                <use xlink:href="#path-1"></use>
            </mask>
            <use id="Mask" stroke="#D3D3D3" xlink:href="#path-1"></use>
            <g id="ic_edit" mask="url(#mask-2)" fill="#341100" fill-rule="nonzero">
                <g transform="translate(24, 9)" id="Shape">
                    <path d="M16.171875,0 C15.448125,0 14.724375,0.275625 14.171875,0.828125 L13,2 L17,6 L18.171875,4.828125 C19.275875,3.724125 19.275875,1.933125 18.171875,0.828125 C17.619375,0.275625 16.895625,0 16.171875,0 Z M11.5,3.5 L0,15 L0,19 L4,19 L15.5,7.5 L11.5,3.5 Z"></path>
                </g>
            </g>
            <text id="Personnaliser" font-family="GoogleSans-Bold, Google Sans" font-size="15" font-weight="bold" fill="#666666">
                <tspan x="54" y="23">Personnaliser</tspan>
            </text>
        </g>
        <g id="Espèces-menacées" transform="translate(-13, 0)">
            <g id="Group" transform="translate(11, 72)">
                <g id="Group-9">
                    <text id="N’est-pas-végétalien" font-family="GoogleSans-Regular, Google Sans" font-size="15" font-weight="normal" fill="#000000">
                        <tspan x="63" y="15">N’est pas végétalien</tspan>
                    </text>
                    <circle id="Oval" fill="#EB5757" cx="40" cy="12" r="12"></circle>
                    <path d="M399,6.3320311 C398.699194,6.3320311 398.398486,6.4439691 398.137153,6.6679691 L392.575738,11.4335941 C392.215627,11.7425941 392,12.2623591 392,12.8183591 C392,14.1473591 393.152582,14.9401251 394.012804,14.2031251 L399,9.9277341 L403.987196,14.2050781 C404.847418,14.9420781 406,14.1473591 406,12.8183591 C406,12.2613591 405.783596,11.7425941 405.424262,11.4335941 L399.862847,6.6679691 C399.601514,6.4439691 399.300806,6.3320311 399,6.3320311 Z" id="Path" fill="#8F8F8F" transform="translate(399, 10.4095) rotate(90) translate(-399, -10.4095)"></path>
                    <line x1="7.30743591e-14" y1="41.5" x2="444" y2="41.5" id="Line" stroke="#E4E4E4" stroke-linecap="square"></line>
                </g>
                <g id="Group-9" transform="translate(0, 63)">
                    <text id="Contient-de-la-mouta" font-family="GoogleSans-Regular, Google Sans" font-size="15" font-weight="normal" fill="#000000">
                        <tspan x="63" y="15">Contient de la moutarde</tspan>
                    </text>
                    <circle id="Oval" fill="#EB5757" cx="40" cy="12" r="12"></circle>
                    <path d="M399,6.3320311 C398.699194,6.3320311 398.398486,6.4439691 398.137153,6.6679691 L392.575738,11.4335941 C392.215627,11.7425941 392,12.2623591 392,12.8183591 C392,14.1473591 393.152582,14.9401251 394.012804,14.2031251 L399,9.9277341 L403.987196,14.2050781 C404.847418,14.9420781 406,14.1473591 406,12.8183591 C406,12.2613591 405.783596,11.7425941 405.424262,11.4335941 L399.862847,6.6679691 C399.601514,6.4439691 399.300806,6.3320311 399,6.3320311 Z" id="Path" fill="#8F8F8F" transform="translate(399, 10.4095) rotate(90) translate(-399, -10.4095)"></path>
                    <line x1="7.30743591e-14" y1="41.5" x2="444" y2="41.5" id="Line" stroke="#E4E4E4" stroke-linecap="square"></line>
                </g>
            </g>
            <g id="Title">
                <rect id="Rectangle" fill="#52443D" x="0" y="0" width="450" height="46"></rect>
                <text id="Nutrition" fill="#FFFFFF" fill-rule="nonzero" font-family="GoogleSans-Medium, Google Sans" font-size="15" font-weight="400">
                    <tspan x="74" y="28">Préférences alimentaires : Très important</tspan>
                </text>
                <g id="Nutrition" transform="translate(44, 15)" fill="#FFFFFF" fill-rule="nonzero">
                    <path d="M12.75,4.50412208 C12.75,3.26662208 11.7375,2.25412208 10.5,2.25412208 L9.96,2.25412208 C9.3825,1.37662208 8.475,0.581622082 8.025,0.206622082 C7.7475,-0.0558779182 7.3125,-0.0708779182 7.02,0.176622082 C6.525,0.574122082 5.6175,1.37662208 5.0325,2.25412208 L4.5,2.25412208 C3.2625,2.25412208 2.25,3.26662208 2.25,4.50412208 C1.0125,4.50412208 0,5.51662208 0,6.75412208 C0,7.81912208 0.7425,8.71162208 1.74,8.94412208 L2.1075,12.2516221 C2.235,13.3916221 3.195,14.2541221 4.3425,14.2541221 L10.6575,14.2541221 C11.805,14.2541221 12.765,13.3916221 12.8925,12.2516221 L13.26,8.94412208 C14.2575,8.71162208 15,7.81912208 15,6.75412208 C15,5.51662208 13.9875,4.50412208 12.75,4.50412208 Z M5.25,9.00412208 C4.8375,9.00412208 4.5,8.66662208 4.5,8.25412208 C4.5,7.84162208 4.8375,7.50412208 5.25,7.50412208 C5.6625,7.50412208 6,7.84162208 6,8.25412208 C6,8.66662208 5.6625,9.00412208 5.25,9.00412208 Z M7.5,11.2541221 C6.675,11.2541221 6,10.5791221 6,9.75412208 L9,9.75412208 C9,10.5791221 8.325,11.2541221 7.5,11.2541221 Z M9.75,9.00412208 C9.3375,9.00412208 9,8.66662208 9,8.25412208 C9,7.84162208 9.3375,7.50412208 9.75,7.50412208 C10.1625,7.50412208 10.5,7.84162208 10.5,8.25412208 C10.5,8.66662208 10.1625,9.00412208 9.75,9.00412208 Z" id="Shape"></path>
                </g>
            </g>
        </g>
        <g id="Espèces-menacées" transform="translate(-13, 177)">
            <g id="Group" transform="translate(11, 72)">
                <g id="Group-9">
                    <text id="N’est-pas-végétalien" font-family="GoogleSans-Regular, Google Sans" font-size="15" font-weight="normal" fill="#000000">
                        <tspan x="63" y="15">N’est pas végétalien</tspan>
                    </text>
                    <circle id="Oval" fill="#EB5757" cx="40" cy="12" r="12"></circle>
                    <path d="M399,6.3320311 C398.699194,6.3320311 398.398486,6.4439691 398.137153,6.6679691 L392.575738,11.4335941 C392.215627,11.7425941 392,12.2623591 392,12.8183591 C392,14.1473591 393.152582,14.9401251 394.012804,14.2031251 L399,9.9277341 L403.987196,14.2050781 C404.847418,14.9420781 406,14.1473591 406,12.8183591 C406,12.2613591 405.783596,11.7425941 405.424262,11.4335941 L399.862847,6.6679691 C399.601514,6.4439691 399.300806,6.3320311 399,6.3320311 Z" id="Path" fill="#8F8F8F" transform="translate(399, 10.4095) rotate(90) translate(-399, -10.4095)"></path>
                    <line x1="7.30743591e-14" y1="41.5" x2="444" y2="41.5" id="Line" stroke="#E4E4E4" stroke-linecap="square"></line>
                </g>
                <g id="Group-9" transform="translate(0, 63)">
                    <text id="Contient-de-la-mouta" font-family="GoogleSans-Regular, Google Sans" font-size="15" font-weight="normal" fill="#000000">
                        <tspan x="63" y="15">Contient de la moutarde</tspan>
                    </text>
                    <circle id="Oval" fill="#EB5757" cx="40" cy="12" r="12"></circle>
                    <path d="M399,6.3320311 C398.699194,6.3320311 398.398486,6.4439691 398.137153,6.6679691 L392.575738,11.4335941 C392.215627,11.7425941 392,12.2623591 392,12.8183591 C392,14.1473591 393.152582,14.9401251 394.012804,14.2031251 L399,9.9277341 L403.987196,14.2050781 C404.847418,14.9420781 406,14.1473591 406,12.8183591 C406,12.2613591 405.783596,11.7425941 405.424262,11.4335941 L399.862847,6.6679691 C399.601514,6.4439691 399.300806,6.3320311 399,6.3320311 Z" id="Path" fill="#8F8F8F" transform="translate(399, 10.4095) rotate(90) translate(-399, -10.4095)"></path>
                    <line x1="7.30743591e-14" y1="41.5" x2="444" y2="41.5" id="Line" stroke="#E4E4E4" stroke-linecap="square"></line>
                </g>
            </g>
            <g id="Title">
                <rect id="Rectangle" fill="#52443D" x="0" y="0" width="450" height="46"></rect>
                <text id="Nutrition" fill="#FFFFFF" fill-rule="nonzero" font-family="GoogleSans-Medium, Google Sans" font-size="15" font-weight="400">
                    <tspan x="74" y="28">Préférences alimentaires : important</tspan>
                </text>
                <g id="Nutrition" transform="translate(44, 15)" fill="#FFFFFF" fill-rule="nonzero">
                    <path d="M12.75,4.50412208 C12.75,3.26662208 11.7375,2.25412208 10.5,2.25412208 L9.96,2.25412208 C9.3825,1.37662208 8.475,0.581622082 8.025,0.206622082 C7.7475,-0.0558779182 7.3125,-0.0708779182 7.02,0.176622082 C6.525,0.574122082 5.6175,1.37662208 5.0325,2.25412208 L4.5,2.25412208 C3.2625,2.25412208 2.25,3.26662208 2.25,4.50412208 C1.0125,4.50412208 0,5.51662208 0,6.75412208 C0,7.81912208 0.7425,8.71162208 1.74,8.94412208 L2.1075,12.2516221 C2.235,13.3916221 3.195,14.2541221 4.3425,14.2541221 L10.6575,14.2541221 C11.805,14.2541221 12.765,13.3916221 12.8925,12.2516221 L13.26,8.94412208 C14.2575,8.71162208 15,7.81912208 15,6.75412208 C15,5.51662208 13.9875,4.50412208 12.75,4.50412208 Z M5.25,9.00412208 C4.8375,9.00412208 4.5,8.66662208 4.5,8.25412208 C4.5,7.84162208 4.8375,7.50412208 5.25,7.50412208 C5.6625,7.50412208 6,7.84162208 6,8.25412208 C6,8.66662208 5.6625,9.00412208 5.25,9.00412208 Z M7.5,11.2541221 C6.675,11.2541221 6,10.5791221 6,9.75412208 L9,9.75412208 C9,10.5791221 8.325,11.2541221 7.5,11.2541221 Z M9.75,9.00412208 C9.3375,9.00412208 9,8.66662208 9,8.25412208 C9,7.84162208 9.3375,7.50412208 9.75,7.50412208 C10.1625,7.50412208 10.5,7.84162208 10.5,8.25412208 C10.5,8.66662208 10.1625,9.00412208 9.75,9.00412208 Z" id="Shape"></path>
                </g>
            </g>
        </g>
        <g id="Espèces-menacées" transform="translate(-13, 354)">
            <g id="Group" transform="translate(11, 72)">
                <g id="Group-9">
                    <text id="N’est-pas-végétalien" font-family="GoogleSans-Regular, Google Sans" font-size="15" font-weight="normal" fill="#000000">
                        <tspan x="63" y="15">N’est pas végétalien</tspan>
                    </text>
                    <circle id="Oval" fill="#EB5757" cx="40" cy="12" r="12"></circle>
                    <path d="M399,6.3320311 C398.699194,6.3320311 398.398486,6.4439691 398.137153,6.6679691 L392.575738,11.4335941 C392.215627,11.7425941 392,12.2623591 392,12.8183591 C392,14.1473591 393.152582,14.9401251 394.012804,14.2031251 L399,9.9277341 L403.987196,14.2050781 C404.847418,14.9420781 406,14.1473591 406,12.8183591 C406,12.2613591 405.783596,11.7425941 405.424262,11.4335941 L399.862847,6.6679691 C399.601514,6.4439691 399.300806,6.3320311 399,6.3320311 Z" id="Path" fill="#8F8F8F" transform="translate(399, 10.4095) rotate(90) translate(-399, -10.4095)"></path>
                    <line x1="7.30743591e-14" y1="41.5" x2="444" y2="41.5" id="Line" stroke="#E4E4E4" stroke-linecap="square"></line>
                </g>
                <g id="Group-9" transform="translate(0, 63)">
                    <text id="Contient-de-la-mouta" font-family="GoogleSans-Regular, Google Sans" font-size="15" font-weight="normal" fill="#000000">
                        <tspan x="63" y="15">Contient de la moutarde</tspan>
                    </text>
                    <circle id="Oval" fill="#EB5757" cx="40" cy="12" r="12"></circle>
                    <path d="M399,6.3320311 C398.699194,6.3320311 398.398486,6.4439691 398.137153,6.6679691 L392.575738,11.4335941 C392.215627,11.7425941 392,12.2623591 392,12.8183591 C392,14.1473591 393.152582,14.9401251 394.012804,14.2031251 L399,9.9277341 L403.987196,14.2050781 C404.847418,14.9420781 406,14.1473591 406,12.8183591 C406,12.2613591 405.783596,11.7425941 405.424262,11.4335941 L399.862847,6.6679691 C399.601514,6.4439691 399.300806,6.3320311 399,6.3320311 Z" id="Path" fill="#8F8F8F" transform="translate(399, 10.4095) rotate(90) translate(-399, -10.4095)"></path>
                    <line x1="7.30743591e-14" y1="41.5" x2="444" y2="41.5" id="Line" stroke="#E4E4E4" stroke-linecap="square"></line>
                </g>
            </g>
            <g id="Title">
                <rect id="Rectangle" fill="#52443D" x="0" y="0" width="450" height="46"></rect>
                <text id="Nutrition" fill="#FFFFFF" fill-rule="nonzero" font-family="GoogleSans-Medium, Google Sans" font-size="15" font-weight="400">
                    <tspan x="74" y="28">Préférences alimentaires : Pas important</tspan>
                </text>
                <g id="Nutrition" transform="translate(44, 15)" fill="#FFFFFF" fill-rule="nonzero">
                    <path d="M12.75,4.50412208 C12.75,3.26662208 11.7375,2.25412208 10.5,2.25412208 L9.96,2.25412208 C9.3825,1.37662208 8.475,0.581622082 8.025,0.206622082 C7.7475,-0.0558779182 7.3125,-0.0708779182 7.02,0.176622082 C6.525,0.574122082 5.6175,1.37662208 5.0325,2.25412208 L4.5,2.25412208 C3.2625,2.25412208 2.25,3.26662208 2.25,4.50412208 C1.0125,4.50412208 0,5.51662208 0,6.75412208 C0,7.81912208 0.7425,8.71162208 1.74,8.94412208 L2.1075,12.2516221 C2.235,13.3916221 3.195,14.2541221 4.3425,14.2541221 L10.6575,14.2541221 C11.805,14.2541221 12.765,13.3916221 12.8925,12.2516221 L13.26,8.94412208 C14.2575,8.71162208 15,7.81912208 15,6.75412208 C15,5.51662208 13.9875,4.50412208 12.75,4.50412208 Z M5.25,9.00412208 C4.8375,9.00412208 4.5,8.66662208 4.5,8.25412208 C4.5,7.84162208 4.8375,7.50412208 5.25,7.50412208 C5.6625,7.50412208 6,7.84162208 6,8.25412208 C6,8.66662208 5.6625,9.00412208 5.25,9.00412208 Z M7.5,11.2541221 C6.675,11.2541221 6,10.5791221 6,9.75412208 L9,9.75412208 C9,10.5791221 8.325,11.2541221 7.5,11.2541221 Z M9.75,9.00412208 C9.3375,9.00412208 9,8.66662208 9,8.25412208 C9,7.84162208 9.3375,7.50412208 9.75,7.50412208 C10.1625,7.50412208 10.5,7.84162208 10.5,8.25412208 C10.5,8.66662208 10.1625,9.00412208 9.75,9.00412208 Z" id="Shape"></path>
                </g>
            </g>
        </g>
    </g>
</svg>