<?xml version="1.0" encoding="UTF-8"?>
<svg width="428px" height="1451px" viewBox="0 0 428 1451" version="1.1" xmlns="http://www.w3.org/2000/svg" xmlns:xlink="http://www.w3.org/1999/xlink">
    <title>Fiche produit environnement complète</title>
    <defs>
        <rect id="path-1" x="0" y="1" width="378" height="52" rx="5"></rect>
    </defs>
    <g id="Fiche-produit-environnement-complète" stroke="none" stroke-width="1" fill="none" fill-rule="evenodd">
        <rect fill="#FFFFFF" x="0" y="0" width="428" height="1451"></rect>
        <g id="Espèces-menacées" transform="translate(-11, 1273)">
            <g id="Group-9" transform="translate(39, 72)">
                <text id="Contient-de-l’huile" font-family="GoogleSans-Regular, Google Sans" font-size="15" font-weight="normal" fill="#000000">
                    <tspan x="35" y="15">Contient de l’huile de palme</tspan>
                </text>
                <circle id="Oval" fill="#EB5757" cx="12" cy="12" r="12"></circle>
                <path d="M371,6.3320311 C370.699194,6.3320311 370.398486,6.4439691 370.137153,6.6679691 L364.575738,11.4335941 C364.215627,11.7425941 364,12.2623591 364,12.8183591 C364,14.1473591 365.152582,14.9401251 366.012804,14.2031251 L371,9.9277341 L375.987196,14.2050781 C376.847418,14.9420781 378,14.1473591 378,12.8183591 C378,12.2613591 377.783596,11.7425941 377.424262,11.4335941 L371.862847,6.6679691 C371.601514,6.4439691 371.300806,6.3320311 371,6.3320311 Z" id="Path" fill="#8F8F8F" transform="translate(371, 10.4095) rotate(90) translate(-371, -10.4095)"></path>
            </g>
            <rect id="Rectangle" fill="#F9F9F9" x="11" y="113.5" width="428" height="57"></rect>
            <line x1="11" y1="113.5" x2="455" y2="113.5" id="Line" stroke="#E4E4E4" stroke-linecap="square"></line>
            <text id="Stimule-la-déforesta" font-family="GoogleSans-Regular, Google Sans" font-size="15" font-weight="normal" fill="#373737">
                <tspan x="75" y="142">Stimule la déforestation et menance </tspan>
                <tspan x="75" y="161">des espèces telles que l’orang-outan</tspan>
            </text>
            <g id="ic_info" transform="translate(41.5, 138)" fill="#373737" fill-rule="nonzero">
                <g id="icons8-info">
                    <path d="M9,0 C4.0293,0 0,4.0293 0,9 C0,13.9707 4.0293,18 9,18 C13.9707,18 18,13.9707 18,9 C18,4.0293 13.9707,0 9,0 Z M9,13.5 L9,13.5 C8.5032,13.5 8.1,13.0968 8.1,12.6 L8.1,9 C8.1,8.5032 8.5032,8.1 9,8.1 L9,8.1 C9.4968,8.1 9.9,8.5032 9.9,9 L9.9,12.6 C9.9,13.0968 9.4968,13.5 9,13.5 Z M9.45,6.3 L8.55,6.3 C8.3016,6.3 8.1,6.0984 8.1,5.85 L8.1,4.95 C8.1,4.7016 8.3016,4.5 8.55,4.5 L9.45,4.5 C9.6984,4.5 9.9,4.7016 9.9,4.95 L9.9,5.85 C9.9,6.0984 9.6984,6.3 9.45,6.3 Z" id="Shape"></path>
                </g>
            </g>
            <g id="Title">
                <rect id="Rectangle" fill="#EDE0DB" x="0" y="0" width="450" height="46"></rect>
                <text id="Nutrition" fill-rule="nonzero" font-family="GoogleSans-Medium, Google Sans" font-size="15" font-weight="400" fill="#000000">
                    <tspan x="74" y="28">Espèces menacées</tspan>
                </text>
                <g id="Nutrition" transform="translate(45, 14)" fill="#000000" fill-rule="nonzero">
                    <path d="M6,0 C2.7304686,0 0,2.44043352 0,5.52587244 C0,7.18892916 1.0289064,8.52226218 1.95,9.60770156 C2.4117186,10.1492177 2.859375,10.6450062 3.16875,11.0517449 C3.478125,11.4584836 3.6,11.77136 3.6,11.8604091 L3.6,14.3249097 C3.6,14.4139589 3.6328128,14.4861614 3.675,14.5559567 C3.8484378,15.0709991 4.3523436,15.4031288 4.89375,15.4031288 L5.025,15.4031288 C5.221875,15.7569195 5.5757814,16 6,16 C6.4242186,16 6.778125,15.7569195 6.975,15.4031288 L7.10625,15.4031288 C7.6476564,15.4031288 8.1515628,15.0709991 8.325,14.5559567 C8.3671878,14.4861614 8.4,14.4139589 8.4,14.3249097 L8.4,11.8796631 C8.4,11.7882073 8.521875,11.456077 8.83125,11.0517449 C9.140625,10.6474128 9.590625,10.1684716 10.05,9.62695548 C10.9710936,8.54632988 12,7.20818307 12,5.52587244 C12,2.44043352 9.2695314,0 6,0 Z M6,1 C8.81005875,1 11,2.94552967 11,5.25868056 C11,6.39735228 10.1943362,7.50260417 9.28125,8.52430556 C8.82470688,9.03515656 8.35351562,9.51974811 7.97265625,9.99479167 C7.59179688,10.4698352 7.25,10.9424912 7.25,11.5607639 L7.25,12 L6.2734375,12 C6.53710938,11.5798611 6.84472688,10.6655814 6.625,8.75347222 C6.32714875,6.16818561 5.10888687,5.80056439 5.43359375,3.84548611 C5.44091812,5.5523005 7.02539062,5.90798611 7.26953125,8.77256944 C8.24609375,9.09722222 9.10546875,7.59570328 9.10546875,6.15625 C9.10546875,3.85026072 5.76318375,3.00282133 5.55078125,1.84027778 C4.28125,2.43467867 1.9326175,5.41145833 3.34375,7.77951389 C4.78662125,10.2024741 6.0732425,8.44314267 6.0390625,9.02083333 C6.16601562,10.7610676 5.4140625,11.8185764 5.12109375,12 L4.75,12 L4.75,11.5416667 C4.75,10.9233939 4.40820312,10.453125 4.02734375,9.97569444 C3.64648438,9.49826389 3.17773438,9.01844633 2.71875,8.50520833 C1.8032225,7.47634533 1,6.36631944 1,5.25868056 C1,2.94552967 3.18994125,1 6,1 Z" id="Shape"></path>
                </g>
            </g>
        </g>
        <g id="Transport" transform="translate(-11, 1105)">
            <g id="Group-8" transform="translate(11, 110.5)">
                <rect id="Rectangle" fill="#F9F9F9" x="0" y="0.5" width="428" height="57"></rect>
                <line x1="7.30743591e-14" y1="0.5" x2="444" y2="0.5" id="Line" stroke="#E4E4E4" stroke-linecap="square"></line>
                <text id="Informations-manquan" font-family="GoogleSans-Regular, Google Sans" font-size="15" font-weight="normal" fill="#373737">
                    <tspan x="64" y="26.5">Informations manquantes sur les origines des </tspan>
                    <tspan x="64" y="45.5">ingrédients</tspan>
                </text>
                <g id="ic_info" transform="translate(29.5, 20.5)" fill="#373737" fill-rule="nonzero">
                    <g id="icons8-info">
                        <path d="M9,0 C4.0293,0 0,4.0293 0,9 C0,13.9707 4.0293,18 9,18 C13.9707,18 18,13.9707 18,9 C18,4.0293 13.9707,0 9,0 Z M9,13.5 L9,13.5 C8.5032,13.5 8.1,13.0968 8.1,12.6 L8.1,9 C8.1,8.5032 8.5032,8.1 9,8.1 L9,8.1 C9.4968,8.1 9.9,8.5032 9.9,9 L9.9,12.6 C9.9,13.0968 9.4968,13.5 9,13.5 Z M9.45,6.3 L8.55,6.3 C8.3016,6.3 8.1,6.0984 8.1,5.85 L8.1,4.95 C8.1,4.7016 8.3016,4.5 8.55,4.5 L9.45,4.5 C9.6984,4.5 9.9,4.7016 9.9,4.95 L9.9,5.85 C9.9,6.0984 9.6984,6.3 9.45,6.3 Z" id="Shape"></path>
                    </g>
                </g>
            </g>
            <g id="Group-5" transform="translate(38, 68)">
                <text id="Origine-des-ingrédie" font-family="GoogleSans-Regular, Google Sans" font-size="15" font-weight="normal" fill="#000000">
                    <tspan x="35" y="16">Origine des ingrédients</tspan>
                </text>
                <circle id="Oval" fill="#666666" cx="12" cy="12" r="12"></circle>
                <path d="M371,6.3320311 C370.699194,6.3320311 370.398486,6.4439691 370.137153,6.6679691 L364.575738,11.4335941 C364.215627,11.7425941 364,12.2623591 364,12.8183591 C364,14.1473591 365.152582,14.9401251 366.012804,14.2031251 L371,9.9277341 L375.987196,14.2050781 C376.847418,14.9420781 378,14.1473591 378,12.8183591 C378,12.2613591 377.783596,11.7425941 377.424262,11.4335941 L371.862847,6.6679691 C371.601514,6.4439691 371.300806,6.3320311 371,6.3320311 Z" id="Path" fill="#8F8F8F" transform="translate(371, 10.4095) rotate(90) translate(-371, -10.4095)"></path>
            </g>
            <g id="Title">
                <rect id="Rectangle" fill="#EDE0DB" x="0" y="0" width="450" height="46"></rect>
                <text id="Nutrition" fill-rule="nonzero" font-family="GoogleSans-Medium, Google Sans" font-size="15" font-weight="400" fill="#000000">
                    <tspan x="74" y="28">Transport</tspan>
                </text>
                <g id="Nutrition" transform="translate(45, 14)" fill="#000000" fill-rule="nonzero">
                    <path d="M6,0 C2.7304686,0 0,2.44043352 0,5.52587244 C0,7.18892916 1.0289064,8.52226218 1.95,9.60770156 C2.4117186,10.1492177 2.859375,10.6450062 3.16875,11.0517449 C3.478125,11.4584836 3.6,11.77136 3.6,11.8604091 L3.6,14.3249097 C3.6,14.4139589 3.6328128,14.4861614 3.675,14.5559567 C3.8484378,15.0709991 4.3523436,15.4031288 4.89375,15.4031288 L5.025,15.4031288 C5.221875,15.7569195 5.5757814,16 6,16 C6.4242186,16 6.778125,15.7569195 6.975,15.4031288 L7.10625,15.4031288 C7.6476564,15.4031288 8.1515628,15.0709991 8.325,14.5559567 C8.3671878,14.4861614 8.4,14.4139589 8.4,14.3249097 L8.4,11.8796631 C8.4,11.7882073 8.521875,11.456077 8.83125,11.0517449 C9.140625,10.6474128 9.590625,10.1684716 10.05,9.62695548 C10.9710936,8.54632988 12,7.20818307 12,5.52587244 C12,2.44043352 9.2695314,0 6,0 Z M6,1 C8.81005875,1 11,2.94552967 11,5.25868056 C11,6.39735228 10.1943362,7.50260417 9.28125,8.52430556 C8.82470688,9.03515656 8.35351562,9.51974811 7.97265625,9.99479167 C7.59179688,10.4698352 7.25,10.9424912 7.25,11.5607639 L7.25,12 L6.2734375,12 C6.53710938,11.5798611 6.84472688,10.6655814 6.625,8.75347222 C6.32714875,6.16818561 5.10888687,5.80056439 5.43359375,3.84548611 C5.44091812,5.5523005 7.02539062,5.90798611 7.26953125,8.77256944 C8.24609375,9.09722222 9.10546875,7.59570328 9.10546875,6.15625 C9.10546875,3.85026072 5.76318375,3.00282133 5.55078125,1.84027778 C4.28125,2.43467867 1.9326175,5.41145833 3.34375,7.77951389 C4.78662125,10.2024741 6.0732425,8.44314267 6.0390625,9.02083333 C6.16601562,10.7610676 5.4140625,11.8185764 5.12109375,12 L4.75,12 L4.75,11.5416667 C4.75,10.9233939 4.40820312,10.453125 4.02734375,9.97569444 C3.64648438,9.49826389 3.17773438,9.01844633 2.71875,8.50520833 C1.8032225,7.47634533 1,6.36631944 1,5.25868056 C1,2.94552967 3.18994125,1 6,1 Z" id="Shape"></path>
                </g>
            </g>
        </g>
        <g id="Emballage" transform="translate(-11, 331)">
            <g id="Group-4" transform="translate(5.5, 69)">
                <text id="Emballage-à-fort-imp" font-family="GoogleSans-Regular, Google Sans" font-size="15" font-weight="normal" fill="#000000">
                    <tspan x="69" y="16">Emballage à fort impact</tspan>
                </text>
                <g id="Elements-d'emballage" transform="translate(5.5, 45)">
                    <rect id="Rectangle" fill="#E6E6E6" x="55.5" y="51" width="373" height="52"></rect>
                    <rect id="Rectangle" fill="#F9F9F9" x="0" y="1" width="428" height="358"></rect>
                    <g id="Group-6" transform="translate(55, 48)">
                        <rect id="Rectangle" fill="#E6E6E6" x="0" y="0" width="373" height="54"></rect>
                        <text id="Qte" font-family="GoogleSans-Bold, Google Sans" font-size="15" font-weight="bold" fill="#000000">
                            <tspan x="321.325" y="34">Qte </tspan>
                        </text>
                        <text id="Produit" font-family="GoogleSans-Bold, Google Sans" font-size="15" font-weight="bold" fill="#000000">
                            <tspan x="8.5" y="34">Produit</tspan>
                        </text>
                    </g>
                    <g id="Group-3" transform="translate(29, 12)">
                        <text id="Eléments-d’emballage" font-family="GoogleSans-Bold, Google Sans" font-size="15" font-weight="bold" fill="#000000">
                            <tspan x="34.5" y="18">Eléments d’emballage :</tspan>
                        </text>
                        <g id="packaging">
                            <polygon id="Path" points="0 0 24 0 24 24 0 24"></polygon>
                            <path d="M5,6 L3,10 L3,21 L4,22 L10,22 L11,21 L11,10 L8.941,6 L5,6 Z M4,12 L10,12 L10,17 L4,17 L4,12 Z M5,3 L9,3 L9,5 L5,5 L5,3 Z M13,14 L21,14 L21,22 L13,22 L13,15.063 L13,14 Z M13,11 L21,11 L21,13 L13,13 L13,11 Z" id="Shape" fill="#000000" fill-rule="nonzero"></path>
                        </g>
                    </g>
                    <line x1="7.30743591e-14" y1="47.5" x2="444" y2="47" id="Line" stroke="#E4E4E4" stroke-linecap="square"></line>
                    <line x1="7.30743591e-14" y1="1" x2="444" y2="0.5" id="Line" stroke="#E4E4E4" stroke-linecap="square"></line>
                    <g id="Group" transform="translate(63.5, 118)" font-family="GoogleSans-Regular, Google Sans" font-size="15" font-weight="normal">
                        <text id="Opercule-(82-C/PAP-:">
                            <tspan x="0" y="14" fill="#000000">Opercule</tspan>
                            <tspan x="63.63" y="14" font-family="GoogleSans-Bold, Google Sans" font-weight="bold" fill="#000000"> </tspan>
                            <tspan x="67.14" y="14" fill="#000000"></tspan>
                            <tspan x="0" y="34" fill="#8F8F8F">(82 C/PAP : 0,3g)</tspan>
                        </text>
                        <text id="1" fill="#000000">
                            <tspan x="330.3" y="22">1</tspan>
                        </text>
                    </g>
                    <g id="Group" transform="translate(55.5, 168)">
                        <rect id="Rectangle" fill="#E6E6E6" x="0" y="0" width="373" height="66"></rect>
                        <text id="Couvercle-(PP-5---Po" font-family="GoogleSans-Regular, Google Sans" font-size="15" font-weight="normal">
                            <tspan x="9" y="30" fill="#000000">Couvercle</tspan>
                            <tspan x="79.05" y="30" font-family="GoogleSans-Bold, Google Sans" font-weight="bold" fill="#000000"> </tspan>
                            <tspan x="82.56" y="30" fill="#000000"></tspan>
                            <tspan x="9" y="50" fill="#8F8F8F">(PP 5 - Polypropylène : 8g)</tspan>
                        </text>
                        <text id="1" font-family="GoogleSans-Regular, Google Sans" font-size="15" font-weight="normal" fill="#000000">
                            <tspan x="339.3" y="38">1</tspan>
                        </text>
                    </g>
                    <g id="Group" transform="translate(64.5, 246)" font-family="GoogleSans-Regular, Google Sans" font-size="15" font-weight="normal">
                        <text id="Support-(Carton-non">
                            <tspan x="0" y="14" fill="#000000">Support</tspan>
                            <tspan x="54.885" y="14" font-family="GoogleSans-Bold, Google Sans" font-weight="bold" fill="#000000"></tspan>
                            <tspan x="0" y="34" fill="#8F8F8F">(Carton non ondulé : 2,2g)</tspan>
                        </text>
                        <text id="1" fill="#000000">
                            <tspan x="330.3" y="22">1</tspan>
                        </text>
                    </g>
                    <g id="Group" transform="translate(56.5, 297)">
                        <rect id="Rectangle" fill="#E6E6E6" x="0" y="0" width="373" height="62"></rect>
                        <text id="Etiquette-(Papier-:" font-family="GoogleSans-Regular, Google Sans" font-size="15" font-weight="normal">
                            <tspan x="8" y="25" fill="#000000">Etiquette</tspan>
                            <tspan x="69.635" y="25" font-family="GoogleSans-Bold, Google Sans" font-weight="bold" fill="#000000"> </tspan>
                            <tspan x="73.145" y="25" fill="#000000"></tspan>
                            <tspan x="8" y="45" fill="#8F8F8F">(Papier : 0,1g)</tspan>
                        </text>
                        <text id="2" font-family="GoogleSans-Regular, Google Sans" font-size="15" font-weight="normal" fill="#000000">
                            <tspan x="335.125" y="35">2</tspan>
                        </text>
                    </g>
                    <line x1="362" y1="360.75" x2="361.5" y2="48.5" id="Line" stroke="#D4D4D4" stroke-linecap="square"></line>
                    <line x1="56" y1="360.25" x2="55.5" y2="48" id="Line" stroke="#D4D4D4" stroke-linecap="square"></line>
                </g>
                <g id="Elements-d'emballage" transform="translate(0, 403)">
                    <rect id="Rectangle" fill="#F9F9F9" x="5.5" y="1" width="428" height="301"></rect>
                    <g id="Group-6" transform="translate(59.5, 51)">
                        <rect id="Rectangle" fill="#E6E6E6" x="0" y="0" width="377" height="82"></rect>
                        <text id="Poids-pour-100-g" font-family="GoogleSans-Bold, Google Sans" font-size="15" font-weight="bold" fill="#000000">
                            <tspan x="310.7225" y="28">Poids </tspan>
                            <tspan x="313.49" y="48">pour </tspan>
                            <tspan x="310.685" y="68">100 g </tspan>
                        </text>
                        <text id="Matière" font-family="GoogleSans-Bold, Google Sans" font-size="15" font-weight="bold" fill="#000000">
                            <tspan x="10.5" y="45">Matière</tspan>
                        </text>
                        <text id="Poids" font-family="GoogleSans-Bold, Google Sans" font-size="15" font-weight="bold" fill="#000000">
                            <tspan x="223.2225" y="45">Poids</tspan>
                        </text>
                        <text id="%" font-family="GoogleSans-Bold, Google Sans" font-size="15" font-weight="bold" fill="#000000">
                            <tspan x="164.065" y="45">%</tspan>
                        </text>
                        <polyline id="Line" stroke="#E4E4E4" stroke-linecap="square" points="1 82.25 110.134732 82.1203863 422 81.75"></polyline>
                    </g>
                    <g id="Group-3" transform="translate(5, 0)">
                        <text id="Matériaux-d’emballag" font-family="GoogleSans-Bold, Google Sans" font-size="15" font-weight="bold" fill="#000000">
                            <tspan x="64" y="31">Matériaux d’emballage</tspan>
                        </text>
                        <line x1="7.30743591e-14" y1="1" x2="444" y2="0.5" id="Line" stroke="#E4E4E4" stroke-linecap="square"></line>
                        <line x1="56" y1="51.5" x2="448" y2="51.5" id="Line" stroke="#E4E4E4" stroke-linecap="square"></line>
                        <g id="packaging" transform="translate(29.5, 13)">
                            <polygon id="Path" points="0 0 24 0 24 24 0 24"></polygon>
                            <path d="M5,6 L3,10 L3,21 L4,22 L10,22 L11,21 L11,10 L8.941,6 L5,6 Z M4,12 L10,12 L10,17 L4,17 L4,12 Z M5,3 L9,3 L9,5 L5,5 L5,3 Z M13,14 L21,14 L21,22 L13,22 L13,15.063 L13,14 Z M13,11 L21,11 L21,13 L13,13 L13,11 Z" id="Shape" fill="#000000" fill-rule="nonzero"></path>
                        </g>
                    </g>
                    <g id="Group" transform="translate(69, 145)" fill="#000000" font-family="GoogleSans-Regular, Google Sans" font-size="15" font-weight="normal">
                        <text id="Papier-ou-carton">
                            <tspan x="0" y="14">Papier ou carton</tspan>
                        </text>
                        <text id="0,5%">
                            <tspan x="143.93" y="14">0,5%</tspan>
                        </text>
                        <text id="0,2g">
                            <tspan x="305.44" y="14">0,2g</tspan>
                        </text>
                        <text id="0,2g">
                            <tspan x="219.44" y="14">0,2g</tspan>
                        </text>
                    </g>
                    <g id="Group" transform="translate(60, 175)">
                        <rect id="Rectangle" fill="#E6E6E6" x="0" y="0" width="373" height="42"></rect>
                        <text id="Plastique" font-family="GoogleSans-Regular, Google Sans" font-size="15" font-weight="normal" fill="#000000">
                            <tspan x="9" y="26">Plastique</tspan>
                        </text>
                        <text id="1,8%" font-family="GoogleSans-Regular, Google Sans" font-size="15" font-weight="normal" fill="#000000">
                            <tspan x="155.5075" y="26">1,8%</tspan>
                        </text>
                        <text id="0,8g" font-family="GoogleSans-Regular, Google Sans" font-size="15" font-weight="normal" fill="#000000">
                            <tspan x="314.245" y="26">0,8g</tspan>
                        </text>
                        <text id="8g" font-family="GoogleSans-Regular, Google Sans" font-size="15" font-weight="normal" fill="#000000">
                            <tspan x="233.89" y="26">8g</tspan>
                        </text>
                    </g>
                    <g id="Group" transform="translate(59, 260)">
                        <rect id="Rectangle" fill="#E6E6E6" x="0" y="0" width="373" height="42"></rect>
                        <text id="Total" font-family="GoogleSans-Regular, Google Sans" font-size="15" font-weight="normal" fill="#000000">
                            <tspan x="9" y="26">Total</tspan>
                        </text>
                        <text id="100%" font-family="GoogleSans-Regular, Google Sans" font-size="15" font-weight="normal" fill="#000000">
                            <tspan x="152.7725" y="26">100%</tspan>
                        </text>
                        <text id="49,1g" font-family="GoogleSans-Regular, Google Sans" font-size="15" font-weight="normal" fill="#000000">
                            <tspan x="312.7475" y="26">49,1g</tspan>
                        </text>
                        <text id="404,9g" font-family="GoogleSans-Regular, Google Sans" font-size="15" font-weight="normal" fill="#000000">
                            <tspan x="219.32" y="26">404,9g</tspan>
                        </text>
                    </g>
                    <g id="Group" transform="translate(69, 229)" fill="#000000" font-family="GoogleSans-Regular, Google Sans" font-size="15" font-weight="normal">
                        <text id="Verre">
                            <tspan x="0" y="14">Verre</tspan>
                        </text>
                        <text id="97,6%">
                            <tspan x="140.1675" y="14">97,6%</tspan>
                        </text>
                        <text id="44,3g">
                            <tspan x="300.3225" y="14">44,3g</tspan>
                        </text>
                        <text id="443g">
                            <tspan x="217.13" y="14">443g</tspan>
                        </text>
                    </g>
                    <line x1="7.30743591e-14" y1="51.5" x2="444" y2="51" id="Line" stroke="#E4E4E4" stroke-linecap="square"></line>
                    <line x1="346.5" y1="301.346123" x2="346.5" y2="51.75" id="Line" stroke="#D4D4D4" stroke-linecap="square"></line>
                    <line x1="259" y1="301.548061" x2="259" y2="51.9519386" id="Line" stroke="#D4D4D4" stroke-linecap="square"></line>
                    <line x1="201.5" y1="301.75" x2="201.5" y2="52.1538772" id="Line" stroke="#D4D4D4" stroke-linecap="square"></line>
                    <line x1="60" y1="302.144184" x2="60" y2="52.5480614" id="Line" stroke="#D4D4D4" stroke-linecap="square"></line>
                </g>
                <circle id="Oval" fill="#B3261E" cx="46" cy="12" r="12"></circle>
            </g>
            <g id="Title">
                <rect id="Rectangle" fill="#EDE0DB" x="0" y="0" width="450" height="46"></rect>
                <text id="Nutrition" fill-rule="nonzero" font-family="GoogleSans-Medium, Google Sans" font-size="15" font-weight="400" fill="#000000">
                    <tspan x="74" y="28">Emballage</tspan>
                </text>
                <g id="Nutrition" transform="translate(45, 14)" fill="#000000" fill-rule="nonzero">
                    <path d="M6,0 C2.7304686,0 0,2.44043352 0,5.52587244 C0,7.18892916 1.0289064,8.52226218 1.95,9.60770156 C2.4117186,10.1492177 2.859375,10.6450062 3.16875,11.0517449 C3.478125,11.4584836 3.6,11.77136 3.6,11.8604091 L3.6,14.3249097 C3.6,14.4139589 3.6328128,14.4861614 3.675,14.5559567 C3.8484378,15.0709991 4.3523436,15.4031288 4.89375,15.4031288 L5.025,15.4031288 C5.221875,15.7569195 5.5757814,16 6,16 C6.4242186,16 6.778125,15.7569195 6.975,15.4031288 L7.10625,15.4031288 C7.6476564,15.4031288 8.1515628,15.0709991 8.325,14.5559567 C8.3671878,14.4861614 8.4,14.4139589 8.4,14.3249097 L8.4,11.8796631 C8.4,11.7882073 8.521875,11.456077 8.83125,11.0517449 C9.140625,10.6474128 9.590625,10.1684716 10.05,9.62695548 C10.9710936,8.54632988 12,7.20818307 12,5.52587244 C12,2.44043352 9.2695314,0 6,0 Z M6,1 C8.81005875,1 11,2.94552967 11,5.25868056 C11,6.39735228 10.1943362,7.50260417 9.28125,8.52430556 C8.82470688,9.03515656 8.35351562,9.51974811 7.97265625,9.99479167 C7.59179688,10.4698352 7.25,10.9424912 7.25,11.5607639 L7.25,12 L6.2734375,12 C6.53710938,11.5798611 6.84472688,10.6655814 6.625,8.75347222 C6.32714875,6.16818561 5.10888687,5.80056439 5.43359375,3.84548611 C5.44091812,5.5523005 7.02539062,5.90798611 7.26953125,8.77256944 C8.24609375,9.09722222 9.10546875,7.59570328 9.10546875,6.15625 C9.10546875,3.85026072 5.76318375,3.00282133 5.55078125,1.84027778 C4.28125,2.43467867 1.9326175,5.41145833 3.34375,7.77951389 C4.78662125,10.2024741 6.0732425,8.44314267 6.0390625,9.02083333 C6.16601562,10.7610676 5.4140625,11.8185764 5.12109375,12 L4.75,12 L4.75,11.5416667 C4.75,10.9233939 4.40820312,10.453125 4.02734375,9.97569444 C3.64648438,9.49826389 3.17773438,9.01844633 2.71875,8.50520833 C1.8032225,7.47634533 1,6.36631944 1,5.25868056 C1,2.94552967 3.18994125,1 6,1 Z" id="Shape"></path>
                </g>
            </g>
        </g>
        <g id="Empreinte-carbone" transform="translate(-11, 172)">
            <g id="Group-2" transform="translate(11, 110.5)">
                <rect id="Rectangle" fill="#F9F9F9" x="0" y="0.5" width="428" height="48"></rect>
                <text id="767g-de-CO2-pour-100" font-family="GoogleSans-Regular, Google Sans" font-size="15" font-weight="normal" fill="#373737">
                    <tspan x="63.5" y="29.5">767g de CO2 pour 100g de produit</tspan>
                </text>
                <line x1="7.30743591e-14" y1="0.5" x2="444" y2="0.5" id="Line" stroke="#E4E4E4" stroke-linecap="square"></line>
                <g id="ic_info" transform="translate(32, 15.5)" fill="#373737" fill-rule="nonzero">
                    <g id="icons8-info">
                        <path d="M9,0 C4.0293,0 0,4.0293 0,9 C0,13.9707 4.0293,18 9,18 C13.9707,18 18,13.9707 18,9 C18,4.0293 13.9707,0 9,0 Z M9,13.5 L9,13.5 C8.5032,13.5 8.1,13.0968 8.1,12.6 L8.1,9 C8.1,8.5032 8.5032,8.1 9,8.1 L9,8.1 C9.4968,8.1 9.9,8.5032 9.9,9 L9.9,12.6 C9.9,13.0968 9.4968,13.5 9,13.5 Z M9.45,6.3 L8.55,6.3 C8.3016,6.3 8.1,6.0984 8.1,5.85 L8.1,4.95 C8.1,4.7016 8.3016,4.5 8.55,4.5 L9.45,4.5 C9.6984,4.5 9.9,4.7016 9.9,4.95 L9.9,5.85 C9.9,6.0984 9.6984,6.3 9.45,6.3 Z" id="Shape"></path>
                    </g>
                </g>
            </g>
            <g id="Group-7" transform="translate(39.5, 63)">
                <text id="Equivaut-à-parcourir" font-family="GoogleSans-Regular, Google Sans" font-size="15" font-weight="normal" fill="#000000">
                    <tspan x="35" y="14">Equivaut à parcourir 4 km dans une </tspan>
                    <tspan x="35" y="33">voiture à essence</tspan>
                </text>
                <circle id="Oval" fill="#B3261E" cx="12" cy="19" r="12"></circle>
                <path d="M371,13.3320311 C370.699194,13.3320311 370.398486,13.4439691 370.137153,13.6679691 L364.575738,18.4335941 C364.215627,18.7425941 364,19.2623591 364,19.8183591 C364,21.1473591 365.152582,21.9401251 366.012804,21.2031251 L371,16.9277341 L375.987196,21.2050781 C376.847418,21.9420781 378,21.1473591 378,19.8183591 C378,19.2613591 377.783596,18.7425941 377.424262,18.4335941 L371.862847,13.6679691 C371.601514,13.4439691 371.300806,13.3320311 371,13.3320311 Z" id="Path" fill="#8F8F8F" transform="translate(371, 17.4095) rotate(90) translate(-371, -17.4095)"></path>
            </g>
            <g id="Title">
                <rect id="Rectangle" fill="#EDE0DB" x="0" y="0" width="450" height="46"></rect>
                <text id="Nutrition" fill-rule="nonzero" font-family="GoogleSans-Medium, Google Sans" font-size="15" font-weight="400" fill="#000000">
                    <tspan x="74" y="28">Empreinte carbone</tspan>
                </text>
                <g id="Nutrition" transform="translate(45, 14)" fill="#000000" fill-rule="nonzero">
                    <path d="M6,0 C2.7304686,0 0,2.44043352 0,5.52587244 C0,7.18892916 1.0289064,8.52226218 1.95,9.60770156 C2.4117186,10.1492177 2.859375,10.6450062 3.16875,11.0517449 C3.478125,11.4584836 3.6,11.77136 3.6,11.8604091 L3.6,14.3249097 C3.6,14.4139589 3.6328128,14.4861614 3.675,14.5559567 C3.8484378,15.0709991 4.3523436,15.4031288 4.89375,15.4031288 L5.025,15.4031288 C5.221875,15.7569195 5.5757814,16 6,16 C6.4242186,16 6.778125,15.7569195 6.975,15.4031288 L7.10625,15.4031288 C7.6476564,15.4031288 8.1515628,15.0709991 8.325,14.5559567 C8.3671878,14.4861614 8.4,14.4139589 8.4,14.3249097 L8.4,11.8796631 C8.4,11.7882073 8.521875,11.456077 8.83125,11.0517449 C9.140625,10.6474128 9.590625,10.1684716 10.05,9.62695548 C10.9710936,8.54632988 12,7.20818307 12,5.52587244 C12,2.44043352 9.2695314,0 6,0 Z M6,1 C8.81005875,1 11,2.94552967 11,5.25868056 C11,6.39735228 10.1943362,7.50260417 9.28125,8.52430556 C8.82470688,9.03515656 8.35351562,9.51974811 7.97265625,9.99479167 C7.59179688,10.4698352 7.25,10.9424912 7.25,11.5607639 L7.25,12 L6.2734375,12 C6.53710938,11.5798611 6.84472688,10.6655814 6.625,8.75347222 C6.32714875,6.16818561 5.10888687,5.80056439 5.43359375,3.84548611 C5.44091812,5.5523005 7.02539062,5.90798611 7.26953125,8.77256944 C8.24609375,9.09722222 9.10546875,7.59570328 9.10546875,6.15625 C9.10546875,3.85026072 5.76318375,3.00282133 5.55078125,1.84027778 C4.28125,2.43467867 1.9326175,5.41145833 3.34375,7.77951389 C4.78662125,10.2024741 6.0732425,8.44314267 6.0390625,9.02083333 C6.16601562,10.7610676 5.4140625,11.8185764 5.12109375,12 L4.75,12 L4.75,11.5416667 C4.75,10.9233939 4.40820312,10.453125 4.02734375,9.97569444 C3.64648438,9.49826389 3.17773438,9.01844633 2.71875,8.50520833 C1.8032225,7.47634533 1,6.36631944 1,5.25868056 C1,2.94552967 3.18994125,1 6,1 Z" id="Shape"></path>
                </g>
            </g>
        </g>
        <g id="EcoScore" transform="translate(-16, 0)">
            <g id="Nutriscore" transform="translate(38, 55)">
                <g id="Score-button" transform="translate(1, 47)">
                    <mask id="mask-2" fill="white">
                        <use xlink:href="#path-1"></use>
                    </mask>
                    <rect stroke="#000000" x="-0.5" y="0.5" width="379" height="53" rx="5"></rect>
                    <path d="M5,1 L38,1 L38,1 L38,53 L5,53 C2.23857625,53 -1.43817996e-15,50.7614237 0,48 L0,6 C-3.38176876e-16,3.23857625 2.23857625,1 5,1 Z" id="Mask" fill="#666666" mask="url(#mask-2)"></path>
                    <text id="Qu’est-ce-que-ce-sco" fill="#1C1B1F" fill-rule="nonzero" font-family="GoogleSans-Medium, Google Sans" font-size="15" font-weight="400">
                        <tspan x="50" y="23">Qu’est-ce que ce score ?</tspan>
                    </text>
                    <text id="Cliquer-pour-obtenir" font-family="GoogleSans-Italic, Google Sans" font-size="13" font-style="italic" font-weight="normal" fill="#8F8F8F">
                        <tspan x="50" y="41">Cliquer pour obtenir plus de détails</tspan>
                    </text>
                    <path d="M19.5,17 C14.253625,17 10,21.253625 10,26.5 C10,31.746375 14.253625,36 19.5,36 C24.746375,36 29,31.746375 29,26.5 C29,21.253625 24.746375,17 19.5,17 Z M19,32 C18.448,32 18,31.552 18,31 C18,30.448 18.448,30 19,30 C19.552,30 20,30.448 20,31 C20,31.552 19.552,32 19,32 Z M21.3095,26.8333333 C20.73025,27.3085556 20.375,27.6204444 20.375,28 L18.625,28 C18.625,26.9196667 19.455375,26.2383333 20.122125,25.69 C20.82125,25.116 21.25,24.7325556 21.25,24.1111111 C21.25,23.2532222 20.465125,22.5555556 19.5,22.5555556 C18.534875,22.5555556 17.75,23.2532222 17.75,24.1111111 L16,24.1111111 C16,22.3953333 17.56975,21 19.5,21 C21.43025,21 23,22.3953333 23,24.1111111 C23,25.445 22.062875,26.2142222 21.3095,26.8333333 Z" id="Shape" fill="#FFFFFF" fill-rule="nonzero"></path>
                    <g id="Group" transform="translate(353, 0)">
                        <path d="M21,0.5 C22.2426407,0.5 23.3676407,1.00367966 24.1819805,1.81801948 C24.9963203,2.63235931 25.5,3.75735931 25.5,5 L25.5,24.5 L5,24.5 C3.75735931,24.5 2.63235931,23.9963203 1.81801948,23.1819805 C1.00367966,22.3676407 0.5,21.2426407 0.5,20 L0.5,0.5 L21,0.5 Z" id="Rectangle" stroke="#000000" fill="#666666"></path>
                        <g id="ic_close" transform="translate(9.0266, 8)" fill="#FFFFFF" fill-rule="nonzero">
                            <path d="M0.564298864,0.000245711569 C0.335757748,0.000305731547 0.130039759,0.138831515 0.04404151,0.350575102 C-0.0419567394,0.562318689 0.00891371414,0.805056161 0.172692037,0.964454111 L3.7070263,4.49878815 L0.172692037,8.03312231 C0.0259724596,8.17398937 -0.0331295157,8.38316874 0.018179669,8.57998726 C0.0694888538,8.77680579 0.223191593,8.93050848 0.420010132,8.98181761 C0.616828671,9.03312674 0.82600802,8.97402471 0.966875043,8.82730509 L4.50120909,5.29297094 L8.03554324,8.82730509 C8.17640991,8.97402634 8.38559007,9.03312961 8.58240962,8.98182068 C8.77922917,8.93051174 8.93293267,8.77680824 8.98424161,8.57998869 C9.03555055,8.38316913 8.97644727,8.17398898 8.82972602,8.03312231 L5.29539187,4.49878815 L8.82972602,0.964454111 C8.99583458,0.802989702 9.04577962,0.556110475 8.9554949,0.342776281 C8.86521018,0.129442087 8.65321707,-0.00658284176 8.42166539,0.000245711569 C8.27575411,0.0045933829 8.13726697,0.0655749432 8.03554324,0.170271105 L4.50120909,3.70460537 L0.966875043,0.170271105 C0.861135943,0.0615768806 0.715940519,0.000254551173 0.564298864,0.000245711569 Z" id="Path"></path>
                        </g>
                    </g>
                    <line x1="37.5" y1="0.5" x2="38" y2="53" id="Line-3" stroke="#000000" stroke-linecap="square"></line>
                </g>
                <text id="Impact-environnement" font-family="GoogleSans-Bold, Google Sans" font-size="15" font-weight="bold" fill="#000000">
                    <tspan x="87" y="25">Impact environnemental élevé</tspan>
                </text>
                <path d="M375,16.3320311 C374.699194,16.3320311 374.398486,16.4439691 374.137153,16.6679691 L368.575738,21.4335941 C368.215627,21.7425941 368,22.2623591 368,22.8183591 C368,24.1473591 369.152582,24.9401251 370.012804,24.2031251 L375,19.9277341 L379.987196,24.2050781 C380.847418,24.9420781 382,24.1473591 382,22.8183591 C382,22.2613591 381.783596,21.7425941 381.424262,21.4335941 L375.862847,16.6679691 C375.601514,16.4439691 375.300806,16.3320311 375,16.3320311 Z" id="Path" fill="#8F8F8F" transform="translate(375, 20.4095) rotate(90) translate(-375, -20.4095)"></path>
                <g id="ecoscore">
                    <path d="M0,32.7954 C0,36.2169 2.97181135,39 6.62349897,39 L67.0450093,39 C70.6957761,39 73.6666667,36.216 73.6666667,32.7954 L73.6666667,6.2043 C73.6666667,2.7831 70.6954692,0 67.0447024,0 L6.62288509,0 C2.97181135,0 0,2.7837 0,6.204 L0,32.7954 Z" id="Path" fill="#FFFFFF" fill-rule="nonzero"></path>
                    <path d="M0.721006492,32.7948955 C0.721006492,35.7999492 3.34106244,38.2950108 6.62349897,38.2950108 L67.0450093,38.2950108 C70.3271389,38.2950108 72.946581,35.7990492 72.946581,32.7948955 L72.946581,6.20420455 C72.946581,3.19945078 70.3271389,0.704389163 67.0447024,0.704389163 L6.62288509,0.704389163 C3.34044855,0.704389163 0.721006492,3.20035076 0.721006492,6.20420455 L0.721006492,32.7948955 Z M6.62319203,38.9994 C2.97242523,38.9994 0,36.2163428 0,32.7948955 L0,6.20420455 C0,2.78395717 2.97119746,0 6.62288509,0 L67.0447024,0 C70.6957761,0 73.6666667,2.78305718 73.6666667,6.20420455 L73.6666667,32.7957954 C73.6666667,36.2163428 70.6954692,39 67.0447024,39 L6.62319203,38.9994 Z" id="Shape" fill="#1E8F4E"></path>
                    <path d="M46.0414777,10.3549871 L38.0827309,10.3549871 C38.3339059,12.1716894 39.9121984,13.0905469 41.4676567,13.0905469 C43.754415,13.0905469 44.8979463,11.996383 44.8979463,11.996383 L44.8979463,14.1847108 C44.8979463,14.1847108 43.754415,15.2800755 41.4676567,15.2800755 C38.0370627,15.2800755 35.75,13.0911473 35.75,9.8068545 C35.75,6.52256169 38.0370627,4.33333333 40.8965,4.33333333 C43.7553284,4.33333333 46.0420866,6.52166114 46.0420866,9.8068545 L46.0420866,10.3546869 L46.0414777,10.3549871 Z M38.1512332,8.71179005 L43.640549,8.71179005 C43.3199583,7.24600065 42.2905974,6.52346224 40.8949777,6.52346224 C39.5005758,6.52346224 38.4715194,7.24600065 38.1512332,8.71269059 L38.1512332,8.71179005 Z M55.2210873,4.88116574 L55.2210873,7.0703941 C55.2210873,7.0703941 53.5548075,6.52256169 52.4456795,6.52256169 C50.7793997,6.52256169 49.115251,7.61762614 49.115251,9.8068545 C49.115251,11.9954825 50.7806175,13.0908471 52.4456795,13.0908471 C53.5563297,13.0908471 55.2204784,12.5427145 55.2204784,12.5427145 L55.2204784,14.7328434 C55.2204784,14.7328434 54.1104371,15.2800755 52.4456795,15.2800755 C49.115251,15.2800755 46.8942549,13.0911473 46.8942549,9.8068545 C46.8942549,6.52256169 49.1149465,4.33333333 52.4456795,4.33333333 C54.1104371,4.33333333 55.2204784,4.88116574 55.2204784,4.88116574 L55.2210873,4.88116574 Z M67.1666667,9.80745486 C67.1666667,13.0914475 64.9462795,15.2806758 61.615851,15.2806758 C58.2848136,15.2806758 56.0644265,13.0920479 56.0644265,9.80745486 C56.0644265,6.52286187 58.2848136,4.3339337 61.615851,4.3339337 C64.9462795,4.3339337 67.1666667,6.52316205 67.1666667,9.80745486 Z M58.2848136,9.80745486 C58.2848136,11.996383 59.9510935,13.0914475 61.615851,13.0914475 C63.2812175,13.0914475 64.9462795,11.996383 64.9462795,9.80745486 C64.9462795,7.61762614 63.2799997,6.52346224 61.615851,6.52346224 C59.9504845,6.52346224 58.2848136,7.61762614 58.2848136,9.80745486 Z M38.1923345,31.4160663 C37.0615903,31.4160663 35.9314549,31.0450412 35.9314549,31.0450412 L35.9314549,29.5591396 C35.9314549,29.5591396 37.0615903,29.9301647 38.1923345,29.9301647 C38.9446418,29.9301647 39.3221654,29.5591396 39.3221654,29.1884146 C39.3221654,28.0735382 35.7548713,28.8161888 35.7548713,26.2160111 C35.7548713,24.7307098 36.6852844,23.9868585 38.1923345,23.9868585 C39.3230788,23.9868585 40.453823,24.3590843 40.453823,24.3590843 L40.453823,25.8443856 C40.453823,25.8443856 39.3230788,25.4733605 38.1923345,25.4733605 C37.4397228,25.4733605 37.0621992,25.8443856 37.0621992,26.2154107 C37.0621992,27.3302872 40.8298244,26.5870362 40.8298244,29.1875141 C40.8292155,30.6734157 39.6984713,31.4166667 38.1923345,31.4166667 L38.1923345,31.4160663 Z M46.9323118,24.3590843 L46.9323118,25.8443856 C46.9323118,25.8443856 45.8024809,25.4733605 45.0486514,25.4733605 C43.918516,25.4733605 42.7877717,26.2154107 42.7877717,27.7019127 C42.7877717,29.1878143 43.918516,29.9307651 45.0486514,29.9307651 C45.8024809,29.9307651 46.9323118,29.5591396 46.9323118,29.5591396 L46.9323118,31.0444408 C46.9323118,31.0444408 46.1793956,31.4166667 45.0486514,31.4166667 C42.7877717,31.4166667 41.2813306,29.9307651 41.2813306,27.7019127 C41.2813306,25.4727601 42.7877717,23.9868585 45.0486514,23.9868585 C46.1793956,23.9868585 46.9323118,24.3590843 46.9323118,24.3590843 Z M55.0862139,27.7019127 C55.0862139,29.9307651 53.5791638,31.4166667 51.3182842,31.4166667 C49.0574046,31.4166667 47.550659,29.9307651 47.550659,27.7019127 C47.550659,25.4727601 49.0577091,23.9868585 51.3182842,23.9868585 C53.5791638,23.9868585 55.0862139,25.4727601 55.0862139,27.7019127 Z M49.0574046,27.7019127 C49.0574046,29.1878143 50.18754,29.9307651 51.3182842,29.9307651 C52.4490285,29.9307651 53.5791638,29.1884146 53.5791638,27.7019127 C53.5791638,26.2160111 52.4490285,25.4727601 51.3182842,25.4727601 C50.18754,25.4727601 49.0574046,26.2160111 49.0574046,27.7019127 Z M60.2549391,23.9868585 L60.2549391,25.4727601 C58.747889,25.4727601 57.24023,25.8443856 57.24023,27.7019127 L57.24023,31.4166667 L55.7337888,31.4166667 L55.7337888,23.9871587 L57.24023,23.9871587 L57.24023,26.9589619 C57.2408389,25.101735 58.3706698,23.9871587 60.2546347,23.9871587 L60.2549391,23.9868585 Z M67.1115604,28.0735382 L61.867026,28.0735382 C62.0329538,29.3069866 63.0729706,29.9307651 64.0977646,29.9307651 C65.6048147,29.9307651 66.3586442,29.1884146 66.3586442,29.1884146 L66.3586442,30.6734157 C66.3586442,30.6734157 65.6048147,31.4166667 64.0977646,31.4166667 C61.836885,31.4166667 60.3298349,29.9307651 60.3298349,27.7019127 C60.3298349,25.4727601 61.836885,23.9868585 63.7208499,23.9868585 C65.6048147,23.9868585 67.1109515,25.4727601 67.1109515,27.7019127 L67.1109515,28.0735382 L67.1115604,28.0735382 Z M61.9120853,26.9592621 L65.52931,26.9592621 C65.3186275,25.9635579 64.6403027,25.4733605 63.7214588,25.4733605 C62.8010926,25.4733605 62.1236812,25.9635579 61.9120853,26.9592621 Z" id="Shape" fill="#1D1D1B" fill-rule="nonzero"></path>
                    <path d="M67.1666667,20.5830552 C67.1666667,19.3865919 66.0704596,18.4166667 64.7182196,18.4166667 L57.6598402,18.4166667 C56.3227224,18.4356227 55.25,19.4000983 55.25,20.5833333 C55.25,21.7665684 56.3227224,22.731044 57.6598402,22.75 L64.7169624,22.75 C66.0693041,22.75 67.1656909,21.7801648 67.1660381,20.5836114 L67.1666667,20.5830552 Z" id="Path" fill="#D93726" fill-rule="nonzero"></path>
                    <path d="M68.2497021,20.5835804 C68.2475687,21.7794238 67.0788189,22.7483675 65.6365443,22.75 L58.946789,22.75 C57.5043981,22.7485035 56.3354671,21.7795201 56.3333333,20.5835804 C56.3346474,19.3872786 57.5039619,18.4177562 58.946789,18.4166667 L65.6365443,18.4166667 C67.0793714,18.4177562 68.2486859,19.3872786 68.25,20.5835804 L68.2497021,20.5835804 Z M65.6365443,22.2653346 C66.7562379,22.2641105 67.663653,21.5119597 67.6654583,20.5835804 C67.6639811,19.6550081 66.7564701,18.9025568 65.6365443,18.901332 L58.946789,18.901332 C57.8268632,18.9025568 56.9193522,19.6550081 56.9178751,20.5835804 C56.9196803,21.5119597 57.8270954,22.2641105 58.946789,22.2653346 L65.6365443,22.2653346 Z" id="Shape" fill="#FFFFFF" fill-rule="nonzero"></path>
                    <path d="M61.749678,20.5830552 C61.7497635,20.0084707 61.4855508,19.4573984 61.0151819,19.0511057 C60.544813,18.6448131 59.9068313,18.4165929 59.2416292,18.4166667 L52.3018355,18.4166667 C50.9321687,18.4356227 49.8333333,19.4000983 49.8333333,20.5833333 C49.8333333,21.7665684 50.9321687,22.731044 52.3018355,22.75 L59.2419512,22.75 C60.6268139,22.7493862 61.7492894,21.7798205 61.75,20.5836114 L61.749678,20.5830552 Z" id="Path" fill="#EF7E1A" fill-rule="nonzero"></path>
                    <path d="M61.7496949,20.5835804 C61.7475103,21.7793276 60.5506954,22.7482314 59.0736779,22.75 L52.5093503,22.75 C51.0323328,22.7482314 49.8355179,21.7793276 49.8333333,20.5835804 C49.8346786,19.3874712 51.031886,18.4180285 52.5093503,18.4166667 L59.073983,18.4166667 C60.5514473,18.4180285 61.7486547,19.3874712 61.75,20.5835804 L61.7496949,20.5835804 Z M59.0736779,22.2653346 C60.2204363,22.2641105 61.1497852,21.5119597 61.1516341,20.5835804 C61.1501212,19.6550081 60.2206742,18.9025568 59.0736779,18.901332 L52.5093503,18.901332 C51.362354,18.9025568 50.432907,19.6550081 50.4313941,20.5835804 C50.433243,21.5119597 51.3625919,22.2641105 52.5093503,22.2653346 L59.0736779,22.2653346 Z" id="Shape" fill="#FFFFFF" fill-rule="nonzero"></path>
                    <path d="M55.249681,20.5830552 C55.2497656,20.0084707 54.9879707,19.4573984 54.5219061,19.0511057 C54.0558415,18.6448131 53.4236979,18.4165929 52.7645831,18.4166667 L45.8187503,18.4166667 C44.4460924,18.4166667 43.3333333,19.3867164 43.3333333,20.5833333 C43.3333333,21.7799503 44.4460924,22.75 45.8187503,22.75 L52.7649021,22.75 C54.137092,22.7493862 55.249296,21.7798205 55.25,20.5836114 L55.249681,20.5830552 Z" id="Path" fill="#F5C100" fill-rule="nonzero"></path>
                    <path d="M55.2496969,20.5835804 C55.2475269,21.7793276 54.0586875,22.7482314 52.5915128,22.75 L45.9921236,22.75 C44.5245048,22.7489109 43.3350043,21.7796892 43.3333333,20.5835804 C43.3346702,19.3872786 44.5242684,18.4177562 45.9921236,18.4166667 L52.5918159,18.4166667 C54.0594344,18.4180285 55.2486637,19.3874712 55.25,20.5835804 L55.2496969,20.5835804 Z M52.5915128,22.2653346 C53.7303925,22.2638385 54.6531797,21.5117672 54.6550153,20.5835804 C54.6535134,19.6552006 53.7306288,18.9028288 52.5915128,18.901332 L45.9921236,18.901332 C44.8527709,18.9025568 43.9295177,19.6550081 43.9280149,20.5835804 C43.9298515,21.5119597 44.8530072,22.2641105 45.9921236,22.2653346 L52.5915128,22.2653346 Z" id="Shape" fill="#FFFFFF" fill-rule="nonzero"></path>
                    <path d="M49.8333333,20.5830552 C49.8333333,19.3865919 48.7170465,18.4166667 47.3400369,18.4166667 L40.3706491,18.4166667 C39.0090387,18.4356227 37.9166667,19.4000983 37.9166667,20.5833333 C37.9166667,21.7665684 39.0090387,22.731044 40.3706491,22.75 L47.3397168,22.75 C48.7164337,22.7493862 49.8323069,21.7798205 49.8330133,20.5836114 L49.8333333,20.5830552 Z" id="Path" fill="#2ECC71" fill-rule="nonzero"></path>
                    <path d="M49.8330302,20.5835804 C49.8308594,21.7795201 48.6416514,22.7485035 47.1742399,22.75 L40.5748508,22.75 C39.1074687,22.7486387 37.918337,21.7794966 37.9166667,20.5835804 C37.918003,19.3874712 39.1072323,18.4180285 40.5748508,18.4166667 L47.174543,18.4166667 C48.6423983,18.4177562 49.8319965,19.3872786 49.8333333,20.5835804 L49.8330302,20.5835804 Z M47.1742399,22.2653346 C48.3133564,22.2641105 49.2365121,21.5119597 49.2383487,20.5835804 C49.2368459,19.6550081 48.3135927,18.9025568 47.1742399,18.901332 L40.5748508,18.901332 C39.4357348,18.9028288 38.5128502,19.6552006 38.5113482,20.5835804 C38.5131839,21.5117672 39.435971,22.2638385 40.5748508,22.2653346 L47.1742399,22.2653346 Z" id="Shape" fill="#FFFFFF" fill-rule="nonzero"></path>
                    <path d="M43.3333333,20.5830552 C43.3333333,20.0084707 43.0977653,19.4573984 42.6782558,19.0511057 C42.2587464,18.6448131 41.6897476,18.4165929 41.0964717,18.4166667 L36.8682577,18.4166667 C35.6466885,18.4356227 34.6666667,19.4000983 34.6666667,20.5833333 C34.6666667,21.7665684 35.6466885,22.731044 36.8682577,22.75 L41.0964717,22.75 C42.3315937,22.7493862 43.3326996,21.7798205 43.3333333,20.5836114 L43.3333333,20.5830552 Z" id="Path" fill="#1E8F4E" fill-rule="nonzero"></path>
                    <path d="M44.4166667,20.5835804 C44.4148165,21.7794966 43.0976278,22.7486387 41.4722239,22.75 L36.5284475,22.75 C34.9027815,22.7489109 33.5851842,21.7796892 33.5833333,20.5835804 C33.5848141,19.3872786 34.9025196,18.4177562 36.5284475,18.4166667 L41.4722239,18.4166667 C43.0978896,18.4180285 44.4151865,19.3874712 44.4166667,20.5835804 L44.4166667,20.5835804 Z M41.4722239,22.2653346 C42.7340114,22.2641105 43.7565813,21.5119597 43.7586156,20.5835804 C43.756951,19.6550081 42.734273,18.9025568 41.4722239,18.901332 L36.5284475,18.901332 C35.2663984,18.9025568 34.2437205,19.6550081 34.2420559,20.5835804 C34.2440902,21.5119597 35.2666601,22.2641105 36.5284475,22.2653346 L41.4722239,22.2653346 Z" id="Shape" fill="#FFFFFF" fill-rule="nonzero"></path>
                    <path d="M32.6898375,4.33584452 C33.1732694,4.29568412 33.6223226,4.74353341 33.5806422,5.22697942 C33.5210118,5.91639959 32.6636731,21.5801719 27.6510712,26.5926156 C22.846567,31.3966511 17.1862454,30.2691175 13.4897709,27.6118378 C13.4387931,27.5747717 13.388682,27.5365279 13.339478,27.4971373 L10.0071747,30.8243654 C9.20042541,31.618535 7.90418511,31.6134326 7.10371244,30.8129367 C6.30323977,30.0124407 6.29813759,28.7161626 7.09228401,27.9093898 L10.420328,24.5779022 C10.3805969,24.5284236 10.3420493,24.4780059 10.3047181,24.4266923 C7.64812425,20.7307186 6.52001499,15.0702322 11.3239107,10.2649797 C16.3371211,5.25223179 31.9998289,4.39425964 32.6898375,4.33584452 Z" id="Path" fill="#1E8F4E" fill-rule="nonzero"></path>
                    <path d="M22.5622563,25.9994038 C23.3031198,25.9994038 23.8333333,25.5257182 23.8333333,24.8579675 C23.8333333,24.6165041 23.7915154,24.3994851 23.6729273,24.0858808 L20.3399781,15.4501355 C19.9779724,14.5015718 19.3887769,14.0833333 18.3957577,14.0833333 C17.4355063,14.0833333 16.8378848,14.5173713 16.4846172,15.4581843 L13.1678958,24.0855827 C13.0586699,24.3836856 13,24.656748 13,24.8579675 C13,25.5573171 13.4958854,26 14.2876169,26 C14.9613845,26 15.3399301,25.6777507 15.5755459,24.9059621 L16.2152974,23.0970732 L20.601184,23.0970732 L21.2409355,24.9304065 C21.4681253,25.6860976 21.846983,26 22.5625684,26 L22.5622563,25.9994038 Z M20.0119884,21.2154472 L16.771101,21.2154472 L18.3445776,16.4633875 L18.4038716,16.4633875 L20.0119884,21.2154472 Z" id="Shape" fill="#FFFFFF" fill-rule="nonzero"></path>
                </g>
            </g>
            <g id="Title">
                <rect id="Rectangle" fill="#EDE0DB" x="0" y="0" width="450" height="46"></rect>
                <text id="Nutrition" fill-rule="nonzero" font-family="GoogleSans-Medium, Google Sans" font-size="15" font-weight="400" fill="#000000">
                    <tspan x="74" y="28">Eco-Score</tspan>
                </text>
                <g id="Nutrition" transform="translate(45, 14)" fill="#000000" fill-rule="nonzero">
                    <path d="M6,0 C2.7304686,0 0,2.44043352 0,5.52587244 C0,7.18892916 1.0289064,8.52226218 1.95,9.60770156 C2.4117186,10.1492177 2.859375,10.6450062 3.16875,11.0517449 C3.478125,11.4584836 3.6,11.77136 3.6,11.8604091 L3.6,14.3249097 C3.6,14.4139589 3.6328128,14.4861614 3.675,14.5559567 C3.8484378,15.0709991 4.3523436,15.4031288 4.89375,15.4031288 L5.025,15.4031288 C5.221875,15.7569195 5.5757814,16 6,16 C6.4242186,16 6.778125,15.7569195 6.975,15.4031288 L7.10625,15.4031288 C7.6476564,15.4031288 8.1515628,15.0709991 8.325,14.5559567 C8.3671878,14.4861614 8.4,14.4139589 8.4,14.3249097 L8.4,11.8796631 C8.4,11.7882073 8.521875,11.456077 8.83125,11.0517449 C9.140625,10.6474128 9.590625,10.1684716 10.05,9.62695548 C10.9710936,8.54632988 12,7.20818307 12,5.52587244 C12,2.44043352 9.2695314,0 6,0 Z M6,1 C8.81005875,1 11,2.94552967 11,5.25868056 C11,6.39735228 10.1943362,7.50260417 9.28125,8.52430556 C8.82470688,9.03515656 8.35351562,9.51974811 7.97265625,9.99479167 C7.59179688,10.4698352 7.25,10.9424912 7.25,11.5607639 L7.25,12 L6.2734375,12 C6.53710938,11.5798611 6.84472688,10.6655814 6.625,8.75347222 C6.32714875,6.16818561 5.10888687,5.80056439 5.43359375,3.84548611 C5.44091812,5.5523005 7.02539062,5.90798611 7.26953125,8.77256944 C8.24609375,9.09722222 9.10546875,7.59570328 9.10546875,6.15625 C9.10546875,3.85026072 5.76318375,3.00282133 5.55078125,1.84027778 C4.28125,2.43467867 1.9326175,5.41145833 3.34375,7.77951389 C4.78662125,10.2024741 6.0732425,8.44314267 6.0390625,9.02083333 C6.16601562,10.7610676 5.4140625,11.8185764 5.12109375,12 L4.75,12 L4.75,11.5416667 C4.75,10.9233939 4.40820312,10.453125 4.02734375,9.97569444 C3.64648438,9.49826389 3.17773438,9.01844633 2.71875,8.50520833 C1.8032225,7.47634533 1,6.36631944 1,5.25868056 C1,2.94552967 3.18994125,1 6,1 Z" id="Shape"></path>
                </g>
            </g>
        </g>
        <g id="Header" transform="translate(-1, -81)">
            <g id="Tab-Bar---Santé" transform="translate(0.5, 36)">
                <text id="Santé" font-family="GoogleSans-Medium, Google Sans" font-size="15" font-weight="400" fill="#000000">
                    <tspan x="120.445" y="25.5833333">Santé</tspan>
                </text>
                <text id="Santé" font-family="GoogleSans-Medium, Google Sans" font-size="15" font-weight="400" fill="#000000">
                    <tspan x="120.445" y="25.5833333">Santé</tspan>
                </text>
                <line x1="0.5" y1="44.7222222" x2="428.5" y2="44.7222222" id="Line" stroke="#341100" stroke-linecap="square"></line>
                <rect id="Rectangle" fill="#F6F3F0" x="174.5" y="0" width="144" height="46"></rect>
                <rect id="Rectangle" fill="#341100" x="174.5" y="43.4444444" width="144" height="2.55555556"></rect>
                <text id="Environnement" font-family="GoogleSans-Bold, Google Sans" font-size="15" font-weight="bold" fill="#341100">
                    <tspan x="191.09" y="25.5833333">Environnement</tspan>
                </text>
                <text id="Photos" font-family="GoogleSans-Medium, Google Sans" font-size="15" font-weight="400" fill="#000000">
                    <tspan x="336.93" y="25.5833333">Photos</tspan>
                </text>
                <text id="Contribuer" font-family="GoogleSans-Medium, Google Sans" font-size="15" font-weight="400" fill="#000000">
                    <tspan x="407.74" y="25.5833333">Contribuer</tspan>
                </text>
                <text id="Pour-moi" font-family="GoogleSans-Medium, Google Sans" font-size="15" font-weight="400" fill="#000000">
                    <tspan x="23.15" y="26.8611111">Pour moi</tspan>
                </text>
            </g>
        </g>
    </g>
</svg>