<?xml version="1.0" encoding="UTF-8"?>
<svg width="87px" height="80px" viewBox="0 0 87 80" version="1.1" xmlns="http://www.w3.org/2000/svg" xmlns:xlink="http://www.w3.org/1999/xlink">
    <title>Shape</title>
    <g id="Homepage-V2" stroke="none" stroke-width="1" fill="none" fill-rule="evenodd" opacity="0.8">
        <g id="Homepage-V2-search---Error" transform="translate(-163, -274)" fill="#000000" fill-rule="nonzero">
            <g id="Eye" transform="translate(163, 274)">
                <path d="M4.82343388,58.585121 C15.2555614,77.7567356 39.2917514,84.8320838 58.394568,74.365914 C61.3779259,72.7291272 64.0753545,70.7598314 66.4477194,68.5296131 L80.7536827,80 L87,72.1552649 L72.8176008,60.782724 C80.2142969,49.0122762 81.2281224,33.6748842 74.1240168,20.6198949 C63.6918393,1.44826358 39.6556161,-5.62700103 20.5527995,4.83916879 C1.44353826,15.3052717 -5.60869367,39.4198622 4.82343388,58.585121 Z M13.6037563,53.6388165 C5.80886025,39.3632998 11.0792016,21.3987021 25.3611229,13.6037516 C39.6365928,5.80886788 57.6013733,11.0791886 65.3962527,25.3611472 C73.191132,39.6366639 67.9208074,57.6012616 53.638836,65.3961453 C39.3633661,73.1911959 21.3985856,67.9208419 13.6037563,53.6388165 Z" id="Shape"></path>
            </g>
        </g>
    </g>
</svg>