<?xml version="1.0" encoding="UTF-8"?>
<svg width="15px" height="15px" viewBox="0 0 15 15" version="1.1" xmlns="http://www.w3.org/2000/svg" xmlns:xlink="http://www.w3.org/1999/xlink">
    <title>Shape</title>
    <g id="Symbols" stroke="none" stroke-width="1" fill="none" fill-rule="evenodd">
        <g id="ic_cupcake" transform="translate(0, -1)" fill="#000000" fill-rule="nonzero">
            <path d="M12.75,5.50412208 C12.75,4.26662208 11.7375,3.25412208 10.5,3.25412208 L9.96,3.25412208 C9.3825,2.37662208 8.475,1.58162208 8.025,1.20662208 C7.7475,0.944122082 7.3125,0.929122082 7.02,1.17662208 C6.525,1.57412208 5.6175,2.37662208 5.0325,3.25412208 L4.5,3.25412208 C3.2625,3.25412208 2.25,4.26662208 2.25,5.50412208 C1.0125,5.50412208 0,6.51662208 0,7.75412208 C0,8.81912208 0.7425,9.71162208 1.74,9.94412208 L2.1075,13.2516221 C2.235,14.3916221 3.195,15.2541221 4.3425,15.2541221 L10.6575,15.2541221 C11.805,15.2541221 12.765,14.3916221 12.8925,13.2516221 L13.26,9.94412208 C14.2575,9.71162208 15,8.81912208 15,7.75412208 C15,6.51662208 13.9875,5.50412208 12.75,5.50412208 Z M5.25,10.0041221 C4.8375,10.0041221 4.5,9.66662208 4.5,9.25412208 C4.5,8.84162208 4.8375,8.50412208 5.25,8.50412208 C5.6625,8.50412208 6,8.84162208 6,9.25412208 C6,9.66662208 5.6625,10.0041221 5.25,10.0041221 Z M7.5,12.2541221 C6.675,12.2541221 6,11.5791221 6,10.7541221 L9,10.7541221 C9,11.5791221 8.325,12.2541221 7.5,12.2541221 Z M9.75,10.0041221 C9.3375,10.0041221 9,9.66662208 9,9.25412208 C9,8.84162208 9.3375,8.50412208 9.75,8.50412208 C10.1625,8.50412208 10.5,8.84162208 10.5,9.25412208 C10.5,9.66662208 10.1625,10.0041221 9.75,10.0041221 Z" id="Shape"></path>
        </g>
    </g>
</svg>