<?xml version="1.0" encoding="UTF-8"?>
<svg width="12px" height="16px" viewBox="0 0 12 16" version="1.1" xmlns="http://www.w3.org/2000/svg" xmlns:xlink="http://www.w3.org/1999/xlink">
    <title>Shape</title>
    <g id="Symbols" stroke="none" stroke-width="1" fill="none" fill-rule="evenodd">
        <g id="ic_green" transform="translate(-1, 0)" fill="#000000" fill-rule="nonzero">
            <path d="M7,0 C3.7304686,0 1,2.44043352 1,5.52587244 C1,7.18892916 2.0289064,8.52226218 2.95,9.60770156 C3.4117186,10.1492177 3.859375,10.6450062 4.16875,11.0517449 C4.478125,11.4584836 4.6,11.77136 4.6,11.8604091 L4.6,14.3249097 C4.6,14.4139589 4.6328128,14.4861614 4.675,14.5559567 C4.8484378,15.0709991 5.3523436,15.4031288 5.89375,15.4031288 L6.025,15.4031288 C6.221875,15.7569195 6.5757814,16 7,16 C7.4242186,16 7.778125,15.7569195 7.975,15.4031288 L8.10625,15.4031288 C8.6476564,15.4031288 9.1515628,15.0709991 9.325,14.5559567 C9.3671878,14.4861614 9.4,14.4139589 9.4,14.3249097 L9.4,11.8796631 C9.4,11.7882073 9.521875,11.456077 9.83125,11.0517449 C10.140625,10.6474128 10.590625,10.1684716 11.05,9.62695548 C11.9710936,8.54632988 13,7.20818307 13,5.52587244 C13,2.44043352 10.2695314,0 7,0 Z M7,1 C9.81005875,1 12,2.94552967 12,5.25868056 C12,6.39735228 11.1943362,7.50260417 10.28125,8.52430556 C9.82470688,9.03515656 9.35351562,9.51974811 8.97265625,9.99479167 C8.59179688,10.4698352 8.25,10.9424912 8.25,11.5607639 L8.25,12 L7.2734375,12 C7.53710938,11.5798611 7.84472688,10.6655814 7.625,8.75347222 C7.32714875,6.16818561 6.10888687,5.80056439 6.43359375,3.84548611 C6.44091812,5.5523005 8.02539062,5.90798611 8.26953125,8.77256944 C9.24609375,9.09722222 10.1054688,7.59570328 10.1054688,6.15625 C10.1054688,3.85026072 6.76318375,3.00282133 6.55078125,1.84027778 C5.28125,2.43467867 2.9326175,5.41145833 4.34375,7.77951389 C5.78662125,10.2024741 7.0732425,8.44314267 7.0390625,9.02083333 C7.16601562,10.7610676 6.4140625,11.8185764 6.12109375,12 L5.75,12 L5.75,11.5416667 C5.75,10.9233939 5.40820312,10.453125 5.02734375,9.97569444 C4.64648438,9.49826389 4.17773438,9.01844633 3.71875,8.50520833 C2.8032225,7.47634533 2,6.36631944 2,5.25868056 C2,2.94552967 4.18994125,1 7,1 Z" id="Shape"></path>
        </g>
    </g>
</svg>