<?xml version="1.0" encoding="UTF-8"?>
<svg width="24px" height="23px" viewBox="0 0 24 23" version="1.1" xmlns="http://www.w3.org/2000/svg" xmlns:xlink="http://www.w3.org/1999/xlink">
    <title>Shape</title>
    <g id="Homepage-V2" stroke="none" stroke-width="1" fill="none" fill-rule="evenodd">
        <g id="Scanner-product" transform="translate(-347, -52)" fill="#FFFFFF" fill-rule="nonzero">
            <g id="Scanner">
                <path d="M348.8,75 C348.32,75 347.9,74.8083333 347.54,74.425 C347.18,74.0416667 347,73.5944444 347,73.0833333 L347,56.6958333 C347,56.2060185 347.18,55.7641204 347.54,55.3701389 C347.9,54.9761574 348.32,54.7791667 348.8,54.7791667 L353.21,54.7791667 L355.4,52 L362.6,52 L364.79,54.7791667 L369.2,54.7791667 C369.66,54.7791667 370.075,54.9761574 370.445,55.3701389 C370.815,55.7641204 371,56.2060185 371,56.6958333 L371,73.0833333 C371,73.5944444 370.815,74.0416667 370.445,74.425 C370.075,74.8083333 369.66,75 369.2,75 L348.8,75 Z M359,71.3902778 C360.7,71.3902778 362.12,70.7034722 363.26,69.3298611 C364.4,67.95625 365.02,66.3324074 365.12,64.4583333 L366.38,65.9277778 L367.25,64.7777778 L364.34,61.9027778 L361.64,64.7777778 L362.51,65.9277778 L363.62,64.7458333 C363.48,66.1300926 362.99,67.3173611 362.15,68.3076389 C361.31,69.2979167 360.26,69.7930556 359,69.7930556 L358.205,69.7930556 C357.955,69.7930556 357.7,69.7398148 357.44,69.6333333 L356.3,70.6236111 C356.74,70.8365741 357.185,71.0175926 357.635,71.1666667 C358.085,71.3157407 358.54,71.3902778 359,71.3902778 Z M353.66,67.8763889 L356.36,65.0013889 L355.49,63.8513889 L354.38,65.0333333 C354.52,63.6490741 355.01,62.4618056 355.85,61.4715278 C356.69,60.48125 357.74,59.9861111 359,59.9861111 L359.795,59.9861111 C360.045,59.9861111 360.3,60.0393519 360.56,60.1458333 L361.7,59.1555556 C361.26,58.9425926 360.815,58.7615741 360.365,58.6125 C359.915,58.4634259 359.46,58.3888889 359,58.3888889 C357.3,58.3888889 355.88,59.0756944 354.74,60.4493056 C353.6,61.8229167 352.98,63.4467593 352.88,65.3208333 L351.62,63.8513889 L350.75,65.0013889 L353.66,67.8763889 Z" id="Shape"></path>
            </g>
        </g>
    </g>
</svg>